%TF.GenerationSoftware,KiCad,Pcbnew,10.0.4*%
%TF.CreationDate,2026-09-09T23:07:52+05:00*%
%TF.ProjectId,ESP32 Project,45535033-3220-4507-926f-6a6563742e6b,rev?*%
%TF.SameCoordinates,Original*%
%TF.FileFunction,Copper,L1,Top*%
%TF.FilePolarity,Positive*%
%FSLAX46Y46*%
G04 Gerber Fmt 4.6, Leading zero omitted, Abs format (unit mm)*
G04 Created by KiCad (PCBNEW 10.0.4) date 2026-09-09 23:07:52*
%MOMM*%
%LPD*%
G01*
G04 APERTURE LIST*
G04 Aperture macros list*
%AMRoundRect*
0 Rectangle with rounded corners*
0 $1 Rounding radius*
0 $2 $3 $4 $5 $6 $7 $8 $9 X,Y pos of 4 corners*
0 Add a 4 corners polygon primitive as box body*
4,1,4,$2,$3,$4,$5,$6,$7,$8,$9,$2,$3,0*
0 Add four circle primitives for the rounded corners*
1,1,$1+$1,$2,$3*
1,1,$1+$1,$4,$5*
1,1,$1+$1,$6,$7*
1,1,$1+$1,$8,$9*
0 Add four rect primitives between the rounded corners*
20,1,$1+$1,$2,$3,$4,$5,0*
20,1,$1+$1,$4,$5,$6,$7,0*
20,1,$1+$1,$6,$7,$8,$9,0*
20,1,$1+$1,$8,$9,$2,$3,0*%
%AMFreePoly0*
4,1,14,0.289644,0.110355,0.410355,-0.010356,0.425000,-0.045711,0.425000,-0.075000,0.410355,-0.110355,0.375000,-0.125000,-0.375000,-0.125000,-0.410355,-0.110355,-0.425000,-0.075000,-0.425000,0.075000,-0.410355,0.110355,-0.375000,0.125000,0.254289,0.125000,0.289644,0.110355,0.289644,0.110355,$1*%
%AMFreePoly1*
4,1,14,0.410355,0.110355,0.425000,0.075000,0.425000,0.045711,0.410355,0.010356,0.289644,-0.110355,0.254289,-0.125000,-0.375000,-0.125000,-0.410355,-0.110355,-0.425000,-0.075000,-0.425000,0.075000,-0.410355,0.110355,-0.375000,0.125000,0.375000,0.125000,0.410355,0.110355,0.410355,0.110355,$1*%
%AMFreePoly2*
4,1,14,0.110355,0.410355,0.125000,0.375000,0.125000,-0.375000,0.110355,-0.410355,0.075000,-0.425000,-0.075000,-0.425000,-0.110355,-0.410355,-0.125000,-0.375000,-0.125000,0.254289,-0.110355,0.289644,0.010356,0.410355,0.045711,0.425000,0.075000,0.425000,0.110355,0.410355,0.110355,0.410355,$1*%
%AMFreePoly3*
4,1,14,-0.010356,0.410355,0.110355,0.289644,0.125000,0.254289,0.125000,-0.375000,0.110355,-0.410355,0.075000,-0.425000,-0.075000,-0.425000,-0.110355,-0.410355,-0.125000,-0.375000,-0.125000,0.375000,-0.110355,0.410355,-0.075000,0.425000,-0.045711,0.425000,-0.010356,0.410355,-0.010356,0.410355,$1*%
%AMFreePoly4*
4,1,14,0.410355,0.110355,0.425000,0.075000,0.425000,-0.075000,0.410355,-0.110355,0.375000,-0.125000,-0.254289,-0.125000,-0.289644,-0.110355,-0.410355,0.010356,-0.425000,0.045711,-0.425000,0.075000,-0.410355,0.110355,-0.375000,0.125000,0.375000,0.125000,0.410355,0.110355,0.410355,0.110355,$1*%
%AMFreePoly5*
4,1,14,0.410355,0.110355,0.425000,0.075000,0.425000,-0.075000,0.410355,-0.110355,0.375000,-0.125000,-0.375000,-0.125000,-0.410355,-0.110355,-0.425000,-0.075000,-0.425000,-0.045711,-0.410355,-0.010356,-0.289644,0.110355,-0.254289,0.125000,0.375000,0.125000,0.410355,0.110355,0.410355,0.110355,$1*%
%AMFreePoly6*
4,1,14,0.110355,0.410355,0.125000,0.375000,0.125000,-0.254289,0.110355,-0.289644,-0.010356,-0.410355,-0.045711,-0.425000,-0.075000,-0.425000,-0.110355,-0.410355,-0.125000,-0.375000,-0.125000,0.375000,-0.110355,0.410355,-0.075000,0.425000,0.075000,0.425000,0.110355,0.410355,0.110355,0.410355,$1*%
%AMFreePoly7*
4,1,14,0.110355,0.410355,0.125000,0.375000,0.125000,-0.375000,0.110355,-0.410355,0.075000,-0.425000,0.045711,-0.425000,0.010356,-0.410355,-0.110355,-0.289644,-0.125000,-0.254289,-0.125000,0.375000,-0.110355,0.410355,-0.075000,0.425000,0.075000,0.425000,0.110355,0.410355,0.110355,0.410355,$1*%
G04 Aperture macros list end*
%TA.AperFunction,SMDPad,CuDef*%
%ADD10R,1.100000X0.800000*%
%TD*%
%TA.AperFunction,SMDPad,CuDef*%
%ADD11R,1.100000X1.000000*%
%TD*%
%TA.AperFunction,SMDPad,CuDef*%
%ADD12RoundRect,0.147500X-0.442500X-1.257500X0.442500X-1.257500X0.442500X1.257500X-0.442500X1.257500X0*%
%TD*%
%TA.AperFunction,SMDPad,CuDef*%
%ADD13RoundRect,0.250000X0.450000X-0.262500X0.450000X0.262500X-0.450000X0.262500X-0.450000X-0.262500X0*%
%TD*%
%TA.AperFunction,SMDPad,CuDef*%
%ADD14RoundRect,0.250000X0.450000X-0.325000X0.450000X0.325000X-0.450000X0.325000X-0.450000X-0.325000X0*%
%TD*%
%TA.AperFunction,SMDPad,CuDef*%
%ADD15RoundRect,0.062500X0.350000X0.062500X-0.350000X0.062500X-0.350000X-0.062500X0.350000X-0.062500X0*%
%TD*%
%TA.AperFunction,SMDPad,CuDef*%
%ADD16RoundRect,0.062500X0.062500X0.350000X-0.062500X0.350000X-0.062500X-0.350000X0.062500X-0.350000X0*%
%TD*%
%TA.AperFunction,HeatsinkPad*%
%ADD17R,2.500000X2.500000*%
%TD*%
%TA.AperFunction,SMDPad,CuDef*%
%ADD18R,0.550000X0.570000*%
%TD*%
%TA.AperFunction,SMDPad,CuDef*%
%ADD19RoundRect,0.250000X-0.250000X-0.475000X0.250000X-0.475000X0.250000X0.475000X-0.250000X0.475000X0*%
%TD*%
%TA.AperFunction,SMDPad,CuDef*%
%ADD20RoundRect,0.250000X0.250000X0.475000X-0.250000X0.475000X-0.250000X-0.475000X0.250000X-0.475000X0*%
%TD*%
%TA.AperFunction,SMDPad,CuDef*%
%ADD21RoundRect,0.250000X0.475000X-0.250000X0.475000X0.250000X-0.475000X0.250000X-0.475000X-0.250000X0*%
%TD*%
%TA.AperFunction,SMDPad,CuDef*%
%ADD22RoundRect,0.250000X-0.262500X-0.450000X0.262500X-0.450000X0.262500X0.450000X-0.262500X0.450000X0*%
%TD*%
%TA.AperFunction,SMDPad,CuDef*%
%ADD23RoundRect,0.250000X-0.450000X0.262500X-0.450000X-0.262500X0.450000X-0.262500X0.450000X0.262500X0*%
%TD*%
%TA.AperFunction,SMDPad,CuDef*%
%ADD24RoundRect,0.250000X-0.475000X0.250000X-0.475000X-0.250000X0.475000X-0.250000X0.475000X0.250000X0*%
%TD*%
%TA.AperFunction,SMDPad,CuDef*%
%ADD25RoundRect,0.150000X-0.150000X0.512500X-0.150000X-0.512500X0.150000X-0.512500X0.150000X0.512500X0*%
%TD*%
%TA.AperFunction,SMDPad,CuDef*%
%ADD26O,1.600000X0.600000*%
%TD*%
%TA.AperFunction,SMDPad,CuDef*%
%ADD27RoundRect,0.250000X0.262500X0.450000X-0.262500X0.450000X-0.262500X-0.450000X0.262500X-0.450000X0*%
%TD*%
%TA.AperFunction,SMDPad,CuDef*%
%ADD28RoundRect,0.100000X-0.100000X0.495000X-0.100000X-0.495000X0.100000X-0.495000X0.100000X0.495000X0*%
%TD*%
%TA.AperFunction,SMDPad,CuDef*%
%ADD29RoundRect,0.150000X-0.150000X0.587500X-0.150000X-0.587500X0.150000X-0.587500X0.150000X0.587500X0*%
%TD*%
%TA.AperFunction,SMDPad,CuDef*%
%ADD30C,1.000000*%
%TD*%
%TA.AperFunction,SMDPad,CuDef*%
%ADD31RoundRect,0.250000X0.325000X0.450000X-0.325000X0.450000X-0.325000X-0.450000X0.325000X-0.450000X0*%
%TD*%
%TA.AperFunction,ComponentPad*%
%ADD32C,1.208000*%
%TD*%
%TA.AperFunction,SMDPad,CuDef*%
%ADD33R,1.500000X0.900000*%
%TD*%
%TA.AperFunction,SMDPad,CuDef*%
%ADD34R,0.700000X0.700000*%
%TD*%
%TA.AperFunction,ComponentPad*%
%ADD35C,0.400000*%
%TD*%
%TA.AperFunction,SMDPad,CuDef*%
%ADD36R,0.300000X0.900000*%
%TD*%
%TA.AperFunction,ComponentPad*%
%ADD37C,0.650000*%
%TD*%
%TA.AperFunction,ComponentPad*%
%ADD38O,0.950000X1.950000*%
%TD*%
%TA.AperFunction,ComponentPad*%
%ADD39O,1.050000X1.650000*%
%TD*%
%TA.AperFunction,ComponentPad*%
%ADD40O,1.200000X0.850000*%
%TD*%
%TA.AperFunction,SMDPad,CuDef*%
%ADD41RoundRect,0.250000X-0.457500X-0.445000X0.457500X-0.445000X0.457500X0.445000X-0.457500X0.445000X0*%
%TD*%
%TA.AperFunction,SMDPad,CuDef*%
%ADD42RoundRect,0.150000X0.150000X-0.587500X0.150000X0.587500X-0.150000X0.587500X-0.150000X-0.587500X0*%
%TD*%
%TA.AperFunction,SMDPad,CuDef*%
%ADD43FreePoly0,90.000000*%
%TD*%
%TA.AperFunction,SMDPad,CuDef*%
%ADD44RoundRect,0.062500X0.062500X-0.362500X0.062500X0.362500X-0.062500X0.362500X-0.062500X-0.362500X0*%
%TD*%
%TA.AperFunction,SMDPad,CuDef*%
%ADD45FreePoly1,90.000000*%
%TD*%
%TA.AperFunction,SMDPad,CuDef*%
%ADD46FreePoly2,90.000000*%
%TD*%
%TA.AperFunction,SMDPad,CuDef*%
%ADD47RoundRect,0.062500X0.362500X-0.062500X0.362500X0.062500X-0.362500X0.062500X-0.362500X-0.062500X0*%
%TD*%
%TA.AperFunction,SMDPad,CuDef*%
%ADD48FreePoly3,90.000000*%
%TD*%
%TA.AperFunction,SMDPad,CuDef*%
%ADD49FreePoly4,90.000000*%
%TD*%
%TA.AperFunction,SMDPad,CuDef*%
%ADD50FreePoly5,90.000000*%
%TD*%
%TA.AperFunction,SMDPad,CuDef*%
%ADD51FreePoly6,90.000000*%
%TD*%
%TA.AperFunction,SMDPad,CuDef*%
%ADD52FreePoly7,90.000000*%
%TD*%
%TA.AperFunction,HeatsinkPad*%
%ADD53R,1.600000X1.600000*%
%TD*%
%TA.AperFunction,SMDPad,CuDef*%
%ADD54R,2.150000X0.950000*%
%TD*%
%TA.AperFunction,SMDPad,CuDef*%
%ADD55R,2.150000X3.250000*%
%TD*%
%TA.AperFunction,ComponentPad*%
%ADD56R,1.700000X1.700000*%
%TD*%
%TA.AperFunction,ComponentPad*%
%ADD57C,1.700000*%
%TD*%
%TA.AperFunction,SMDPad,CuDef*%
%ADD58R,1.000000X1.500000*%
%TD*%
%TA.AperFunction,SMDPad,CuDef*%
%ADD59R,0.700000X1.500000*%
%TD*%
%TA.AperFunction,SMDPad,CuDef*%
%ADD60R,1.500000X2.800000*%
%TD*%
%TA.AperFunction,SMDPad,CuDef*%
%ADD61RoundRect,0.250000X0.445000X-0.457500X0.445000X0.457500X-0.445000X0.457500X-0.445000X-0.457500X0*%
%TD*%
%TA.AperFunction,SMDPad,CuDef*%
%ADD62RoundRect,0.250000X-0.445000X0.457500X-0.445000X-0.457500X0.445000X-0.457500X0.445000X0.457500X0*%
%TD*%
%TA.AperFunction,SMDPad,CuDef*%
%ADD63C,0.500000*%
%TD*%
%TA.AperFunction,SMDPad,CuDef*%
%ADD64R,1.000000X5.500000*%
%TD*%
%TA.AperFunction,SMDPad,CuDef*%
%ADD65R,1.600000X3.000000*%
%TD*%
%TA.AperFunction,SMDPad,CuDef*%
%ADD66RoundRect,0.250000X0.457500X0.445000X-0.457500X0.445000X-0.457500X-0.445000X0.457500X-0.445000X0*%
%TD*%
%TA.AperFunction,SMDPad,CuDef*%
%ADD67R,0.350000X0.500000*%
%TD*%
%TA.AperFunction,ViaPad*%
%ADD68C,0.600000*%
%TD*%
%TA.AperFunction,ViaPad*%
%ADD69C,0.500000*%
%TD*%
%TA.AperFunction,ViaPad*%
%ADD70C,0.800000*%
%TD*%
%TA.AperFunction,ViaPad*%
%ADD71C,0.450000*%
%TD*%
%TA.AperFunction,Conductor*%
%ADD72C,0.254000*%
%TD*%
%TA.AperFunction,Conductor*%
%ADD73C,0.200000*%
%TD*%
%TA.AperFunction,Conductor*%
%ADD74C,0.400000*%
%TD*%
%TA.AperFunction,Conductor*%
%ADD75C,0.300000*%
%TD*%
%TA.AperFunction,Conductor*%
%ADD76C,0.800000*%
%TD*%
%TA.AperFunction,Conductor*%
%ADD77C,0.250000*%
%TD*%
%TA.AperFunction,Conductor*%
%ADD78C,1.000000*%
%TD*%
%TA.AperFunction,Conductor*%
%ADD79C,0.600000*%
%TD*%
G04 APERTURE END LIST*
D10*
%TO.P,Q1,1*%
%TO.N,GND*%
X209880000Y-85450000D03*
%TO.P,Q1,2*%
%TO.N,N/C*%
X209880000Y-84350000D03*
D11*
%TO.P,Q1,3*%
%TO.N,/Esp32-C2-02/PHOTO-C*%
X206370000Y-84900000D03*
%TD*%
D12*
%TO.P,F1,1*%
%TO.N,/5volt usb*%
X203915000Y-100800000D03*
%TO.P,F1,2*%
%TO.N,VBUS_A*%
X206885000Y-100800000D03*
%TD*%
D13*
%TO.P,R24,1*%
%TO.N,+3.3V*%
X223525000Y-64362500D03*
%TO.P,R24,2*%
%TO.N,/Esp32-C2-02/SCL*%
X223525000Y-62537500D03*
%TD*%
D14*
%TO.P,D3,1,K_1*%
%TO.N,Net-(D3-K)*%
X196150000Y-97650000D03*
%TO.P,D3,2,A_2*%
%TO.N,/5volt usb*%
X196150000Y-95600000D03*
%TD*%
D15*
%TO.P,U1,1,OUT_1*%
%TO.N,/+5Volt*%
X197214250Y-108590000D03*
%TO.P,U1,2,VPCC_2*%
%TO.N,/5volt usb*%
X197214250Y-108090000D03*
%TO.P,U1,3,SEL_3*%
%TO.N,GND*%
X197214250Y-107590000D03*
%TO.P,U1,4,PROG2_4*%
%TO.N,/5volt usb*%
X197214250Y-107090000D03*
%TO.P,U1,5,THERM_5*%
%TO.N,Net-(U1-THERM)*%
X197214250Y-106590000D03*
D16*
%TO.P,U1,6,~{PG}_6*%
%TO.N,/Charging*%
X196276750Y-105652500D03*
%TO.P,U1,7,STAT2_7*%
%TO.N,/Charging power good*%
X195776750Y-105652500D03*
%TO.P,U1,8,STAT1/~{LBO}_8*%
%TO.N,/charged*%
X195276750Y-105652500D03*
%TO.P,U1,9,~{TE}_9*%
%TO.N,Net-(U1-~{TE})*%
X194776750Y-105652500D03*
%TO.P,U1,10,V_{SS}_10*%
%TO.N,GND*%
X194276750Y-105652500D03*
D15*
%TO.P,U1,11,V_{SS}_11*%
X193339250Y-106590000D03*
%TO.P,U1,12,PROG3_12*%
%TO.N,Net-(U1-PROG3)*%
X193339250Y-107090000D03*
%TO.P,U1,13,PROG1_13*%
%TO.N,Net-(U1-PROG1)*%
X193339250Y-107590000D03*
%TO.P,U1,14,V_{BAT}_14*%
%TO.N,/Vbat*%
X193339250Y-108090000D03*
%TO.P,U1,15,V_{BAT}_15*%
X193339250Y-108590000D03*
D16*
%TO.P,U1,16,V_{BAT_SENSE}_16*%
X194276750Y-109527500D03*
%TO.P,U1,17,CE_17*%
%TO.N,/5volt usb*%
X194776750Y-109527500D03*
%TO.P,U1,18,IN_18*%
X195276750Y-109527500D03*
%TO.P,U1,19,IN_19*%
X195776750Y-109527500D03*
%TO.P,U1,20,OUT_20*%
%TO.N,/+5Volt*%
X196276750Y-109527500D03*
D17*
%TO.P,U1,21,V_{SS}_21*%
%TO.N,GND*%
X195276750Y-107590000D03*
%TD*%
D18*
%TO.P,S2,1*%
%TO.N,GND*%
X222800000Y-108120000D03*
%TO.P,S2,2*%
X225350000Y-108120000D03*
%TO.P,S2,3*%
%TO.N,/Esp32-C2-02/EN*%
X222800000Y-109280000D03*
%TO.P,S2,4*%
X225350000Y-109280000D03*
%TD*%
D19*
%TO.P,C6,1*%
%TO.N,/5volt usb*%
X194326750Y-111615000D03*
%TO.P,C6,2*%
%TO.N,GND*%
X196226750Y-111615000D03*
%TD*%
D20*
%TO.P,C24,1*%
%TO.N,Net-(U7-IN+)*%
X214375000Y-71485000D03*
%TO.P,C24,2*%
%TO.N,Net-(C24-Pad2)*%
X212475000Y-71485000D03*
%TD*%
D21*
%TO.P,C1,1*%
%TO.N,VBUS_A*%
X215750000Y-102425000D03*
%TO.P,C1,2*%
%TO.N,GND*%
X215750000Y-100525000D03*
%TD*%
D22*
%TO.P,R14,1*%
%TO.N,Net-(D6-K)*%
X206012500Y-95325000D03*
%TO.P,R14,2*%
%TO.N,Net-(U4-~{TXT}{slash}GPIO.2)*%
X207837500Y-95325000D03*
%TD*%
D23*
%TO.P,R8,1*%
%TO.N,Net-(D2-K)*%
X191101750Y-100827500D03*
%TO.P,R8,2*%
%TO.N,/charged*%
X191101750Y-102652500D03*
%TD*%
D24*
%TO.P,C8,1*%
%TO.N,+3.3V*%
X243925000Y-66250000D03*
%TO.P,C8,2*%
%TO.N,GND*%
X243925000Y-68150000D03*
%TD*%
D25*
%TO.P,U5,1,I/O1_1*%
%TO.N,/Esp32-C2-02/USB D-*%
X213687500Y-99662500D03*
%TO.P,U5,2,GND_2*%
%TO.N,GND*%
X212737500Y-99662500D03*
%TO.P,U5,3,I/O2_3*%
%TO.N,/Esp32-C2-02/USB D+*%
X211787500Y-99662500D03*
%TO.P,U5,4,I/O2_4*%
%TO.N,/USB-DP*%
X211787500Y-101937500D03*
%TO.P,U5,5,VBUS_5*%
%TO.N,VBUS_A*%
X212737500Y-101937500D03*
%TO.P,U5,6,I/O1_6*%
%TO.N,/USB-DN*%
X213687500Y-101937500D03*
%TD*%
D26*
%TO.P,U2,1,~{CS}_1*%
%TO.N,/Esp32-C2-02/CS*%
X227675000Y-71045000D03*
%TO.P,U2,2,DO(IO1)_2*%
%TO.N,Net-(U2-DO(IO1))*%
X227675000Y-72315000D03*
%TO.P,U2,3,~{WP}(IO2)_3*%
%TO.N,+3.3V*%
X227675000Y-73585000D03*
%TO.P,U2,4,GND_4*%
%TO.N,GND*%
X227675000Y-74855000D03*
%TO.P,U2,5,DI(IO0)_5*%
%TO.N,/Esp32-C2-02/MOSI-DI*%
X234875000Y-74855000D03*
%TO.P,U2,6,CLK_6*%
%TO.N,/Esp32-C2-02/SCLK*%
X234875000Y-73585000D03*
%TO.P,U2,7,~{HOLD}/~{RESET}(IO3)_7*%
%TO.N,+3.3V*%
X234875000Y-72315000D03*
%TO.P,U2,8,VCC_8*%
X234875000Y-71045000D03*
%TD*%
D20*
%TO.P,C21,1*%
%TO.N,/Esp32-C2-02/BOOT*%
X232625000Y-106025000D03*
%TO.P,C21,2*%
%TO.N,GND*%
X230725000Y-106025000D03*
%TD*%
D23*
%TO.P,R5,1*%
%TO.N,GND*%
X183975000Y-100837500D03*
%TO.P,R5,2*%
%TO.N,Net-(U1-PROG1)*%
X183975000Y-102662500D03*
%TD*%
D27*
%TO.P,R23,1*%
%TO.N,+3.3V*%
X208712500Y-82200000D03*
%TO.P,R23,2*%
%TO.N,/Esp32-C2-02/PHOTO-C*%
X206887500Y-82200000D03*
%TD*%
D22*
%TO.P,R15,1*%
%TO.N,/Esp32-C2-02/MOSI-DI*%
X241625000Y-74075000D03*
%TO.P,R15,2*%
%TO.N,Net-(U3-IO7)*%
X243450000Y-74075000D03*
%TD*%
D28*
%TO.P,U7,1,IN+_1*%
%TO.N,Net-(U7-IN+)*%
X214350000Y-73800000D03*
%TO.P,U7,2,GND_2*%
%TO.N,GND*%
X213700000Y-73800000D03*
%TO.P,U7,3,IN-_3*%
%TO.N,Net-(U7-IN-)*%
X213050000Y-73800000D03*
%TO.P,U7,4,OUT_4*%
%TO.N,/Esp32-C2-02/MIC-OUT*%
X213050000Y-75720000D03*
%TO.P,U7,5,VCC_5*%
%TO.N,+3.3V*%
X214350000Y-75720000D03*
%TD*%
D14*
%TO.P,D1,1,K_1*%
%TO.N,Net-(D1-K)*%
X193675000Y-97650000D03*
%TO.P,D1,2,A_2*%
%TO.N,/5volt usb*%
X193675000Y-95600000D03*
%TD*%
D29*
%TO.P,Q2,1,B_1*%
%TO.N,Net-(Q2-B)*%
X224975000Y-101462500D03*
%TO.P,Q2,2,E_2*%
%TO.N,/Esp32-C2-02/RTS*%
X223075000Y-101462500D03*
%TO.P,Q2,3,C_3*%
%TO.N,/Esp32-C2-02/EN*%
X224025000Y-103337500D03*
%TD*%
D30*
%TO.P,TP1,1,1_1*%
%TO.N,/Esp32-C2-02/MOSI-DI*%
X233500000Y-89050000D03*
%TD*%
D13*
%TO.P,R35,1*%
%TO.N,/Esp32-C2-02/EN*%
X220675000Y-108837500D03*
%TO.P,R35,2*%
%TO.N,+3.3V*%
X220675000Y-107012500D03*
%TD*%
D21*
%TO.P,C14,1*%
%TO.N,GND*%
X225275000Y-75425000D03*
%TO.P,C14,2*%
%TO.N,+3.3V*%
X225275000Y-73525000D03*
%TD*%
D13*
%TO.P,R4,1*%
%TO.N,GND*%
X205949250Y-107867500D03*
%TO.P,R4,2*%
%TO.N,Net-(J1-CC1)*%
X205949250Y-106042500D03*
%TD*%
D22*
%TO.P,R29,1*%
%TO.N,Net-(U7-IN+)*%
X216637500Y-73951667D03*
%TO.P,R29,2*%
%TO.N,+3.3V*%
X218462500Y-73951667D03*
%TD*%
D27*
%TO.P,R27,1*%
%TO.N,Net-(C19-Pad1)*%
X218462500Y-76393333D03*
%TO.P,R27,2*%
%TO.N,Net-(U7-IN-)*%
X216637500Y-76393333D03*
%TD*%
D22*
%TO.P,R12,1*%
%TO.N,VBUS_A*%
X218512500Y-87312500D03*
%TO.P,R12,2*%
X220337500Y-87312500D03*
%TD*%
D27*
%TO.P,R33,1*%
%TO.N,/Esp32-C2-02/DTR*%
X228701750Y-100040000D03*
%TO.P,R33,2*%
%TO.N,Net-(Q2-B)*%
X226876750Y-100040000D03*
%TD*%
D31*
%TO.P,D5,1,K_1*%
%TO.N,Net-(D5-K)*%
X203675000Y-92275000D03*
%TO.P,D5,2,A_2*%
%TO.N,+3.3V*%
X201625000Y-92275000D03*
%TD*%
D20*
%TO.P,C5,1*%
%TO.N,+3.3V*%
X193425000Y-81100000D03*
%TO.P,C5,2*%
%TO.N,GND*%
X191525000Y-81100000D03*
%TD*%
D27*
%TO.P,R10,1*%
%TO.N,Net-(D4-K)*%
X200612500Y-80325000D03*
%TO.P,R10,2*%
%TO.N,GND*%
X198787500Y-80325000D03*
%TD*%
D31*
%TO.P,D4,1,K_1*%
%TO.N,Net-(D4-K)*%
X200702500Y-83023250D03*
%TO.P,D4,2,A_2*%
%TO.N,+3.3V*%
X198652500Y-83023250D03*
%TD*%
D23*
%TO.P,R11,1*%
%TO.N,+3.3V*%
X212525000Y-88250000D03*
%TO.P,R11,2*%
%TO.N,Net-(U4-~{RST})*%
X212525000Y-90075000D03*
%TD*%
D32*
%TO.P,MK1,GND*%
%TO.N,GND*%
X202531250Y-73435000D03*
%TO.P,MK1,OUT*%
%TO.N,Net-(C24-Pad2)*%
X202531250Y-75335000D03*
%TD*%
D31*
%TO.P,D6,1,K_1*%
%TO.N,Net-(D6-K)*%
X203725000Y-95275000D03*
%TO.P,D6,2,A_2*%
%TO.N,+3.3V*%
X201675000Y-95275000D03*
%TD*%
D24*
%TO.P,C25,1*%
%TO.N,Net-(C25-Pad1)*%
X206075000Y-68760000D03*
%TO.P,C25,2*%
%TO.N,GND*%
X206075000Y-70660000D03*
%TD*%
D33*
%TO.P,U3,1,3V3_1*%
%TO.N,+3.3V*%
X246075000Y-65900000D03*
%TO.P,U3,2,EN_2*%
%TO.N,/Esp32-C2-02/EN*%
X246075000Y-67400000D03*
%TO.P,U3,3,IO4_3*%
%TO.N,/Esp32-C2-02/SDA*%
X246075000Y-68900000D03*
%TO.P,U3,4,IO5_4*%
%TO.N,/Esp32-C2-02/MIC-OUT*%
X246075000Y-70400000D03*
%TO.P,U3,5,IO6_5*%
%TO.N,Net-(U3-IO6)*%
X246075000Y-71900000D03*
%TO.P,U3,6,IO7_6*%
%TO.N,Net-(U3-IO7)*%
X246075000Y-73400000D03*
%TO.P,U3,7,IO8_7*%
%TO.N,/Esp32-C2-02/GPIO8*%
X246075000Y-74900000D03*
%TO.P,U3,8,IO9_8*%
%TO.N,/Esp32-C2-02/BOOT*%
X246075000Y-76400000D03*
%TO.P,U3,9,GND_9*%
%TO.N,GND*%
X246075000Y-77900000D03*
%TO.P,U3,10,IO10_10*%
%TO.N,/Esp32-C2-02/CS*%
X263575000Y-77900000D03*
%TO.P,U3,11,RXD_11*%
%TO.N,/Esp32-C2-02/TX-RX*%
X263575000Y-76400000D03*
%TO.P,U3,12,TXD_12*%
%TO.N,/Esp32-C2-02/RX-TX*%
X263575000Y-74900000D03*
%TO.P,U3,13,IO18_13*%
%TO.N,/Esp32-C2-02/GPIO18*%
X263575000Y-73400000D03*
%TO.P,U3,14,IO19_14*%
%TO.N,/Esp32-C2-02/GPIO19*%
X263575000Y-71900000D03*
%TO.P,U3,15,IO3_15*%
%TO.N,/Esp32-C2-02/SCL*%
X263575000Y-70400000D03*
%TO.P,U3,16,IO2_16*%
%TO.N,/Esp32-C2-02/MISO-DO*%
X263575000Y-68900000D03*
%TO.P,U3,17,IO1_17*%
%TO.N,/Esp32-C2-02/PHOTO-C*%
X263575000Y-67400000D03*
%TO.P,U3,18,IO0_18*%
%TO.N,/Esp32-C2-02/CS-SD*%
X263575000Y-65900000D03*
D34*
%TO.P,U3,19,GND_19*%
%TO.N,GND*%
X254685000Y-71000000D03*
%TO.P,U3,20,GND_20*%
X255785000Y-71000000D03*
%TO.P,U3,21,GND_21*%
X256885000Y-71000000D03*
%TO.P,U3,22,GND_22*%
X254685000Y-72100000D03*
%TO.P,U3,23,GND_23*%
X255785000Y-72100000D03*
%TO.P,U3,24,GND_24*%
X256885000Y-72100000D03*
%TO.P,U3,25,GND_25*%
X254685000Y-73200000D03*
%TO.P,U3,26,GND_26*%
X255785000Y-73200000D03*
%TO.P,U3,27,GND_27*%
X256885000Y-73200000D03*
D35*
%TO.P,U3,28,GND_28*%
X255235000Y-71000000D03*
%TO.P,U3,29,GND_29*%
X256335000Y-71000000D03*
%TO.P,U3,30,GND_30*%
X254685000Y-71550000D03*
%TO.P,U3,31,GND_31*%
X255785000Y-71550000D03*
%TO.P,U3,32,GND_32*%
X256885000Y-71550000D03*
%TO.P,U3,33,GND_33*%
X255235000Y-72100000D03*
%TO.P,U3,34,GND_34*%
X256335000Y-72100000D03*
%TO.P,U3,35,GND_35*%
X254685000Y-72650000D03*
%TO.P,U3,36,GND_36*%
X255785000Y-72650000D03*
%TO.P,U3,37,GND_37*%
X256885000Y-72650000D03*
%TO.P,U3,38,GND_38*%
X255235000Y-73200000D03*
%TO.P,U3,39,GND_39*%
X256335000Y-73200000D03*
%TD*%
D18*
%TO.P,S1,1*%
%TO.N,GND*%
X230350000Y-108095000D03*
%TO.P,S1,2*%
X232900000Y-108095000D03*
%TO.P,S1,3*%
%TO.N,/Esp32-C2-02/BOOT*%
X230350000Y-109255000D03*
%TO.P,S1,4*%
X232900000Y-109255000D03*
%TD*%
D23*
%TO.P,R6,1*%
%TO.N,GND*%
X186387500Y-100837500D03*
%TO.P,R6,2*%
%TO.N,Net-(U1-PROG3)*%
X186387500Y-102662500D03*
%TD*%
D13*
%TO.P,R3,1*%
%TO.N,GND*%
X205949250Y-111617500D03*
%TO.P,R3,2*%
%TO.N,Net-(J1-CC2)*%
X205949250Y-109792500D03*
%TD*%
D36*
%TO.P,J1,A1,GND_A_A1*%
%TO.N,GND*%
X210000000Y-105690000D03*
%TO.P,J1,A2,SSTXP1_A2*%
%TO.N,unconnected-(J1-SSTXP1-PadA2)*%
X210500000Y-105690000D03*
%TO.P,J1,A3,SSTXN1_A3*%
%TO.N,unconnected-(J1-SSTXN1-PadA3)*%
X211000000Y-105690000D03*
%TO.P,J1,A4,VBUS_A_A4*%
%TO.N,VBUS_A*%
X211500000Y-105690000D03*
%TO.P,J1,A5,CC1_A5*%
%TO.N,Net-(J1-CC1)*%
X212000000Y-105690000D03*
%TO.P,J1,A6,DP1_A6*%
%TO.N,/USB-DP*%
X212500000Y-105690000D03*
%TO.P,J1,A7,DN1_A7*%
%TO.N,/USB-DN*%
X213000000Y-105690000D03*
%TO.P,J1,A8,SBU1_A8*%
%TO.N,unconnected-(J1-SBU1-PadA8)*%
X213500000Y-105690000D03*
%TO.P,J1,A9,VBUS_A_A9*%
%TO.N,VBUS_A*%
X214000000Y-105690000D03*
%TO.P,J1,A10,SSRXN2_A10*%
%TO.N,unconnected-(J1-SSRXN2-PadA10)*%
X214500000Y-105690000D03*
%TO.P,J1,A11,SSRXP2_A11*%
%TO.N,unconnected-(J1-SSRXP2-PadA11)*%
X215000000Y-105690000D03*
%TO.P,J1,A12,GND_A_A12*%
%TO.N,GND*%
X215500000Y-105690000D03*
D37*
%TO.P,J1,B1,GND_B_B1*%
X215550000Y-106910000D03*
%TO.P,J1,B2,SSTXP2_B2*%
%TO.N,unconnected-(J1-SSTXP2-PadB2)*%
X215150000Y-107610000D03*
%TO.P,J1,B3,SSTXN2_B3*%
%TO.N,unconnected-(J1-SSTXN2-PadB3)*%
X214350000Y-107610000D03*
%TO.P,J1,B4,VBUS_B_B4*%
%TO.N,VBUS_A*%
X213950000Y-106910000D03*
%TO.P,J1,B5,CC2_B5*%
%TO.N,Net-(J1-CC2)*%
X213550000Y-107610000D03*
%TO.P,J1,B6,DP2_B6*%
%TO.N,/USB-DP*%
X213150000Y-106910000D03*
%TO.P,J1,B7,DN2_B7*%
%TO.N,/USB-DN*%
X212350000Y-106910000D03*
%TO.P,J1,B8,SBU2_B8*%
%TO.N,unconnected-(J1-SBU2-PadB8)*%
X211950000Y-107610000D03*
%TO.P,J1,B9,VBUS_B_B9*%
%TO.N,VBUS_A*%
X211550000Y-106910000D03*
%TO.P,J1,B10,SSRXN1_B10*%
%TO.N,unconnected-(J1-SSRXN1-PadB10)*%
X211150000Y-107610000D03*
%TO.P,J1,B11,SSRXP1_B11*%
%TO.N,unconnected-(J1-SSRXP1-PadB11)*%
X210350000Y-107610000D03*
%TO.P,J1,B12,GND_B_B12*%
%TO.N,GND*%
X209950000Y-106910000D03*
D38*
%TO.P,J1,G1,SHIELD_G1*%
X208250000Y-110025000D03*
D39*
%TO.P,J1,G2,SHIELD_G2*%
X208530000Y-107510000D03*
D40*
%TO.P,J1,G3,SHIELD_G3*%
X208905000Y-104710000D03*
%TO.P,J1,G4,SHIELD_G4*%
X216595000Y-104710000D03*
D39*
%TO.P,J1,G5,SHIELD_G5*%
X216970000Y-107510000D03*
D38*
%TO.P,J1,G6,SHIELD_G6*%
X217250000Y-110025000D03*
%TD*%
D30*
%TO.P,TP4,1,1_1*%
%TO.N,/Esp32-C2-02/CS-SD*%
X263750000Y-83575000D03*
%TD*%
D13*
%TO.P,R2,1*%
%TO.N,Net-(U1-THERM)*%
X198575000Y-102662500D03*
%TO.P,R2,2*%
%TO.N,GND*%
X198575000Y-100837500D03*
%TD*%
D41*
%TO.P,C12,1*%
%TO.N,+3.3V*%
X250222500Y-83550000D03*
%TO.P,C12,2*%
%TO.N,GND*%
X252927500Y-83550000D03*
%TD*%
D23*
%TO.P,R16,1*%
%TO.N,/Esp32-C2-02/MISO-DO*%
X242600000Y-83762500D03*
%TO.P,R16,2*%
%TO.N,Net-(J3-DAT0)*%
X242600000Y-85587500D03*
%TD*%
D22*
%TO.P,R28,1*%
%TO.N,GND*%
X216637500Y-71510000D03*
%TO.P,R28,2*%
%TO.N,Net-(U7-IN+)*%
X218462500Y-71510000D03*
%TD*%
D42*
%TO.P,Q3,1,B_1*%
%TO.N,Net-(Q3-B)*%
X230626750Y-103677500D03*
%TO.P,Q3,2,E_2*%
%TO.N,/Esp32-C2-02/BOOT*%
X232526750Y-103677500D03*
%TO.P,Q3,3,C_3*%
%TO.N,/Esp32-C2-02/DTR*%
X231576750Y-101802500D03*
%TD*%
D43*
%TO.P,U4,1,RS485/GPIO.1_1*%
%TO.N,unconnected-(U4-RS485{slash}GPIO.1-Pad1)*%
X211150000Y-95037500D03*
D44*
%TO.P,U4,2,CLK/GPIO.0_2*%
%TO.N,unconnected-(U4-CLK{slash}GPIO.0-Pad2)*%
X211600000Y-95037500D03*
%TO.P,U4,3,GND_3*%
%TO.N,GND*%
X212050000Y-95037500D03*
%TO.P,U4,4,D+_4*%
%TO.N,/Esp32-C2-02/USB D+*%
X212500000Y-95037500D03*
D45*
%TO.P,U4,5,D-_5*%
%TO.N,/Esp32-C2-02/USB D-*%
X212950000Y-95037500D03*
D46*
%TO.P,U4,6,VDD_6*%
%TO.N,+3.3V*%
X213500000Y-94487500D03*
D47*
%TO.P,U4,7,VREGIN_7*%
X213500000Y-94037500D03*
%TO.P,U4,8,VBUS_8*%
%TO.N,VBUS_A*%
X213500000Y-93587500D03*
%TO.P,U4,9,~{RST}_9*%
%TO.N,Net-(U4-~{RST})*%
X213500000Y-93137500D03*
D48*
%TO.P,U4,10,NC_10*%
%TO.N,unconnected-(U4-NC-Pad10)*%
X213500000Y-92687500D03*
D49*
%TO.P,U4,11,~{SUSPEND}_11*%
%TO.N,unconnected-(U4-~{SUSPEND}-Pad11)*%
X212950000Y-92137500D03*
D44*
%TO.P,U4,12,GND_12*%
%TO.N,GND*%
X212500000Y-92137500D03*
%TO.P,U4,13,~{WAKEUP}_13*%
%TO.N,unconnected-(U4-~{WAKEUP}-Pad13)*%
X212050000Y-92137500D03*
%TO.P,U4,14,SUSPEND_14*%
%TO.N,unconnected-(U4-SUSPEND-Pad14)*%
X211600000Y-92137500D03*
D50*
%TO.P,U4,15,~{CTS}_15*%
%TO.N,/Esp32-C2-02/DTR*%
X211150000Y-92137500D03*
D51*
%TO.P,U4,16,~{RTS}_16*%
%TO.N,/Esp32-C2-02/RTS*%
X210600000Y-92687500D03*
D47*
%TO.P,U4,17,RXD_17*%
%TO.N,/Esp32-C2-02/RX-TX*%
X210600000Y-93137500D03*
%TO.P,U4,18,TXD_18*%
%TO.N,/Esp32-C2-02/TX-RX*%
X210600000Y-93587500D03*
%TO.P,U4,19,~{RXT}/GPIO.3_19*%
%TO.N,Net-(U4-~{RXT}{slash}GPIO.3)*%
X210600000Y-94037500D03*
D52*
%TO.P,U4,20,~{TXT}/GPIO.2_20*%
%TO.N,Net-(U4-~{TXT}{slash}GPIO.2)*%
X210600000Y-94487500D03*
D53*
%TO.P,U4,21,GND_21*%
%TO.N,GND*%
X212050000Y-93587500D03*
%TD*%
D22*
%TO.P,R13,1*%
%TO.N,VBUS_A*%
X218537500Y-89812500D03*
%TO.P,R13,2*%
%TO.N,GND*%
X220362500Y-89812500D03*
%TD*%
D19*
%TO.P,C18,1*%
%TO.N,GND*%
X212500000Y-77985000D03*
%TO.P,C18,2*%
%TO.N,+3.3V*%
X214400000Y-77985000D03*
%TD*%
D30*
%TO.P,TP5,1,1_1*%
%TO.N,/Esp32-C2-02/CS*%
X229550000Y-68475000D03*
%TD*%
D22*
%TO.P,R18,1*%
%TO.N,Net-(D5-K)*%
X206015000Y-92325000D03*
%TO.P,R18,2*%
%TO.N,Net-(U4-~{RXT}{slash}GPIO.3)*%
X207840000Y-92325000D03*
%TD*%
%TO.P,R22,1*%
%TO.N,Net-(U2-DO(IO1))*%
X232387500Y-77450000D03*
%TO.P,R22,2*%
%TO.N,/Esp32-C2-02/MISO-DO*%
X234212500Y-77450000D03*
%TD*%
D54*
%TO.P,VR1,1,GND_1*%
%TO.N,GND*%
X191925000Y-85975000D03*
%TO.P,VR1,2,VOUT_2_2*%
%TO.N,+3.3V*%
X191925000Y-88275000D03*
%TO.P,VR1,3,VIN_3*%
%TO.N,/+5Volt*%
X191925000Y-90575000D03*
D55*
%TO.P,VR1,4,VOUT_4_4*%
%TO.N,+3.3V*%
X197725000Y-88275000D03*
%TD*%
D56*
%TO.P,J4,1,Pin_1_1*%
%TO.N,+3.3V*%
X211900000Y-62525000D03*
D57*
%TO.P,J4,2,Pin_2_2*%
%TO.N,/Esp32-C2-02/SDA*%
X209360000Y-62525000D03*
%TO.P,J4,3,Pin_3_3*%
%TO.N,/Esp32-C2-02/SCL*%
X206820000Y-62525000D03*
%TO.P,J4,4,Pin_4_4*%
%TO.N,GND*%
X204280000Y-62525000D03*
%TD*%
D22*
%TO.P,R34,1*%
%TO.N,/Esp32-C2-02/RTS*%
X226876750Y-103365000D03*
%TO.P,R34,2*%
%TO.N,Net-(Q3-B)*%
X228701750Y-103365000D03*
%TD*%
D20*
%TO.P,C22,1*%
%TO.N,/Esp32-C2-02/EN*%
X224975000Y-106000000D03*
%TO.P,C22,2*%
%TO.N,GND*%
X223075000Y-106000000D03*
%TD*%
D19*
%TO.P,C19,1*%
%TO.N,Net-(C19-Pad1)*%
X216637500Y-78772500D03*
%TO.P,C19,2*%
%TO.N,GND*%
X218537500Y-78772500D03*
%TD*%
D23*
%TO.P,R31,1*%
%TO.N,Net-(U7-IN-)*%
X209950000Y-73747500D03*
%TO.P,R31,2*%
%TO.N,/Esp32-C2-02/MIC-OUT*%
X209950000Y-75572500D03*
%TD*%
D58*
%TO.P,J3,1,CD/DAT3_1*%
%TO.N,/Esp32-C2-02/CS-SD*%
X257525000Y-87875000D03*
%TO.P,J3,2,CMD_2*%
%TO.N,/Esp32-C2-02/MOSI-DI*%
X255025000Y-87875000D03*
%TO.P,J3,3,VSS1_3*%
%TO.N,GND*%
X252525000Y-87875000D03*
%TO.P,J3,4,VDD1_4*%
%TO.N,+3.3V*%
X250025000Y-87875000D03*
%TO.P,J3,5,CLK_5*%
%TO.N,/Esp32-C2-02/SCLK*%
X247525000Y-87875000D03*
%TO.P,J3,6,VSS2_6*%
%TO.N,GND*%
X245025000Y-87875000D03*
%TO.P,J3,7,DAT0_7*%
%TO.N,Net-(J3-DAT0)*%
X242600000Y-87875000D03*
%TO.P,J3,8,DAT1_8*%
%TO.N,GND*%
X240900000Y-87875000D03*
%TO.P,J3,9,DAT2_9*%
X260025000Y-87875000D03*
D59*
%TO.P,J3,CD_IND,CD_IND_CD_IND*%
%TO.N,unconnected-(J3-PadCD_IND)*%
X239600000Y-87875000D03*
D60*
%TO.P,J3,G1,SHIELD_GND_G1*%
%TO.N,GND*%
X237000000Y-89675000D03*
%TO.P,J3,G2,SHIELD_GND_G2*%
X262100000Y-89675000D03*
%TO.P,J3,G3,SHIELD_GND_G3*%
X264300000Y-111175000D03*
%TO.P,J3,G4,SHIELD_GND_G4*%
X237000000Y-111175000D03*
D59*
%TO.P,J3,WP,WP_WP*%
%TO.N,unconnected-(J3-PadWP)*%
X238400000Y-87875000D03*
%TD*%
D22*
%TO.P,R32,1*%
%TO.N,Net-(C25-Pad1)*%
X208387500Y-68935000D03*
%TO.P,R32,2*%
%TO.N,+3.3V*%
X210212500Y-68935000D03*
%TD*%
D56*
%TO.P,J5,1,Pin_1_1*%
%TO.N,GND*%
X189860000Y-62525000D03*
D57*
%TO.P,J5,2,Pin_2_2*%
%TO.N,/Esp32-C2-02/GPIO8*%
X192400000Y-62525000D03*
%TO.P,J5,3,Pin_3_3*%
%TO.N,/Esp32-C2-02/GPIO18*%
X194940000Y-62525000D03*
%TO.P,J5,4,Pin_4_4*%
%TO.N,/Esp32-C2-02/GPIO19*%
X197480000Y-62525000D03*
%TO.P,J5,5,Pin_5_5*%
%TO.N,+3.3V*%
X200020000Y-62525000D03*
%TD*%
D61*
%TO.P,C9,1*%
%TO.N,+3.3V*%
X218075000Y-94927500D03*
%TO.P,C9,2*%
%TO.N,GND*%
X218075000Y-92222500D03*
%TD*%
D23*
%TO.P,R9,1*%
%TO.N,Net-(D3-K)*%
X196126750Y-100827500D03*
%TO.P,R9,2*%
%TO.N,/Charging*%
X196126750Y-102652500D03*
%TD*%
D13*
%TO.P,R25,1*%
%TO.N,+3.3V*%
X221225000Y-64362500D03*
%TO.P,R25,2*%
%TO.N,/Esp32-C2-02/SDA*%
X221225000Y-62537500D03*
%TD*%
D21*
%TO.P,C20,1*%
%TO.N,/Esp32-C2-02/MIC-OUT*%
X207500000Y-75610000D03*
%TO.P,C20,2*%
%TO.N,Net-(U7-IN-)*%
X207500000Y-73710000D03*
%TD*%
D19*
%TO.P,C15,1*%
%TO.N,GND*%
X217250000Y-66050000D03*
%TO.P,C15,2*%
%TO.N,+3.3V*%
X219150000Y-66050000D03*
%TD*%
D23*
%TO.P,R7,1*%
%TO.N,Net-(D1-K)*%
X193601750Y-100827500D03*
%TO.P,R7,2*%
%TO.N,/Charging power good*%
X193601750Y-102652500D03*
%TD*%
D62*
%TO.P,C7,1*%
%TO.N,+3.3V*%
X241700000Y-66447500D03*
%TO.P,C7,2*%
%TO.N,GND*%
X241700000Y-69152500D03*
%TD*%
D21*
%TO.P,C2,1*%
%TO.N,/+5Volt*%
X186500000Y-87900000D03*
%TO.P,C2,2*%
%TO.N,GND*%
X186500000Y-86000000D03*
%TD*%
D63*
%TO.P,TP3,1,1_1*%
%TO.N,/Esp32-C2-02/SCLK*%
X238600000Y-73525000D03*
%TD*%
D23*
%TO.P,R19,1*%
%TO.N,+3.3V*%
X257850000Y-83137500D03*
%TO.P,R19,2*%
%TO.N,/Esp32-C2-02/CS-SD*%
X257850000Y-84962500D03*
%TD*%
D22*
%TO.P,R30,1*%
%TO.N,Net-(C24-Pad2)*%
X208387500Y-71460000D03*
%TO.P,R30,2*%
%TO.N,Net-(C25-Pad1)*%
X210212500Y-71460000D03*
%TD*%
D27*
%TO.P,R20,1*%
%TO.N,Net-(U3-IO6)*%
X243437500Y-71725000D03*
%TO.P,R20,2*%
%TO.N,/Esp32-C2-02/SCLK*%
X241612500Y-71725000D03*
%TD*%
D21*
%TO.P,C11,1*%
%TO.N,VBUS_A*%
X215675000Y-90987500D03*
%TO.P,C11,2*%
%TO.N,GND*%
X215675000Y-89087500D03*
%TD*%
D64*
%TO.P,J2,1,1_1*%
%TO.N,GND*%
X183000000Y-110050000D03*
%TO.P,J2,2,2_2*%
%TO.N,/Vbat*%
X185000000Y-110050000D03*
D65*
%TO.P,J2,S1*%
%TO.N,N/C*%
X180600000Y-107800000D03*
%TO.P,J2,S2*%
X187400000Y-107800000D03*
%TD*%
D14*
%TO.P,D2,1,K_1*%
%TO.N,Net-(D2-K)*%
X191125000Y-97650000D03*
%TO.P,D2,2,A_2*%
%TO.N,/5volt usb*%
X191125000Y-95600000D03*
%TD*%
D21*
%TO.P,C10,1*%
%TO.N,+3.3V*%
X215775000Y-94900000D03*
%TO.P,C10,2*%
%TO.N,GND*%
X215775000Y-93000000D03*
%TD*%
D19*
%TO.P,C13,1*%
%TO.N,+3.3V*%
X250100000Y-85775000D03*
%TO.P,C13,2*%
%TO.N,GND*%
X252000000Y-85775000D03*
%TD*%
D66*
%TO.P,C4,1*%
%TO.N,+3.3V*%
X194427500Y-83375000D03*
%TO.P,C4,2*%
%TO.N,GND*%
X191722500Y-83375000D03*
%TD*%
D61*
%TO.P,C3,1*%
%TO.N,/+5Volt*%
X188925000Y-88902500D03*
%TO.P,C3,2*%
%TO.N,GND*%
X188925000Y-86197500D03*
%TD*%
D13*
%TO.P,R1,1*%
%TO.N,Net-(U1-~{TE})*%
X188800000Y-102662500D03*
%TO.P,R1,2*%
%TO.N,GND*%
X188800000Y-100837500D03*
%TD*%
D30*
%TO.P,TP2,1,1_1*%
%TO.N,/Esp32-C2-02/MISO-DO*%
X239575000Y-77500000D03*
%TD*%
D67*
%TO.P,U6,1,GND_1*%
%TO.N,GND*%
X217500000Y-62325000D03*
%TO.P,U6,2,CSB_2*%
%TO.N,+3.3V*%
X218150000Y-62325000D03*
%TO.P,U6,3,SDI_3*%
%TO.N,/Esp32-C2-02/SDA*%
X218800000Y-62325000D03*
%TO.P,U6,4,SCK_4*%
%TO.N,/Esp32-C2-02/SCL*%
X219450000Y-62325000D03*
%TO.P,U6,5,SDO_5*%
%TO.N,GND*%
X219450000Y-64375000D03*
%TO.P,U6,6,VDDIO_6*%
%TO.N,+3.3V*%
X218800000Y-64375000D03*
%TO.P,U6,7,GND_7*%
%TO.N,GND*%
X218150000Y-64375000D03*
%TO.P,U6,8,VDD_8*%
%TO.N,+3.3V*%
X217500000Y-64375000D03*
%TD*%
D68*
%TO.N,+3.3V*%
X199750000Y-87506250D03*
X219100000Y-67500000D03*
X211500000Y-69000000D03*
X214400000Y-79500000D03*
X220000000Y-73900000D03*
X199750000Y-89775000D03*
X210000000Y-82200000D03*
X259000000Y-83200000D03*
D69*
X195300000Y-81100000D03*
X219400000Y-94940000D03*
D68*
X199750000Y-89018750D03*
X220200000Y-105500000D03*
X199750000Y-86750000D03*
D69*
X212500000Y-87150000D03*
D68*
X199750000Y-88262500D03*
X235600000Y-69900000D03*
X200000000Y-92200000D03*
X224000000Y-73550000D03*
X221200000Y-66500000D03*
X250350000Y-82175000D03*
D70*
X240250000Y-66450000D03*
D69*
%TO.N,/Esp32-C2-02/SCL*%
X238500000Y-65850000D03*
X260000000Y-70400000D03*
%TO.N,/5volt usb*%
X198868356Y-106418356D03*
D68*
X193325000Y-111615000D03*
D69*
X202250000Y-99350000D03*
X195300000Y-110500000D03*
X198917893Y-108400000D03*
X202250000Y-102350000D03*
X195943449Y-110371551D03*
X189600000Y-95700000D03*
X202250000Y-100850000D03*
D68*
%TO.N,/+5Volt*%
X186500000Y-90300000D03*
%TO.N,GND*%
X215650000Y-92000000D03*
X186250000Y-84875000D03*
D69*
X235300000Y-89000000D03*
D68*
X220200000Y-78800000D03*
D69*
X219150000Y-92200000D03*
X247900000Y-78100000D03*
D68*
X191250000Y-84875000D03*
D69*
X213100000Y-100800000D03*
X216700000Y-62300000D03*
X220200000Y-65300000D03*
D68*
X187500000Y-84875000D03*
D69*
X254300000Y-83600000D03*
X245100000Y-86600000D03*
X235400000Y-111200000D03*
X216000000Y-66300000D03*
D68*
X211150000Y-96650000D03*
D69*
X193000000Y-105600000D03*
X240900000Y-86500000D03*
X229700000Y-106000000D03*
D68*
X190000000Y-84875000D03*
D69*
X209150000Y-103700000D03*
X241700000Y-70150000D03*
D68*
X222000000Y-107350000D03*
X198530935Y-107566180D03*
X181323250Y-111335000D03*
X188750000Y-84875000D03*
D69*
X251800000Y-89600000D03*
X197275000Y-111615000D03*
X215376250Y-70248750D03*
X229300000Y-108600000D03*
X211200000Y-85500000D03*
X253400000Y-85500000D03*
D68*
X225300000Y-76550000D03*
D69*
X197400000Y-80300000D03*
X221900000Y-89800000D03*
D68*
X190225000Y-83500000D03*
D69*
X213450000Y-72675000D03*
D68*
X181323250Y-113335000D03*
X190225000Y-82212500D03*
X262300000Y-111200000D03*
D69*
X185175000Y-100837500D03*
X223000000Y-104700000D03*
D68*
X217100000Y-100500000D03*
D69*
X215700000Y-88000000D03*
X260000000Y-86400000D03*
D68*
X211300000Y-78000000D03*
D69*
X187575000Y-100837500D03*
D68*
X190225000Y-80925000D03*
X198600000Y-99400000D03*
X181323250Y-112335000D03*
D71*
%TO.N,/Esp32-C2-02/EN*%
X250800000Y-70275000D03*
X256502000Y-80400000D03*
D69*
%TO.N,VBUS_A*%
X208500000Y-101725000D03*
X208500000Y-100800000D03*
X208500000Y-99875000D03*
D68*
X210700000Y-100800000D03*
X210100000Y-103500000D03*
%TO.N,/USB-DP*%
X211865642Y-103256239D03*
%TO.N,/USB-DN*%
X213800000Y-103500000D03*
D69*
%TO.N,/Esp32-C2-02/CS*%
X246300000Y-79600000D03*
D68*
X234480025Y-69430025D03*
D71*
%TO.N,/Esp32-C2-02/BOOT*%
X255300000Y-80600000D03*
X248500000Y-76400000D03*
D68*
%TO.N,/Esp32-C2-02/PHOTO-C*%
X256400000Y-68700000D03*
X239300000Y-68700000D03*
D69*
%TO.N,/Esp32-C2-02/MIC-OUT*%
X213600000Y-76800000D03*
X248000000Y-67427000D03*
X244300000Y-70200000D03*
%TO.N,/Esp32-C2-02/RTS*%
X209050000Y-91400000D03*
X217350000Y-99550000D03*
D71*
%TO.N,/Esp32-C2-02/DTR*%
X211500000Y-91150000D03*
D68*
X217100000Y-98100000D03*
D69*
%TO.N,/Esp32-C2-02/SDA*%
X250000000Y-67850000D03*
X235200000Y-66800000D03*
%TO.N,/Esp32-C2-02/GPIO8*%
X224800000Y-69100000D03*
X244400000Y-75600000D03*
%TO.N,/Esp32-C2-02/TX-RX*%
X209531250Y-93487500D03*
X260700000Y-77100000D03*
D68*
%TO.N,/Esp32-C2-02/RX-TX*%
X261300000Y-75800000D03*
X209577000Y-92600000D03*
%TO.N,/Esp32-C2-02/GPIO18*%
X261000000Y-73400000D03*
D69*
X225806860Y-68541158D03*
%TO.N,/Esp32-C2-02/GPIO19*%
X225700000Y-67900000D03*
D68*
X261200000Y-71900000D03*
D69*
%TO.N,/Esp32-C2-02/MISO-DO*%
X240875000Y-77500000D03*
X249225000Y-77500000D03*
%TD*%
%TO.N,VBUS_A*%
D72*
X214698000Y-101373000D02*
X215750000Y-102425000D01*
X214698000Y-99615288D02*
X214698000Y-101373000D01*
X216840288Y-97473000D02*
X214698000Y-99615288D01*
X222477000Y-92679002D02*
X217683002Y-97473000D01*
X220337500Y-87312500D02*
X222477000Y-89452000D01*
X222477000Y-89452000D02*
X222477000Y-92679002D01*
X217683002Y-97473000D02*
X216840288Y-97473000D01*
%TO.N,/Esp32-C2-02/MISO-DO*%
X240525000Y-83762500D02*
X234212500Y-77450000D01*
X242600000Y-83762500D02*
X240525000Y-83762500D01*
%TO.N,Net-(J3-DAT0)*%
X242600000Y-87875000D02*
X242600000Y-85587500D01*
%TO.N,+3.3V*%
D73*
X208712500Y-82200000D02*
X210000000Y-82200000D01*
D74*
X214400000Y-77985000D02*
X214400000Y-75770000D01*
D75*
X221225000Y-66475000D02*
X221200000Y-66500000D01*
D72*
X217825000Y-64975000D02*
X218800000Y-64975000D01*
D74*
X213900000Y-94887500D02*
X213500000Y-94487500D01*
X212500000Y-87150000D02*
X212500000Y-88225000D01*
X198652500Y-86147500D02*
X198650000Y-86150000D01*
D75*
X241697500Y-66450000D02*
X241700000Y-66447500D01*
D74*
X235600000Y-69900000D02*
X234875000Y-70625000D01*
X201625000Y-92275000D02*
X200075000Y-92275000D01*
X220675000Y-105975000D02*
X220200000Y-105500000D01*
X212500000Y-88225000D02*
X212525000Y-88250000D01*
D76*
X246075000Y-65900000D02*
X244275000Y-65900000D01*
D75*
X221225000Y-64362500D02*
X221225000Y-66475000D01*
D74*
X250350000Y-83072500D02*
X250297500Y-83125000D01*
X219150000Y-66050000D02*
X218900000Y-66050000D01*
X225335000Y-73585000D02*
X225275000Y-73525000D01*
X219948333Y-73951667D02*
X220000000Y-73900000D01*
X201625000Y-95225000D02*
X201675000Y-95275000D01*
D73*
X257850000Y-83137500D02*
X258937500Y-83137500D01*
D74*
X250025000Y-85575000D02*
X250100000Y-85500000D01*
X193427500Y-81075000D02*
X195275000Y-81075000D01*
X219400000Y-94940000D02*
X215752500Y-94940000D01*
X250222500Y-83550000D02*
X250222500Y-85652500D01*
D72*
X218800000Y-64975000D02*
X218800000Y-65700000D01*
D74*
X250100000Y-85775000D02*
X250100000Y-87800000D01*
X214400000Y-77985000D02*
X214400000Y-79500000D01*
D72*
X217500000Y-64650000D02*
X217825000Y-64975000D01*
D74*
X200075000Y-92275000D02*
X200000000Y-92200000D01*
X250350000Y-82175000D02*
X250350000Y-83072500D01*
D73*
X258937500Y-83137500D02*
X259000000Y-83200000D01*
D74*
X234875000Y-70625000D02*
X234875000Y-71045000D01*
D72*
X218800000Y-63875420D02*
X218800000Y-64375000D01*
D76*
X241897500Y-66250000D02*
X241700000Y-66447500D01*
D72*
X218150000Y-62325000D02*
X218150000Y-63225420D01*
D74*
X250297500Y-85302500D02*
X250100000Y-85500000D01*
X219150000Y-66050000D02*
X219125000Y-66075000D01*
X194427500Y-83375000D02*
X194427500Y-85772500D01*
D73*
X211435000Y-68935000D02*
X211500000Y-69000000D01*
D72*
X218800000Y-65700000D02*
X219150000Y-66050000D01*
D74*
X219125000Y-66075000D02*
X219125000Y-67475000D01*
D73*
X210212500Y-68935000D02*
X211435000Y-68935000D01*
D72*
X218150000Y-63225420D02*
X218800000Y-63875420D01*
D74*
X198652500Y-83023250D02*
X198652500Y-86147500D01*
X213500000Y-94487500D02*
X213500000Y-94112500D01*
X250222500Y-85652500D02*
X250100000Y-85775000D01*
D72*
X217500000Y-64375000D02*
X217500000Y-64650000D01*
D74*
X218462500Y-73951667D02*
X219948333Y-73951667D01*
D75*
X223525000Y-64362500D02*
X221225000Y-64362500D01*
D74*
X214400000Y-75770000D02*
X214350000Y-75720000D01*
X201625000Y-92275000D02*
X201625000Y-95225000D01*
X193425000Y-82372500D02*
X194427500Y-83375000D01*
D76*
X240250000Y-66450000D02*
X241697500Y-66450000D01*
D74*
X224000000Y-73550000D02*
X225250000Y-73550000D01*
D76*
X243925000Y-66250000D02*
X241897500Y-66250000D01*
X244275000Y-65900000D02*
X243925000Y-66250000D01*
D74*
X215700000Y-94887500D02*
X213900000Y-94887500D01*
X215752500Y-94940000D02*
X215700000Y-94887500D01*
X220675000Y-107012500D02*
X220675000Y-105975000D01*
X194427500Y-85772500D02*
X191925000Y-88275000D01*
X227675000Y-73585000D02*
X225335000Y-73585000D01*
D72*
X218800000Y-64375000D02*
X218800000Y-64975000D01*
D74*
X225250000Y-73550000D02*
X225275000Y-73525000D01*
X234875000Y-72315000D02*
X234875000Y-71045000D01*
X219125000Y-67475000D02*
X219100000Y-67500000D01*
X193425000Y-81100000D02*
X193425000Y-82372500D01*
X250100000Y-87800000D02*
X250025000Y-87875000D01*
%TO.N,/Esp32-C2-02/SCL*%
D75*
X218325000Y-60650000D02*
X218887500Y-61212500D01*
X226950000Y-65900000D02*
X225150000Y-64100000D01*
X238500000Y-65850000D02*
X238450000Y-65900000D01*
X260000000Y-70400000D02*
X263575000Y-70400000D01*
X219450000Y-61775000D02*
X219450000Y-62325000D01*
X225150000Y-64100000D02*
X225150000Y-63000000D01*
X223525000Y-61675000D02*
X223062500Y-61212500D01*
X223525000Y-62537500D02*
X223525000Y-61675000D01*
X208695000Y-60650000D02*
X206820000Y-62525000D01*
X224687500Y-62537500D02*
X223525000Y-62537500D01*
X218325000Y-60650000D02*
X208695000Y-60650000D01*
X223062500Y-61212500D02*
X218887500Y-61212500D01*
X218887500Y-61212500D02*
X219450000Y-61775000D01*
X225150000Y-63000000D02*
X224687500Y-62537500D01*
X238450000Y-65900000D02*
X226950000Y-65900000D01*
%TO.N,Net-(D3-K)*%
D73*
X196150000Y-97650000D02*
X196150000Y-100804250D01*
X196150000Y-100804250D02*
X196126750Y-100827500D01*
%TO.N,/5volt usb*%
D77*
X193325000Y-111615000D02*
X194326750Y-111615000D01*
X194776750Y-111165000D02*
X194776750Y-109527500D01*
X198768356Y-106518356D02*
X198697760Y-106518356D01*
X195776750Y-110204852D02*
X195776750Y-109527500D01*
X203915000Y-100800000D02*
X203450000Y-100800000D01*
X191125000Y-95600000D02*
X196150000Y-95600000D01*
X198190000Y-108090000D02*
X197214250Y-108090000D01*
X198917893Y-108400000D02*
X198500000Y-108400000D01*
X195276750Y-110476750D02*
X195300000Y-110500000D01*
X195276750Y-109527500D02*
X195276750Y-110476750D01*
X198500000Y-108400000D02*
X198190000Y-108090000D01*
X198697760Y-106518356D02*
X198126116Y-107090000D01*
X195943449Y-110371551D02*
X195776750Y-110204852D01*
X198126116Y-107090000D02*
X197214250Y-107090000D01*
X194326750Y-111615000D02*
X194776750Y-111165000D01*
X198868356Y-106418356D02*
X198768356Y-106518356D01*
X191125000Y-95600000D02*
X189700000Y-95600000D01*
X189700000Y-95600000D02*
X189600000Y-95700000D01*
%TO.N,/+5Volt*%
D78*
X199350000Y-109400000D02*
X200600000Y-108150000D01*
X194375000Y-90575000D02*
X191925000Y-90575000D01*
X200600000Y-108150000D02*
X200600000Y-96800000D01*
D76*
X191925000Y-90575000D02*
X190597500Y-90575000D01*
D78*
X200600000Y-96800000D02*
X194375000Y-90575000D01*
D76*
X190597500Y-90575000D02*
X188925000Y-88902500D01*
X188925000Y-88902500D02*
X187502500Y-88902500D01*
X186500000Y-87900000D02*
X186500000Y-90300000D01*
X187502500Y-88902500D02*
X186500000Y-87900000D01*
D78*
X197350000Y-109400000D02*
X199350000Y-109400000D01*
%TO.N,GND*%
D73*
X208172500Y-107867500D02*
X208530000Y-107510000D01*
D72*
X188800000Y-100837500D02*
X187575000Y-100837500D01*
X216025000Y-66275000D02*
X216000000Y-66300000D01*
D75*
X219450000Y-64550000D02*
X220200000Y-65300000D01*
D74*
X252927500Y-83550000D02*
X254250000Y-83550000D01*
D72*
X209150000Y-103700000D02*
X210000000Y-104550000D01*
D73*
X206657500Y-111617500D02*
X208250000Y-110025000D01*
X217250000Y-107790000D02*
X216970000Y-107510000D01*
X217250000Y-110025000D02*
X217250000Y-107790000D01*
X215500000Y-105690000D02*
X215500000Y-106860000D01*
D72*
X198787500Y-80325000D02*
X197425000Y-80325000D01*
X213450000Y-72675000D02*
X213450000Y-72998360D01*
D73*
X215650000Y-92000000D02*
X215650000Y-92937500D01*
D74*
X230350000Y-107767156D02*
X230350000Y-108095000D01*
D73*
X212050000Y-95037500D02*
X212050000Y-93587500D01*
X247700000Y-77900000D02*
X247900000Y-78100000D01*
D74*
X237000000Y-111175000D02*
X235425000Y-111175000D01*
D75*
X212737500Y-100437500D02*
X213100000Y-100800000D01*
D73*
X215690000Y-104710000D02*
X215450000Y-104950000D01*
D72*
X252000000Y-85500000D02*
X253400000Y-85500000D01*
D74*
X235425000Y-111175000D02*
X235400000Y-111200000D01*
X240900000Y-87875000D02*
X240900000Y-88475000D01*
X260025000Y-87875000D02*
X260025000Y-86425000D01*
D75*
X215675000Y-89087500D02*
X215675000Y-88025000D01*
D73*
X205949250Y-107867500D02*
X208172500Y-107867500D01*
X216150000Y-107510000D02*
X215550000Y-106910000D01*
D75*
X216725000Y-62325000D02*
X216700000Y-62300000D01*
D74*
X230350000Y-108095000D02*
X229805000Y-108095000D01*
D75*
X227675000Y-74855000D02*
X225845000Y-74855000D01*
D72*
X187575000Y-100837500D02*
X186387500Y-100837500D01*
D76*
X241700000Y-69152500D02*
X241700000Y-70150000D01*
X242702500Y-68150000D02*
X241700000Y-69152500D01*
D74*
X237000000Y-89675000D02*
X235975000Y-89675000D01*
D73*
X211150000Y-96650000D02*
X212050000Y-95750000D01*
X212500000Y-93137500D02*
X212050000Y-93587500D01*
D75*
X225300000Y-75450000D02*
X225275000Y-75425000D01*
D73*
X198513820Y-107566180D02*
X198490000Y-107590000D01*
D72*
X217025000Y-66275000D02*
X216025000Y-66275000D01*
X212500000Y-77985000D02*
X211315000Y-77985000D01*
D73*
X208530000Y-107510000D02*
X209350000Y-107510000D01*
D74*
X232900000Y-108095000D02*
X232900000Y-107767156D01*
D75*
X215675000Y-88025000D02*
X215700000Y-88000000D01*
D72*
X185175000Y-100837500D02*
X186387500Y-100837500D01*
D73*
X209350000Y-107510000D02*
X209950000Y-106910000D01*
D75*
X217500000Y-62325000D02*
X216725000Y-62325000D01*
D74*
X223075000Y-106000000D02*
X223075000Y-104775000D01*
D73*
X221887500Y-89812500D02*
X221900000Y-89800000D01*
X197214250Y-107590000D02*
X195276750Y-107590000D01*
X209880000Y-85450000D02*
X211150000Y-85450000D01*
X209950000Y-105740000D02*
X210000000Y-105690000D01*
X216595000Y-104710000D02*
X215690000Y-104710000D01*
D74*
X223075000Y-104775000D02*
X223000000Y-104700000D01*
D73*
X246075000Y-77900000D02*
X247700000Y-77900000D01*
D74*
X230642156Y-107475000D02*
X230350000Y-107767156D01*
D73*
X212050000Y-95750000D02*
X212050000Y-95037500D01*
X194276750Y-106590000D02*
X194276750Y-105652500D01*
X215500000Y-106860000D02*
X215550000Y-106910000D01*
D72*
X183975000Y-100837500D02*
X185175000Y-100837500D01*
X220172500Y-78772500D02*
X220200000Y-78800000D01*
X213450000Y-72998360D02*
X213700000Y-73248360D01*
D75*
X252525000Y-87875000D02*
X252525000Y-88875000D01*
X219450000Y-64375000D02*
X219450000Y-64550000D01*
D72*
X218537500Y-78772500D02*
X220172500Y-78772500D01*
X213450000Y-70616072D02*
X213450000Y-72675000D01*
X213700000Y-73248360D02*
X213700000Y-73800000D01*
D75*
X212737500Y-99662500D02*
X212737500Y-100437500D01*
D74*
X229805000Y-108095000D02*
X229300000Y-108600000D01*
D75*
X229725000Y-106025000D02*
X229700000Y-106000000D01*
D74*
X254250000Y-83550000D02*
X254300000Y-83600000D01*
D72*
X205306250Y-70660000D02*
X202531250Y-73435000D01*
D74*
X262325000Y-111175000D02*
X262300000Y-111200000D01*
D75*
X215750000Y-100525000D02*
X217075000Y-100525000D01*
D74*
X232900000Y-107767156D02*
X232607844Y-107475000D01*
D73*
X195276750Y-107590000D02*
X194276750Y-106590000D01*
D74*
X264300000Y-111175000D02*
X262325000Y-111175000D01*
D75*
X218150000Y-63900000D02*
X218150000Y-64375000D01*
D72*
X215327500Y-70200000D02*
X213866072Y-70200000D01*
D75*
X255785000Y-71000000D02*
X255785000Y-72100000D01*
D73*
X215650000Y-92937500D02*
X215700000Y-92987500D01*
X212500000Y-92137500D02*
X212500000Y-93137500D01*
D74*
X222000000Y-107800000D02*
X222320000Y-108120000D01*
D75*
X217500000Y-63250000D02*
X218150000Y-63900000D01*
D74*
X222800000Y-107750000D02*
X222800000Y-108120000D01*
D73*
X216970000Y-107510000D02*
X216150000Y-107510000D01*
D74*
X260025000Y-86425000D02*
X260000000Y-86400000D01*
D75*
X252525000Y-88875000D02*
X251800000Y-89600000D01*
D73*
X211150000Y-85450000D02*
X211200000Y-85500000D01*
D74*
X235975000Y-89675000D02*
X235300000Y-89000000D01*
X232607844Y-107475000D02*
X230642156Y-107475000D01*
X223150000Y-107400000D02*
X222800000Y-107750000D01*
D72*
X217250000Y-66050000D02*
X217025000Y-66275000D01*
D74*
X261825000Y-89675000D02*
X260025000Y-87875000D01*
D72*
X213866072Y-70200000D02*
X213450000Y-70616072D01*
D74*
X222320000Y-108120000D02*
X222800000Y-108120000D01*
X262100000Y-89675000D02*
X261825000Y-89675000D01*
D72*
X210000000Y-104550000D02*
X210000000Y-105690000D01*
D74*
X237375000Y-89300000D02*
X237000000Y-89675000D01*
X240900000Y-87875000D02*
X240900000Y-86500000D01*
D73*
X219150000Y-92200000D02*
X219115000Y-92235000D01*
D75*
X230725000Y-106025000D02*
X229725000Y-106025000D01*
X217075000Y-100525000D02*
X217100000Y-100500000D01*
D73*
X218087500Y-92235000D02*
X218075000Y-92222500D01*
D72*
X211315000Y-77985000D02*
X211300000Y-78000000D01*
D74*
X240900000Y-88475000D02*
X240075000Y-89300000D01*
D72*
X198575000Y-100837500D02*
X198575000Y-99425000D01*
D73*
X205949250Y-111617500D02*
X206657500Y-111617500D01*
D75*
X217500000Y-62325000D02*
X217500000Y-63250000D01*
D73*
X220362500Y-89812500D02*
X221887500Y-89812500D01*
D75*
X225845000Y-74855000D02*
X225275000Y-75425000D01*
D73*
X209950000Y-106910000D02*
X209950000Y-105740000D01*
X198530935Y-107566180D02*
X198513820Y-107566180D01*
X215450000Y-104950000D02*
X215450000Y-105640000D01*
D72*
X215376250Y-70248750D02*
X215327500Y-70200000D01*
D74*
X222800000Y-106275000D02*
X223075000Y-106000000D01*
X225350000Y-107700000D02*
X225350000Y-108120000D01*
D72*
X216637500Y-71510000D02*
X215376250Y-70248750D01*
D75*
X197275000Y-111615000D02*
X196226750Y-111615000D01*
D76*
X243925000Y-68150000D02*
X242702500Y-68150000D01*
D73*
X219115000Y-92235000D02*
X218087500Y-92235000D01*
D74*
X225050000Y-107400000D02*
X225350000Y-107700000D01*
D75*
X245025000Y-87875000D02*
X245025000Y-86675000D01*
D72*
X198575000Y-99425000D02*
X198600000Y-99400000D01*
D73*
X198490000Y-107590000D02*
X197214250Y-107590000D01*
D72*
X206075000Y-70660000D02*
X205306250Y-70660000D01*
D75*
X245025000Y-86675000D02*
X245100000Y-86600000D01*
D74*
X223150000Y-107400000D02*
X225050000Y-107400000D01*
X222000000Y-107350000D02*
X222000000Y-107800000D01*
D73*
X208250000Y-107790000D02*
X208530000Y-107510000D01*
D75*
X225300000Y-76550000D02*
X225300000Y-75450000D01*
D72*
X197425000Y-80325000D02*
X197400000Y-80300000D01*
D74*
X240075000Y-89300000D02*
X237375000Y-89300000D01*
%TO.N,Net-(U1-THERM)*%
D72*
X198575000Y-102662500D02*
X198575000Y-105825000D01*
X197810000Y-106590000D02*
X197214250Y-106590000D01*
X198575000Y-105825000D02*
X197810000Y-106590000D01*
%TO.N,/Charging*%
D73*
X196126750Y-102652500D02*
X196126750Y-102965000D01*
X196126750Y-102652500D02*
X196276750Y-102802500D01*
X196276750Y-102802500D02*
X196276750Y-105652500D01*
%TO.N,/Charging power good*%
D72*
X193987250Y-103038000D02*
X194030052Y-103038000D01*
X194030052Y-103038000D02*
X195776750Y-104784698D01*
X193601750Y-102652500D02*
X193987250Y-103038000D01*
X195776750Y-104784698D02*
X195776750Y-105652500D01*
%TO.N,/charged*%
X191941250Y-103492000D02*
X193842000Y-103492000D01*
X195276750Y-104926750D02*
X195276750Y-105652500D01*
D73*
X191101750Y-102677500D02*
X190551750Y-102677500D01*
D72*
X193842000Y-103492000D02*
X195276750Y-104926750D01*
X191101750Y-102652500D02*
X191941250Y-103492000D01*
%TO.N,Net-(U1-~{TE})*%
X194776750Y-105652500D02*
X194776750Y-105187432D01*
X193542685Y-103953367D02*
X190090867Y-103953367D01*
X194776750Y-105187432D02*
X193542685Y-103953367D01*
X190090867Y-103953367D02*
X188800000Y-102662500D01*
%TO.N,Net-(U1-PROG3)*%
X186387500Y-102662500D02*
X187575000Y-103850000D01*
X192585448Y-107090000D02*
X193339250Y-107090000D01*
X189345448Y-103850000D02*
X192585448Y-107090000D01*
X187575000Y-103850000D02*
X189345448Y-103850000D01*
X186387500Y-102662500D02*
X186075000Y-102662500D01*
%TO.N,Net-(U1-PROG1)*%
X188915750Y-104350000D02*
X185662500Y-104350000D01*
X192155750Y-107590000D02*
X188915750Y-104350000D01*
X185662500Y-104350000D02*
X183975000Y-102662500D01*
X193339250Y-107590000D02*
X192155750Y-107590000D01*
%TO.N,/Vbat*%
D76*
X192600000Y-110050000D02*
X193150000Y-109500000D01*
D79*
X185000000Y-110050000D02*
X185015000Y-110035000D01*
D76*
X185000000Y-110050000D02*
X192600000Y-110050000D01*
D79*
X193150000Y-109500000D02*
X193150000Y-109450000D01*
%TO.N,/Esp32-C2-02/EN*%
D75*
X225350000Y-109280000D02*
X225350000Y-109800000D01*
X256500000Y-92253869D02*
X256500000Y-80402000D01*
X225350000Y-109800000D02*
X225100000Y-110050000D01*
X256500000Y-80402000D02*
X256502000Y-80400000D01*
X253926869Y-94827000D02*
X256500000Y-92253869D01*
D72*
X252150000Y-67600000D02*
X251450000Y-66900000D01*
D75*
X228150000Y-107650000D02*
X228150000Y-110100000D01*
D72*
X246575000Y-66900000D02*
X246075000Y-67400000D01*
D75*
X233000000Y-111000000D02*
X239050000Y-104950000D01*
X239050000Y-96253870D02*
X240476870Y-94827000D01*
X223150000Y-110050000D02*
X222800000Y-109700000D01*
X224975000Y-106000000D02*
X226500000Y-106000000D01*
X222800000Y-109700000D02*
X222800000Y-109280000D01*
D72*
X251450000Y-66900000D02*
X246575000Y-66900000D01*
X224975000Y-104287500D02*
X224025000Y-103337500D01*
D75*
X222357500Y-108837500D02*
X222800000Y-109280000D01*
X225350000Y-109280000D02*
X225975000Y-108655000D01*
D72*
X252150000Y-68250000D02*
X252150000Y-67600000D01*
X224975000Y-106000000D02*
X224975000Y-104287500D01*
D75*
X239050000Y-104950000D02*
X239050000Y-96253870D01*
D72*
X250800000Y-69600000D02*
X252150000Y-68250000D01*
X250800000Y-70275000D02*
X250800000Y-69600000D01*
D75*
X228150000Y-110100000D02*
X229050000Y-111000000D01*
X220675000Y-108837500D02*
X222357500Y-108837500D01*
X240476870Y-94827000D02*
X253926869Y-94827000D01*
X225100000Y-110050000D02*
X223150000Y-110050000D01*
X225975000Y-108655000D02*
X225975000Y-107000000D01*
X226500000Y-106000000D02*
X228150000Y-107650000D01*
X229050000Y-111000000D02*
X233000000Y-111000000D01*
X225975000Y-107000000D02*
X224975000Y-106000000D01*
%TO.N,Net-(U7-IN+)*%
D73*
X216637500Y-73951667D02*
X214501667Y-73951667D01*
X218462500Y-72126667D02*
X218462500Y-71510000D01*
X216637500Y-73951667D02*
X218462500Y-72126667D01*
D72*
X214375000Y-71485000D02*
X216637500Y-73747500D01*
D73*
X214501667Y-73951667D02*
X214350000Y-73800000D01*
D72*
X216637500Y-73747500D02*
X216637500Y-73951667D01*
X214375000Y-73775000D02*
X214350000Y-73800000D01*
%TO.N,Net-(C24-Pad2)*%
X211473000Y-72487000D02*
X212475000Y-71485000D01*
X209414500Y-72487000D02*
X211473000Y-72487000D01*
X208387500Y-71460000D02*
X208360500Y-71487000D01*
X208387500Y-71460000D02*
X209414500Y-72487000D01*
X206379250Y-71487000D02*
X202531250Y-75335000D01*
X208360500Y-71487000D02*
X206379250Y-71487000D01*
%TO.N,VBUS_A*%
X214000000Y-104775000D02*
X214000000Y-105690000D01*
D73*
X218512500Y-87312500D02*
X218512500Y-89787500D01*
X218487500Y-89812500D02*
X217312500Y-90987500D01*
D72*
X212262499Y-100800000D02*
X210700000Y-100800000D01*
D73*
X210100000Y-103500000D02*
X211500000Y-104900000D01*
X214675000Y-91987500D02*
X215675000Y-90987500D01*
D72*
X212737500Y-101937500D02*
X212737500Y-101275001D01*
D73*
X218512500Y-89787500D02*
X218537500Y-89812500D01*
X213500000Y-93587500D02*
X214162500Y-93587500D01*
X217312500Y-90987500D02*
X215675000Y-90987500D01*
D72*
X215750000Y-103025000D02*
X215750000Y-102425000D01*
X212737500Y-101275001D02*
X212262499Y-100800000D01*
D73*
X214675000Y-93075000D02*
X214675000Y-91987500D01*
D75*
X213950000Y-106910000D02*
X214000000Y-106860000D01*
D73*
X218537500Y-89812500D02*
X218487500Y-89812500D01*
X214162500Y-93587500D02*
X214675000Y-93075000D01*
D72*
X214000000Y-104775000D02*
X215750000Y-103025000D01*
D75*
X214000000Y-106860000D02*
X214000000Y-105690000D01*
D73*
X211500000Y-104900000D02*
X211500000Y-105690000D01*
%TO.N,Net-(D6-K)*%
X203725000Y-95275000D02*
X205962500Y-95275000D01*
X205962500Y-95275000D02*
X206012500Y-95325000D01*
%TO.N,Net-(U4-~{TXT}{slash}GPIO.2)*%
X209762500Y-95325000D02*
X210600000Y-94487500D01*
X207837500Y-95325000D02*
X209762500Y-95325000D01*
%TO.N,Net-(D2-K)*%
X191125000Y-97650000D02*
X191125000Y-100804250D01*
X191125000Y-100804250D02*
X191101750Y-100827500D01*
%TO.N,/Esp32-C2-02/USB D-*%
X213687500Y-99662500D02*
X213687500Y-98668749D01*
X212962500Y-95485218D02*
X212950000Y-95472718D01*
X212950001Y-95037501D02*
X212950000Y-95037500D01*
X213687500Y-98668749D02*
X212962500Y-97943749D01*
X212962500Y-97943749D02*
X212962500Y-95485218D01*
X212950000Y-95472718D02*
X212950000Y-95037500D01*
%TO.N,/Esp32-C2-02/USB D+*%
X212512500Y-95485218D02*
X212515000Y-95482718D01*
X212515000Y-95482718D02*
X212515000Y-95052500D01*
X212515000Y-95052500D02*
X212500000Y-95037500D01*
X211787500Y-99662500D02*
X211787500Y-98668749D01*
X212499999Y-95037501D02*
X212500000Y-95037500D01*
X212512500Y-97943749D02*
X212512500Y-95485218D01*
X211787500Y-98668749D02*
X212512500Y-97943749D01*
%TO.N,/USB-DP*%
X211865642Y-103256239D02*
X211865642Y-102015642D01*
X212500000Y-105690000D02*
X212512500Y-105677500D01*
X211787500Y-102300000D02*
X211787500Y-101937500D01*
X211865642Y-102015642D02*
X211787500Y-101937500D01*
X212512500Y-105677500D02*
X212512500Y-103025000D01*
X212512500Y-103025000D02*
X211787500Y-102300000D01*
%TO.N,/USB-DN*%
X213800000Y-103500000D02*
X213800000Y-102050000D01*
X213000000Y-105690000D02*
X212962500Y-105652500D01*
X213687500Y-102300000D02*
X213687500Y-101937500D01*
X213800000Y-102050000D02*
X213687500Y-101937500D01*
X212962500Y-105652500D02*
X212962500Y-103025000D01*
X212962500Y-103025000D02*
X213687500Y-102300000D01*
%TO.N,/Esp32-C2-02/CS*%
D75*
X261875000Y-79600000D02*
X246300000Y-79600000D01*
X227675000Y-70350000D02*
X229550000Y-68475000D01*
X263575000Y-77900000D02*
X261875000Y-79600000D01*
X227675000Y-71045000D02*
X227675000Y-70350000D01*
X233525000Y-68475000D02*
X229550000Y-68475000D01*
X234480025Y-69430025D02*
X233525000Y-68475000D01*
%TO.N,Net-(U2-DO(IO1))*%
D73*
X232387500Y-77450000D02*
X232387500Y-76750000D01*
X227952500Y-72315000D02*
X227675000Y-72315000D01*
X232387500Y-76750000D02*
X227952500Y-72315000D01*
%TO.N,/Esp32-C2-02/MOSI-DI*%
D75*
X244450000Y-76700000D02*
X241825000Y-74075000D01*
X233395000Y-76335000D02*
X233395000Y-88945000D01*
X241825000Y-74075000D02*
X241625000Y-74075000D01*
X233500000Y-89050000D02*
X233525000Y-89050000D01*
X233395000Y-88945000D02*
X233500000Y-89050000D01*
X255025000Y-87875000D02*
X255025000Y-82275000D01*
X253050000Y-80300000D02*
X245850000Y-80300000D01*
X244450000Y-78900000D02*
X244450000Y-76700000D01*
X236125000Y-91650000D02*
X251250000Y-91650000D01*
X255025000Y-82275000D02*
X253050000Y-80300000D01*
X233525000Y-89050000D02*
X236125000Y-91650000D01*
X234875000Y-74855000D02*
X233395000Y-76335000D01*
X251250000Y-91650000D02*
X255025000Y-87875000D01*
X245850000Y-80300000D02*
X244450000Y-78900000D01*
%TO.N,/Esp32-C2-02/SCLK*%
X239675000Y-73525000D02*
X239675000Y-74600000D01*
X239675000Y-73525000D02*
X238600000Y-73525000D01*
X241625000Y-71575000D02*
X239675000Y-73525000D01*
X238540000Y-73585000D02*
X238600000Y-73525000D01*
X241637500Y-71575000D02*
X241625000Y-71575000D01*
X234875000Y-73585000D02*
X238540000Y-73585000D01*
X239675000Y-74600000D02*
X242950000Y-77875000D01*
X247525000Y-84175000D02*
X242950000Y-79600000D01*
X247525000Y-87875000D02*
X247525000Y-84175000D01*
X242950000Y-79600000D02*
X242950000Y-77875000D01*
%TO.N,/Esp32-C2-02/BOOT*%
D72*
X256000000Y-81300000D02*
X255300000Y-80600000D01*
D75*
X232900000Y-109255000D02*
X233700000Y-108455000D01*
X230350000Y-109255000D02*
X230350000Y-109600000D01*
X230350000Y-109600000D02*
X230800000Y-110050000D01*
X233700000Y-106850000D02*
X233350000Y-106500000D01*
D72*
X240700000Y-94000000D02*
X252550000Y-94000000D01*
D75*
X232500000Y-110050000D02*
X232900000Y-109650000D01*
X230800000Y-110050000D02*
X232500000Y-110050000D01*
D72*
X256000000Y-90550000D02*
X256000000Y-81300000D01*
D75*
X233100000Y-106500000D02*
X232625000Y-106025000D01*
X233350000Y-106500000D02*
X233100000Y-106500000D01*
D72*
X238500000Y-96200000D02*
X240700000Y-94000000D01*
X232526750Y-105926750D02*
X232625000Y-106025000D01*
X232526750Y-103677500D02*
X232526750Y-105926750D01*
X232526750Y-103677500D02*
X238500000Y-97704250D01*
X252550000Y-94000000D02*
X256000000Y-90550000D01*
X238500000Y-97704250D02*
X238500000Y-96200000D01*
D75*
X233700000Y-108455000D02*
X233700000Y-106850000D01*
X232900000Y-109650000D02*
X232900000Y-109255000D01*
D72*
X248500000Y-76400000D02*
X246075000Y-76400000D01*
%TO.N,/Esp32-C2-02/PHOTO-C*%
X238400000Y-68700000D02*
X239300000Y-68700000D01*
X206887500Y-82200000D02*
X207914500Y-81173000D01*
X256400000Y-68700000D02*
X257700000Y-67400000D01*
X227950000Y-67400000D02*
X237100000Y-67400000D01*
X223073000Y-72277000D02*
X227950000Y-67400000D01*
X206370000Y-84900000D02*
X206370000Y-82717500D01*
X207914500Y-81173000D02*
X219177000Y-81173000D01*
X219177000Y-81173000D02*
X223073000Y-77277000D01*
X257700000Y-67400000D02*
X263575000Y-67400000D01*
X223073000Y-77277000D02*
X223073000Y-72277000D01*
X237100000Y-67400000D02*
X238400000Y-68700000D01*
X206370000Y-82717500D02*
X206887500Y-82200000D01*
%TO.N,Net-(U3-IO7)*%
D73*
X243450000Y-74075000D02*
X245400000Y-74075000D01*
X245400000Y-74075000D02*
X246075000Y-73400000D01*
%TO.N,Net-(U7-IN-)*%
X207500000Y-73710000D02*
X209912500Y-73710000D01*
D75*
X215019167Y-74775000D02*
X213440832Y-74775000D01*
D73*
X212997500Y-73747500D02*
X213050000Y-73800000D01*
X209950000Y-73747500D02*
X212997500Y-73747500D01*
D75*
X213440832Y-74775000D02*
X213050000Y-74384168D01*
X216637500Y-76393333D02*
X215019167Y-74775000D01*
X213050000Y-74384168D02*
X213050000Y-73800000D01*
D73*
X209912500Y-73710000D02*
X209950000Y-73747500D01*
%TO.N,/Esp32-C2-02/MIC-OUT*%
D77*
X209912500Y-75610000D02*
X209950000Y-75572500D01*
X245875000Y-70200000D02*
X246075000Y-70400000D01*
X249250000Y-70400000D02*
X246075000Y-70400000D01*
X248000000Y-67427000D02*
X248102000Y-67325000D01*
X248102000Y-67325000D02*
X250375000Y-67325000D01*
X213050000Y-76250000D02*
X213600000Y-76800000D01*
X209950000Y-75572500D02*
X212902500Y-75572500D01*
X213050000Y-75720000D02*
X213050000Y-76250000D01*
X250375000Y-67325000D02*
X251050000Y-68000000D01*
X251050000Y-68600000D02*
X249250000Y-70400000D01*
X244300000Y-70200000D02*
X245875000Y-70200000D01*
X212902500Y-75572500D02*
X213050000Y-75720000D01*
X251050000Y-68000000D02*
X251050000Y-68600000D01*
X207500000Y-75610000D02*
X209912500Y-75610000D01*
%TO.N,Net-(D1-K)*%
D73*
X193675000Y-97650000D02*
X193675000Y-100754250D01*
X193675000Y-100754250D02*
X193601750Y-100827500D01*
%TO.N,Net-(Q2-B)*%
D72*
X225454250Y-101462500D02*
X226876750Y-100040000D01*
X224975000Y-101462500D02*
X225454250Y-101462500D01*
%TO.N,/Esp32-C2-02/RTS*%
D77*
X209050000Y-91400000D02*
X209800000Y-91400000D01*
D72*
X217350000Y-99550000D02*
X219262500Y-101462500D01*
X225398026Y-103365000D02*
X223495526Y-101462500D01*
X226876750Y-103365000D02*
X225398026Y-103365000D01*
D77*
X209800000Y-91400000D02*
X210600000Y-92200000D01*
D72*
X223495526Y-101462500D02*
X223075000Y-101462500D01*
X219262500Y-101462500D02*
X223075000Y-101462500D01*
D77*
X210600000Y-92200000D02*
X210600000Y-92687500D01*
%TO.N,Net-(J1-CC1)*%
D73*
X212000000Y-105690000D02*
X212000000Y-104551471D01*
X208800000Y-102900000D02*
X205949250Y-105750750D01*
X205949250Y-105750750D02*
X205949250Y-106042500D01*
X212000000Y-104551471D02*
X210348529Y-102900000D01*
X210348529Y-102900000D02*
X208800000Y-102900000D01*
%TO.N,Net-(C19-Pad1)*%
D75*
X218462500Y-76393333D02*
X218462500Y-76947500D01*
X218462500Y-76947500D02*
X216637500Y-78772500D01*
%TO.N,/Esp32-C2-02/DTR*%
D72*
X226761750Y-98100000D02*
X217100000Y-98100000D01*
X211500000Y-91150000D02*
X211148000Y-91502000D01*
X229814250Y-100040000D02*
X231576750Y-101802500D01*
X228701750Y-100040000D02*
X226761750Y-98100000D01*
X211148000Y-91502000D02*
X211148000Y-92137500D01*
X228701750Y-100040000D02*
X229814250Y-100040000D01*
%TO.N,Net-(D5-K)*%
D73*
X205965000Y-92275000D02*
X206015000Y-92325000D01*
X203675000Y-92275000D02*
X205965000Y-92275000D01*
%TO.N,Net-(D4-K)*%
D72*
X200702500Y-83023250D02*
X200702500Y-80415000D01*
X200702500Y-80415000D02*
X200612500Y-80325000D01*
%TO.N,Net-(U4-~{RST})*%
D73*
X213500000Y-93137500D02*
X214008580Y-93137500D01*
X214235000Y-90985000D02*
X213325000Y-90075000D01*
X214008580Y-93137500D02*
X214235000Y-92911080D01*
X213325000Y-90075000D02*
X212525000Y-90075000D01*
X214235000Y-92911080D02*
X214235000Y-90985000D01*
%TO.N,Net-(C25-Pad1)*%
D72*
X210212500Y-70760000D02*
X208387500Y-68935000D01*
X210212500Y-71460000D02*
X210212500Y-70760000D01*
X208212500Y-68760000D02*
X208387500Y-68935000D01*
X206075000Y-68760000D02*
X208212500Y-68760000D01*
%TO.N,/Esp32-C2-02/SDA*%
D75*
X234750000Y-66350000D02*
X226700000Y-66350000D01*
X235200000Y-66800000D02*
X234750000Y-66350000D01*
X218800000Y-61775000D02*
X218800000Y-62325000D01*
X248950000Y-68900000D02*
X246075000Y-68900000D01*
X218800000Y-62325000D02*
X218800000Y-62700000D01*
X222037500Y-63350000D02*
X221225000Y-62537500D01*
X224650000Y-63550000D02*
X224450000Y-63350000D01*
X220887500Y-62875000D02*
X221225000Y-62537500D01*
X209360000Y-62525000D02*
X210785000Y-61100000D01*
X226700000Y-66350000D02*
X224650000Y-64300000D01*
X224450000Y-63350000D02*
X222037500Y-63350000D01*
X250000000Y-67850000D02*
X248950000Y-68900000D01*
X210785000Y-61100000D02*
X218125000Y-61100000D01*
X218975000Y-62875000D02*
X220887500Y-62875000D01*
X224650000Y-64300000D02*
X224650000Y-63550000D01*
X218800000Y-62700000D02*
X218975000Y-62875000D01*
X218125000Y-61100000D02*
X218800000Y-61775000D01*
%TO.N,Net-(U3-IO6)*%
D73*
X245750000Y-71575000D02*
X246075000Y-71900000D01*
X243462500Y-71575000D02*
X245750000Y-71575000D01*
%TO.N,/Esp32-C2-02/GPIO8*%
X215700000Y-69100000D02*
X224800000Y-69100000D01*
D72*
X246175000Y-75000000D02*
X246075000Y-74900000D01*
D73*
X192400000Y-62525000D02*
X195875000Y-66000000D01*
X195875000Y-66000000D02*
X212600000Y-66000000D01*
X212600000Y-66000000D02*
X215700000Y-69100000D01*
X244400000Y-75600000D02*
X245375000Y-75600000D01*
X245375000Y-75600000D02*
X246075000Y-74900000D01*
%TO.N,/Esp32-C2-02/TX-RX*%
X261450000Y-76400000D02*
X263575000Y-76400000D01*
X209531250Y-93518750D02*
X209600000Y-93587500D01*
X260700000Y-77100000D02*
X260750000Y-77100000D01*
X209600000Y-93587500D02*
X210600000Y-93587500D01*
X260750000Y-77100000D02*
X261450000Y-76400000D01*
X209531250Y-93487500D02*
X209531250Y-93518750D01*
%TO.N,/Esp32-C2-02/RX-TX*%
X209577000Y-92623080D02*
X209577000Y-92600000D01*
X262200000Y-74900000D02*
X263575000Y-74900000D01*
X210600000Y-93137500D02*
X210091420Y-93137500D01*
X261300000Y-75800000D02*
X262200000Y-74900000D01*
X210091420Y-93137500D02*
X209577000Y-92623080D01*
%TO.N,/Esp32-C2-02/GPIO18*%
X197715000Y-65300000D02*
X212750000Y-65300000D01*
X225798018Y-68550000D02*
X225806860Y-68541158D01*
X194940000Y-62525000D02*
X197715000Y-65300000D01*
X212750000Y-65300000D02*
X216000000Y-68550000D01*
X216000000Y-68550000D02*
X225798018Y-68550000D01*
D72*
X261000000Y-73400000D02*
X263575000Y-73400000D01*
%TO.N,/Esp32-C2-02/GPIO19*%
X261200000Y-71900000D02*
X263575000Y-71900000D01*
D73*
X225500000Y-68100000D02*
X225700000Y-67900000D01*
X197480000Y-62525000D02*
X199705000Y-64750000D01*
X199705000Y-64750000D02*
X213000000Y-64750000D01*
X216350000Y-68100000D02*
X225500000Y-68100000D01*
X213000000Y-64750000D02*
X216350000Y-68100000D01*
%TO.N,/Esp32-C2-02/MISO-DO*%
D75*
X257825000Y-68900000D02*
X263575000Y-68900000D01*
X257275000Y-69450000D02*
X257825000Y-68900000D01*
X239525000Y-77450000D02*
X239575000Y-77500000D01*
X253700000Y-69450000D02*
X257275000Y-69450000D01*
X239575000Y-77500000D02*
X240875000Y-77500000D01*
X249225000Y-73925000D02*
X253700000Y-69450000D01*
X249225000Y-77500000D02*
X249225000Y-73925000D01*
X234212500Y-77450000D02*
X234212500Y-77962500D01*
X234212500Y-77450000D02*
X239525000Y-77450000D01*
%TO.N,/Esp32-C2-02/CS-SD*%
X263575000Y-65900000D02*
X264350000Y-65900000D01*
X264350000Y-65900000D02*
X265350000Y-66900000D01*
X262287500Y-84962500D02*
X257850000Y-84962500D01*
X257850000Y-84962500D02*
X257850000Y-87550000D01*
X257850000Y-87550000D02*
X257525000Y-87875000D01*
X265350000Y-66900000D02*
X265350000Y-81900000D01*
X265350000Y-81900000D02*
X262287500Y-84962500D01*
%TO.N,Net-(J1-CC2)*%
D72*
X212437000Y-108723000D02*
X213550000Y-107610000D01*
X207018750Y-108723000D02*
X212437000Y-108723000D01*
X205949250Y-109792500D02*
X207018750Y-108723000D01*
%TO.N,Net-(Q3-B)*%
X229014250Y-103677500D02*
X228701750Y-103365000D01*
X230626750Y-103677500D02*
X229014250Y-103677500D01*
%TO.N,Net-(U4-~{RXT}{slash}GPIO.3)*%
D73*
X207840000Y-93390000D02*
X208487500Y-94037500D01*
X207840000Y-92325000D02*
X207840000Y-93390000D01*
X208487500Y-94037500D02*
X210600000Y-94037500D01*
%TD*%
%TA.AperFunction,Conductor*%
%TO.N,GND*%
G36*
X194000419Y-105019685D02*
G01*
X194021061Y-105036319D01*
X194312931Y-105328189D01*
X194346416Y-105389512D01*
X194349250Y-105415870D01*
X194349250Y-105708781D01*
X194350189Y-105715915D01*
X194351250Y-105732098D01*
X194351250Y-105876000D01*
X194331567Y-105943039D01*
X194278763Y-105988794D01*
X194227251Y-106000000D01*
X193500000Y-106000000D01*
X193500000Y-106538500D01*
X193480315Y-106605539D01*
X193427511Y-106651294D01*
X193376000Y-106662500D01*
X192813886Y-106662500D01*
X192746847Y-106642815D01*
X192726205Y-106626181D01*
X192536319Y-106436295D01*
X192502834Y-106374972D01*
X192500000Y-106348614D01*
X192500000Y-105124000D01*
X192519685Y-105056961D01*
X192572489Y-105011206D01*
X192624000Y-105000000D01*
X193933380Y-105000000D01*
X194000419Y-105019685D01*
G37*
%TD.AperFunction*%
%TD*%
%TA.AperFunction,Conductor*%
%TO.N,/5volt usb*%
G36*
X204643106Y-98605023D02*
G01*
X204658104Y-98609427D01*
X204673094Y-98619057D01*
X204690175Y-98624067D01*
X204716855Y-98647172D01*
X204718042Y-98648541D01*
X204745518Y-98703402D01*
X204747163Y-98710960D01*
X204750000Y-98737331D01*
X204750000Y-102958170D01*
X204744975Y-102993114D01*
X204740570Y-103008112D01*
X204730939Y-103023101D01*
X204725932Y-103040175D01*
X204702827Y-103066855D01*
X204701458Y-103068042D01*
X204646597Y-103095518D01*
X204639039Y-103097163D01*
X204612668Y-103100000D01*
X201891830Y-103100000D01*
X201856889Y-103094975D01*
X201841890Y-103090570D01*
X201826902Y-103080940D01*
X201809824Y-103075932D01*
X201783144Y-103052827D01*
X201781957Y-103051458D01*
X201754477Y-102996583D01*
X201752832Y-102989021D01*
X201750000Y-102962668D01*
X201750000Y-98741829D01*
X201755023Y-98706893D01*
X201759427Y-98691895D01*
X201769057Y-98676904D01*
X201774067Y-98659824D01*
X201797172Y-98633144D01*
X201798541Y-98631957D01*
X201853420Y-98604477D01*
X201860979Y-98602833D01*
X201887332Y-98600000D01*
X204608170Y-98600000D01*
X204643106Y-98605023D01*
G37*
%TD.AperFunction*%
%TD*%
%TA.AperFunction,Conductor*%
%TO.N,/Vbat*%
G36*
X193393106Y-108022523D02*
G01*
X193408104Y-108026927D01*
X193423094Y-108036557D01*
X193440175Y-108041567D01*
X193466855Y-108064672D01*
X193468042Y-108066041D01*
X193495518Y-108120902D01*
X193497163Y-108128460D01*
X193500000Y-108154831D01*
X193500000Y-109000000D01*
X193692586Y-109000000D01*
X193727521Y-109005023D01*
X193752764Y-109012435D01*
X193805510Y-109043731D01*
X193853985Y-109092206D01*
X193956759Y-109137585D01*
X193981885Y-109140500D01*
X194209424Y-109140499D01*
X194244358Y-109145522D01*
X194259353Y-109149925D01*
X194318105Y-109187670D01*
X194319292Y-109189039D01*
X194346769Y-109243903D01*
X194348414Y-109251462D01*
X194351250Y-109277830D01*
X194351250Y-109858170D01*
X194351249Y-109858176D01*
X194351250Y-109858179D01*
X194346225Y-109893114D01*
X194341820Y-109908112D01*
X194304077Y-109966855D01*
X194304042Y-109966885D01*
X194304041Y-109966887D01*
X194304039Y-109966887D01*
X194302708Y-109968042D01*
X194247847Y-109995518D01*
X194240289Y-109997163D01*
X194213918Y-110000000D01*
X192641830Y-110000000D01*
X192641825Y-109999999D01*
X192641823Y-110000000D01*
X192606889Y-109994975D01*
X192591890Y-109990570D01*
X192533144Y-109952827D01*
X192533115Y-109952793D01*
X192533114Y-109952793D01*
X192533113Y-109952791D01*
X192531957Y-109951458D01*
X192504477Y-109896583D01*
X192502832Y-109889021D01*
X192500000Y-109862668D01*
X192500000Y-108159329D01*
X192505023Y-108124393D01*
X192509427Y-108109395D01*
X192547172Y-108050644D01*
X192547200Y-108050619D01*
X192547199Y-108050619D01*
X192548541Y-108049456D01*
X192603420Y-108021977D01*
X192610979Y-108020333D01*
X192637332Y-108017500D01*
X193358170Y-108017500D01*
X193393106Y-108022523D01*
G37*
%TD.AperFunction*%
%TD*%
%TA.AperFunction,Conductor*%
%TO.N,GND*%
G36*
X257943039Y-70019685D02*
G01*
X257988794Y-70072489D01*
X258000000Y-70124000D01*
X258000000Y-73876000D01*
X257980315Y-73943039D01*
X257927511Y-73988794D01*
X257876000Y-74000000D01*
X254124000Y-74000000D01*
X254056961Y-73980315D01*
X254011206Y-73927511D01*
X254000000Y-73876000D01*
X254000000Y-70224500D01*
X254019685Y-70157461D01*
X254072489Y-70111706D01*
X254124000Y-70100500D01*
X257339071Y-70100500D01*
X257423615Y-70083682D01*
X257464744Y-70075501D01*
X257583127Y-70026465D01*
X257591458Y-70020898D01*
X257609504Y-70015247D01*
X257625414Y-70005023D01*
X257656369Y-70000572D01*
X257658133Y-70000020D01*
X257660349Y-70000000D01*
X257876000Y-70000000D01*
X257943039Y-70019685D01*
G37*
%TD.AperFunction*%
%TD*%
%TA.AperFunction,Conductor*%
%TO.N,Net-(U2-DO(IO1))*%
G36*
X227829132Y-72181089D02*
G01*
X228454049Y-72396506D01*
X228460754Y-72402442D01*
X228461738Y-72405425D01*
X228524086Y-72740236D01*
X228522232Y-72748997D01*
X228520857Y-72750651D01*
X228389711Y-72881797D01*
X228381438Y-72885224D01*
X228376282Y-72884027D01*
X227834530Y-72618089D01*
X227828614Y-72611367D01*
X227827993Y-72607994D01*
X227813631Y-72192554D01*
X227816770Y-72184169D01*
X227824920Y-72180458D01*
X227829132Y-72181089D01*
G37*
%TD.AperFunction*%
%TD*%
%TA.AperFunction,Conductor*%
%TO.N,GND*%
G36*
X183516289Y-110604685D02*
G01*
X183562044Y-110657489D01*
X183573250Y-110709000D01*
X183573250Y-113961000D01*
X183553565Y-114028039D01*
X183500761Y-114073794D01*
X183449250Y-114085000D01*
X180697250Y-114085000D01*
X180630211Y-114065315D01*
X180584456Y-114012511D01*
X180573250Y-113961000D01*
X180573250Y-110709000D01*
X180592935Y-110641961D01*
X180645739Y-110596206D01*
X180697250Y-110585000D01*
X183449250Y-110585000D01*
X183516289Y-110604685D01*
G37*
%TD.AperFunction*%
%TD*%
%TA.AperFunction,Conductor*%
%TO.N,/Esp32-C2-02/SDA*%
G36*
X210455049Y-61222689D02*
G01*
X210458407Y-61225033D01*
X210659966Y-61426592D01*
X210663393Y-61434865D01*
X210662676Y-61438897D01*
X210177186Y-62761425D01*
X210171118Y-62768010D01*
X210162866Y-62768607D01*
X209362469Y-62530407D01*
X209355517Y-62524763D01*
X209354592Y-62522530D01*
X209116392Y-61722133D01*
X209117317Y-61713226D01*
X209123571Y-61707814D01*
X210446103Y-61222323D01*
X210455049Y-61222689D01*
G37*
%TD.AperFunction*%
%TD*%
%TA.AperFunction,Conductor*%
%TO.N,/+5Volt*%
G36*
X197143798Y-108515500D02*
G01*
X197158232Y-108515500D01*
X197876000Y-108515500D01*
X197943039Y-108535185D01*
X197988794Y-108587989D01*
X198000000Y-108639500D01*
X198000000Y-109876000D01*
X197980315Y-109943039D01*
X197927511Y-109988794D01*
X197876000Y-110000000D01*
X196401784Y-110000000D01*
X196377835Y-109992967D01*
X196353045Y-109990020D01*
X196341727Y-109982365D01*
X196334745Y-109980315D01*
X196322896Y-109971670D01*
X196318312Y-109967890D01*
X196281464Y-109931042D01*
X196255317Y-109915946D01*
X196247362Y-109909386D01*
X196233312Y-109888656D01*
X196216033Y-109870534D01*
X196213247Y-109859052D01*
X196208162Y-109851549D01*
X196207795Y-109836578D01*
X196202250Y-109813716D01*
X196202250Y-109461493D01*
X196202249Y-109461479D01*
X196202249Y-109264499D01*
X196221934Y-109197460D01*
X196274738Y-109151705D01*
X196326249Y-109140499D01*
X196571606Y-109140499D01*
X196571614Y-109140499D01*
X196571629Y-109140497D01*
X196571632Y-109140497D01*
X196596737Y-109137586D01*
X196596738Y-109137585D01*
X196596741Y-109137585D01*
X196699515Y-109092206D01*
X196755403Y-109036318D01*
X196816727Y-109002834D01*
X196843084Y-109000000D01*
X197000000Y-109000000D01*
X197000000Y-108639499D01*
X197002550Y-108630813D01*
X197001262Y-108621852D01*
X197012240Y-108597811D01*
X197019685Y-108572460D01*
X197026525Y-108566532D01*
X197030287Y-108558296D01*
X197052521Y-108544006D01*
X197072489Y-108526705D01*
X197083003Y-108524417D01*
X197089065Y-108520522D01*
X197123999Y-108515499D01*
X197143790Y-108515499D01*
X197143798Y-108515500D01*
G37*
%TD.AperFunction*%
%TD*%
%TA.AperFunction,Conductor*%
%TO.N,VBUS_A*%
G36*
X209193039Y-98619685D02*
G01*
X209238794Y-98672489D01*
X209250000Y-98724000D01*
X209250000Y-102175500D01*
X209230315Y-102242539D01*
X209177511Y-102288294D01*
X209126000Y-102299500D01*
X208879057Y-102299500D01*
X208720942Y-102299500D01*
X208568215Y-102340423D01*
X208568214Y-102340423D01*
X208568212Y-102340424D01*
X208568209Y-102340425D01*
X208518096Y-102369359D01*
X208518095Y-102369360D01*
X208474689Y-102394420D01*
X208431285Y-102419479D01*
X208431282Y-102419481D01*
X207787083Y-103063681D01*
X207725760Y-103097166D01*
X207699402Y-103100000D01*
X205874000Y-103100000D01*
X205806961Y-103080315D01*
X205761206Y-103027511D01*
X205750000Y-102976000D01*
X205750000Y-98724000D01*
X205769685Y-98656961D01*
X205822489Y-98611206D01*
X205874000Y-98600000D01*
X209126000Y-98600000D01*
X209193039Y-98619685D01*
G37*
%TD.AperFunction*%
%TD*%
%TA.AperFunction,Conductor*%
%TO.N,/Esp32-C2-02/SCL*%
G36*
X207915049Y-61222689D02*
G01*
X207918407Y-61225033D01*
X208119966Y-61426592D01*
X208123393Y-61434865D01*
X208122676Y-61438897D01*
X207637186Y-62761425D01*
X207631118Y-62768010D01*
X207622866Y-62768607D01*
X206822469Y-62530407D01*
X206815517Y-62524763D01*
X206814592Y-62522530D01*
X206576392Y-61722133D01*
X206577317Y-61713226D01*
X206583571Y-61707814D01*
X207906103Y-61222323D01*
X207915049Y-61222689D01*
G37*
%TD.AperFunction*%
%TD*%
%TA.AperFunction,Conductor*%
%TO.N,/Esp32-C2-02/GPIO19*%
G36*
X198291437Y-62282417D02*
G01*
X198296971Y-62289020D01*
X198747623Y-63646623D01*
X198746977Y-63655554D01*
X198744792Y-63658582D01*
X198613582Y-63789792D01*
X198605309Y-63793219D01*
X198601623Y-63792623D01*
X197244020Y-63341971D01*
X197237248Y-63336112D01*
X197236492Y-63327531D01*
X197474592Y-62527467D01*
X197480236Y-62520517D01*
X197482464Y-62519593D01*
X198282531Y-62281492D01*
X198291437Y-62282417D01*
G37*
%TD.AperFunction*%
%TD*%
%TA.AperFunction,Conductor*%
%TO.N,GND*%
G36*
X192443039Y-80519685D02*
G01*
X192488794Y-80572489D01*
X192500000Y-80624000D01*
X192500000Y-86826000D01*
X192480315Y-86893039D01*
X192427511Y-86938794D01*
X192376000Y-86950000D01*
X185624000Y-86950000D01*
X185556961Y-86930315D01*
X185511206Y-86877511D01*
X185500000Y-86826000D01*
X185500000Y-84624000D01*
X185519685Y-84556961D01*
X185572489Y-84511206D01*
X185624000Y-84500000D01*
X189750000Y-84500000D01*
X189750000Y-80624000D01*
X189769685Y-80556961D01*
X189822489Y-80511206D01*
X189874000Y-80500000D01*
X192376000Y-80500000D01*
X192443039Y-80519685D01*
G37*
%TD.AperFunction*%
%TD*%
%TA.AperFunction,Conductor*%
%TO.N,Net-(J1-CC1)*%
G36*
X206467324Y-105102541D02*
G01*
X206600075Y-105235292D01*
X206603461Y-105242581D01*
X206647580Y-105765273D01*
X206644861Y-105773805D01*
X206637579Y-105777839D01*
X205808460Y-105896502D01*
X205799784Y-105894282D01*
X205798529Y-105893193D01*
X205458067Y-105552731D01*
X205454640Y-105544458D01*
X205458067Y-105536185D01*
X205461650Y-105533739D01*
X206454369Y-105100091D01*
X206463321Y-105099921D01*
X206467324Y-105102541D01*
G37*
%TD.AperFunction*%
%TD*%
%TA.AperFunction,Conductor*%
%TO.N,+3.3V*%
G36*
X200443039Y-86019685D02*
G01*
X200488794Y-86072489D01*
X200500000Y-86124000D01*
X200500000Y-90376000D01*
X200480315Y-90443039D01*
X200427511Y-90488794D01*
X200376000Y-90500000D01*
X196624000Y-90500000D01*
X196556961Y-90480315D01*
X196511206Y-90427511D01*
X196500000Y-90376000D01*
X196500000Y-86124000D01*
X196519685Y-86056961D01*
X196572489Y-86011206D01*
X196624000Y-86000000D01*
X200376000Y-86000000D01*
X200443039Y-86019685D01*
G37*
%TD.AperFunction*%
%TD*%
M02*
