%TF.GenerationSoftware,KiCad,Pcbnew,10.0.4*%
%TF.CreationDate,2026-09-09T23:07:52+05:00*%
%TF.ProjectId,ESP32 Project,45535033-3220-4507-926f-6a6563742e6b,rev?*%
%TF.SameCoordinates,Original*%
%TF.FileFunction,Copper,L2,Inr*%
%TF.FilePolarity,Positive*%
%FSLAX46Y46*%
G04 Gerber Fmt 4.6, Leading zero omitted, Abs format (unit mm)*
G04 Created by KiCad (PCBNEW 10.0.4) date 2026-09-09 23:07:52*
%MOMM*%
%LPD*%
G01*
G04 APERTURE LIST*
%TA.AperFunction,ComponentPad*%
%ADD10C,1.208000*%
%TD*%
%TA.AperFunction,ComponentPad*%
%ADD11C,0.400000*%
%TD*%
%TA.AperFunction,ComponentPad*%
%ADD12C,0.650000*%
%TD*%
%TA.AperFunction,ComponentPad*%
%ADD13O,0.950000X1.950000*%
%TD*%
%TA.AperFunction,ComponentPad*%
%ADD14O,1.050000X1.650000*%
%TD*%
%TA.AperFunction,ComponentPad*%
%ADD15O,1.200000X0.850000*%
%TD*%
%TA.AperFunction,ComponentPad*%
%ADD16R,1.700000X1.700000*%
%TD*%
%TA.AperFunction,ComponentPad*%
%ADD17C,1.700000*%
%TD*%
%TA.AperFunction,ViaPad*%
%ADD18C,0.600000*%
%TD*%
%TA.AperFunction,ViaPad*%
%ADD19C,0.500000*%
%TD*%
%TA.AperFunction,ViaPad*%
%ADD20C,0.800000*%
%TD*%
%TA.AperFunction,ViaPad*%
%ADD21C,0.450000*%
%TD*%
%TA.AperFunction,Conductor*%
%ADD22C,0.200000*%
%TD*%
G04 APERTURE END LIST*
D10*
%TO.N,GND*%
%TO.C,MK1*%
X202531250Y-73435000D03*
%TO.N,Net-(C24-Pad2)*%
X202531250Y-75335000D03*
%TD*%
D11*
%TO.N,GND*%
%TO.C,U3*%
X255235000Y-71000000D03*
X256335000Y-71000000D03*
X254685000Y-71550000D03*
X255785000Y-71550000D03*
X256885000Y-71550000D03*
X255235000Y-72100000D03*
X256335000Y-72100000D03*
X254685000Y-72650000D03*
X255785000Y-72650000D03*
X256885000Y-72650000D03*
X255235000Y-73200000D03*
X256335000Y-73200000D03*
%TD*%
D12*
%TO.N,GND*%
%TO.C,J1*%
X215550000Y-106910000D03*
%TO.N,unconnected-(J1-SSTXP2-PadB2)*%
X215150000Y-107610000D03*
%TO.N,unconnected-(J1-SSTXN2-PadB3)*%
X214350000Y-107610000D03*
%TO.N,VBUS_A*%
X213950000Y-106910000D03*
%TO.N,Net-(J1-CC2)*%
X213550000Y-107610000D03*
%TO.N,/USB-DP*%
X213150000Y-106910000D03*
%TO.N,/USB-DN*%
X212350000Y-106910000D03*
%TO.N,unconnected-(J1-SBU2-PadB8)*%
X211950000Y-107610000D03*
%TO.N,VBUS_A*%
X211550000Y-106910000D03*
%TO.N,unconnected-(J1-SSRXN1-PadB10)*%
X211150000Y-107610000D03*
%TO.N,unconnected-(J1-SSRXP1-PadB11)*%
X210350000Y-107610000D03*
%TO.N,GND*%
X209950000Y-106910000D03*
D13*
X208250000Y-110025000D03*
D14*
X208530000Y-107510000D03*
D15*
X208905000Y-104710000D03*
X216595000Y-104710000D03*
D14*
X216970000Y-107510000D03*
D13*
X217250000Y-110025000D03*
%TD*%
D16*
%TO.N,+3.3V*%
%TO.C,J4*%
X211900000Y-62525000D03*
D17*
%TO.N,/Esp32-C2-02/SDA*%
X209360000Y-62525000D03*
%TO.N,/Esp32-C2-02/SCL*%
X206820000Y-62525000D03*
%TO.N,GND*%
X204280000Y-62525000D03*
%TD*%
D16*
%TO.N,GND*%
%TO.C,J5*%
X189860000Y-62525000D03*
D17*
%TO.N,/Esp32-C2-02/GPIO8*%
X192400000Y-62525000D03*
%TO.N,/Esp32-C2-02/GPIO18*%
X194940000Y-62525000D03*
%TO.N,/Esp32-C2-02/GPIO19*%
X197480000Y-62525000D03*
%TO.N,+3.3V*%
X200020000Y-62525000D03*
%TD*%
D18*
%TO.N,+3.3V*%
X199750000Y-87506250D03*
X219100000Y-67500000D03*
X211500000Y-69000000D03*
X214400000Y-79500000D03*
X220000000Y-73900000D03*
X199750000Y-89775000D03*
X210000000Y-82200000D03*
X259000000Y-83200000D03*
D19*
X195300000Y-81100000D03*
X219400000Y-94940000D03*
D18*
X199750000Y-89018750D03*
X220200000Y-105500000D03*
X199750000Y-86750000D03*
D19*
X212500000Y-87150000D03*
D18*
X199750000Y-88262500D03*
X235600000Y-69900000D03*
X200000000Y-92200000D03*
X224000000Y-73550000D03*
X221200000Y-66500000D03*
X250350000Y-82175000D03*
D20*
X240250000Y-66450000D03*
D19*
%TO.N,/Esp32-C2-02/SCL*%
X238500000Y-65850000D03*
X260000000Y-70400000D03*
%TO.N,/5volt usb*%
X198868356Y-106418356D03*
D18*
X193325000Y-111615000D03*
D19*
X202250000Y-99350000D03*
X195300000Y-110500000D03*
X198917893Y-108400000D03*
X202250000Y-102350000D03*
X195943449Y-110371551D03*
X189600000Y-95700000D03*
X202250000Y-100850000D03*
D18*
%TO.N,/+5Volt*%
X186500000Y-90300000D03*
%TO.N,GND*%
X215650000Y-92000000D03*
X186250000Y-84875000D03*
D19*
X235300000Y-89000000D03*
D18*
X220200000Y-78800000D03*
D19*
X219150000Y-92200000D03*
X247900000Y-78100000D03*
D18*
X191250000Y-84875000D03*
D19*
X213100000Y-100800000D03*
X216700000Y-62300000D03*
X220200000Y-65300000D03*
D18*
X187500000Y-84875000D03*
D19*
X254300000Y-83600000D03*
X245100000Y-86600000D03*
X235400000Y-111200000D03*
X216000000Y-66300000D03*
D18*
X211150000Y-96650000D03*
D19*
X193000000Y-105600000D03*
X240900000Y-86500000D03*
X229700000Y-106000000D03*
D18*
X190000000Y-84875000D03*
D19*
X209150000Y-103700000D03*
X241700000Y-70150000D03*
D18*
X222000000Y-107350000D03*
X198530935Y-107566180D03*
X181323250Y-111335000D03*
X188750000Y-84875000D03*
D19*
X251800000Y-89600000D03*
X197275000Y-111615000D03*
X215376250Y-70248750D03*
X229300000Y-108600000D03*
X211200000Y-85500000D03*
X253400000Y-85500000D03*
D18*
X225300000Y-76550000D03*
D19*
X197400000Y-80300000D03*
X221900000Y-89800000D03*
D18*
X190225000Y-83500000D03*
D19*
X213450000Y-72675000D03*
D18*
X181323250Y-113335000D03*
X190225000Y-82212500D03*
X262300000Y-111200000D03*
D19*
X185175000Y-100837500D03*
X223000000Y-104700000D03*
D18*
X217100000Y-100500000D03*
D19*
X215700000Y-88000000D03*
X260000000Y-86400000D03*
D18*
X211300000Y-78000000D03*
D19*
X187575000Y-100837500D03*
D18*
X190225000Y-80925000D03*
X198600000Y-99400000D03*
X181323250Y-112335000D03*
D21*
%TO.N,/Esp32-C2-02/EN*%
X250800000Y-70275000D03*
X256502000Y-80400000D03*
D19*
%TO.N,VBUS_A*%
X208500000Y-101725000D03*
X208500000Y-100800000D03*
X208500000Y-99875000D03*
D18*
X210700000Y-100800000D03*
X210100000Y-103500000D03*
%TO.N,/USB-DP*%
X211865642Y-103256239D03*
%TO.N,/USB-DN*%
X213800000Y-103500000D03*
D19*
%TO.N,/Esp32-C2-02/CS*%
X246300000Y-79600000D03*
D18*
X234480025Y-69430025D03*
D21*
%TO.N,/Esp32-C2-02/BOOT*%
X255300000Y-80600000D03*
X248500000Y-76400000D03*
D18*
%TO.N,/Esp32-C2-02/PHOTO-C*%
X256400000Y-68700000D03*
X239300000Y-68700000D03*
D19*
%TO.N,/Esp32-C2-02/MIC-OUT*%
X213600000Y-76800000D03*
X248000000Y-67427000D03*
X244300000Y-70200000D03*
%TO.N,/Esp32-C2-02/RTS*%
X209050000Y-91400000D03*
X217350000Y-99550000D03*
D21*
%TO.N,/Esp32-C2-02/DTR*%
X211500000Y-91150000D03*
D18*
X217100000Y-98100000D03*
D19*
%TO.N,/Esp32-C2-02/SDA*%
X250000000Y-67850000D03*
X235200000Y-66800000D03*
%TO.N,/Esp32-C2-02/GPIO8*%
X224800000Y-69100000D03*
X244400000Y-75600000D03*
%TO.N,/Esp32-C2-02/TX-RX*%
X209531250Y-93487500D03*
X260700000Y-77100000D03*
D18*
%TO.N,/Esp32-C2-02/RX-TX*%
X261300000Y-75800000D03*
X209577000Y-92600000D03*
%TO.N,/Esp32-C2-02/GPIO18*%
X261000000Y-73400000D03*
D19*
X225806860Y-68541158D03*
%TO.N,/Esp32-C2-02/GPIO19*%
X225700000Y-67900000D03*
D18*
X261200000Y-71900000D03*
D19*
%TO.N,/Esp32-C2-02/MISO-DO*%
X240875000Y-77500000D03*
X249225000Y-77500000D03*
%TD*%
%TO.N,/USB-DP*%
D22*
X213150000Y-104540597D02*
X211865642Y-103256239D01*
X213150000Y-106910000D02*
X213150000Y-104540597D01*
%TD*%
%TA.AperFunction,Conductor*%
%TO.N,GND*%
G36*
X209542704Y-107066254D02*
G01*
X209598638Y-107108125D01*
X209623055Y-107173590D01*
X209613932Y-107229888D01*
X209556225Y-107369206D01*
X209556222Y-107369216D01*
X209524500Y-107528692D01*
X209524500Y-107636000D01*
X209504815Y-107703039D01*
X209452011Y-107748794D01*
X209400500Y-107760000D01*
X208855000Y-107760000D01*
X208855000Y-107260000D01*
X209246446Y-107260000D01*
X209246446Y-107259999D01*
X209411690Y-107094755D01*
X209473013Y-107061270D01*
X209542704Y-107066254D01*
G37*
%TD.AperFunction*%
%TA.AperFunction,Conductor*%
G36*
X216039787Y-107064782D02*
G01*
X216088309Y-107094755D01*
X216253554Y-107260000D01*
X216645000Y-107260000D01*
X216645000Y-107760000D01*
X216099500Y-107760000D01*
X216032461Y-107740315D01*
X215986706Y-107687511D01*
X215975500Y-107636000D01*
X215975500Y-107528692D01*
X215943777Y-107369216D01*
X215943776Y-107369215D01*
X215943776Y-107369211D01*
X215886066Y-107229888D01*
X215878598Y-107160419D01*
X215909873Y-107097940D01*
X215969962Y-107062288D01*
X216039787Y-107064782D01*
G37*
%TD.AperFunction*%
%TA.AperFunction,Conductor*%
G36*
X223815198Y-60500813D02*
G01*
X224014741Y-60515042D01*
X224032198Y-60517544D01*
X224127787Y-60538274D01*
X224223374Y-60559004D01*
X224240302Y-60563959D01*
X224370244Y-60612265D01*
X224423667Y-60632125D01*
X224439713Y-60639428D01*
X224611550Y-60732923D01*
X224626397Y-60742428D01*
X224706605Y-60802230D01*
X224783232Y-60859361D01*
X224796587Y-60870883D01*
X224865913Y-60939882D01*
X224935243Y-61008885D01*
X224946823Y-61022180D01*
X225064489Y-61178451D01*
X225074070Y-61193261D01*
X225168376Y-61364654D01*
X225175759Y-61380673D01*
X225206255Y-61461532D01*
X225244791Y-61563710D01*
X225249824Y-61580609D01*
X225292187Y-61771593D01*
X225294772Y-61789041D01*
X225309942Y-61988497D01*
X225310298Y-61997315D01*
X225314245Y-62832007D01*
X225314784Y-62945935D01*
X225314782Y-62945943D01*
X225314976Y-62986650D01*
X225315092Y-63011168D01*
X225315096Y-63011835D01*
X225315096Y-63011859D01*
X225315784Y-63162627D01*
X225353448Y-63461845D01*
X225353450Y-63461855D01*
X225426803Y-63754394D01*
X225534780Y-64035999D01*
X225675810Y-64302580D01*
X225847855Y-64550282D01*
X225847857Y-64550284D01*
X226048423Y-64775518D01*
X226274603Y-64975018D01*
X226523118Y-65145891D01*
X226642287Y-65208216D01*
X226790357Y-65285658D01*
X226790360Y-65285659D01*
X226790366Y-65285662D01*
X227072474Y-65392304D01*
X227365353Y-65464272D01*
X227664758Y-65500523D01*
X227664764Y-65500522D01*
X227664765Y-65500523D01*
X227760718Y-65500508D01*
X227815553Y-65500500D01*
X227881445Y-65500502D01*
X227881452Y-65500500D01*
X237653223Y-65500500D01*
X237720262Y-65520185D01*
X237766017Y-65572989D01*
X237775961Y-65642147D01*
X237774840Y-65648692D01*
X237749500Y-65776079D01*
X237749500Y-65776082D01*
X237749500Y-65923918D01*
X237749500Y-65923920D01*
X237749499Y-65923920D01*
X237778340Y-66068907D01*
X237778343Y-66068917D01*
X237834912Y-66205488D01*
X237834919Y-66205501D01*
X237917048Y-66328415D01*
X237917051Y-66328419D01*
X238021580Y-66432948D01*
X238021584Y-66432951D01*
X238144498Y-66515080D01*
X238144511Y-66515087D01*
X238225055Y-66548449D01*
X238281087Y-66571658D01*
X238281091Y-66571658D01*
X238281092Y-66571659D01*
X238426079Y-66600500D01*
X238426082Y-66600500D01*
X238573920Y-66600500D01*
X238682797Y-66578842D01*
X238718913Y-66571658D01*
X238855495Y-66515084D01*
X238978416Y-66432951D01*
X239082951Y-66328416D01*
X239125462Y-66264792D01*
X239179074Y-66219987D01*
X239248399Y-66211280D01*
X239311427Y-66241434D01*
X239348147Y-66300877D01*
X239350090Y-66355243D01*
X239350097Y-66355244D01*
X239350092Y-66355294D01*
X239350184Y-66357867D01*
X239349500Y-66361306D01*
X239349500Y-66538695D01*
X239384103Y-66712658D01*
X239384106Y-66712667D01*
X239451983Y-66876540D01*
X239451990Y-66876553D01*
X239550535Y-67024034D01*
X239550538Y-67024038D01*
X239675961Y-67149461D01*
X239675965Y-67149464D01*
X239823446Y-67248009D01*
X239823459Y-67248016D01*
X239896853Y-67278416D01*
X239987334Y-67315894D01*
X239987336Y-67315894D01*
X239987341Y-67315896D01*
X240161304Y-67350499D01*
X240161307Y-67350500D01*
X240161309Y-67350500D01*
X240338693Y-67350500D01*
X240338694Y-67350499D01*
X240396682Y-67338964D01*
X240512658Y-67315896D01*
X240512661Y-67315894D01*
X240512666Y-67315894D01*
X240676547Y-67248013D01*
X240682720Y-67243888D01*
X240682721Y-67243888D01*
X240770973Y-67184919D01*
X240824035Y-67149464D01*
X240949464Y-67024035D01*
X241048013Y-66876547D01*
X241115894Y-66712666D01*
X241117352Y-66705340D01*
X241143943Y-66571656D01*
X241150500Y-66538691D01*
X241150500Y-66361309D01*
X241150500Y-66361306D01*
X241150499Y-66361304D01*
X241115896Y-66187341D01*
X241115893Y-66187332D01*
X241048016Y-66023459D01*
X241048009Y-66023446D01*
X240949464Y-65875965D01*
X240949461Y-65875961D01*
X240824038Y-65750538D01*
X240793696Y-65730264D01*
X240789711Y-65727601D01*
X240744908Y-65673989D01*
X240736201Y-65604664D01*
X240766356Y-65541637D01*
X240825799Y-65504918D01*
X240858604Y-65500500D01*
X264434108Y-65500500D01*
X264495572Y-65500500D01*
X264504418Y-65500816D01*
X264704561Y-65515130D01*
X264722063Y-65517647D01*
X264913795Y-65559355D01*
X264930760Y-65564336D01*
X265114611Y-65632909D01*
X265130694Y-65640253D01*
X265239195Y-65699500D01*
X265302908Y-65734290D01*
X265317791Y-65743855D01*
X265474864Y-65861438D01*
X265488235Y-65873024D01*
X265626975Y-66011764D01*
X265638561Y-66025135D01*
X265756144Y-66182208D01*
X265765709Y-66197091D01*
X265859743Y-66369300D01*
X265867093Y-66385394D01*
X265935661Y-66569234D01*
X265940645Y-66586209D01*
X265982351Y-66777931D01*
X265984869Y-66795442D01*
X265999184Y-66995580D01*
X265999500Y-67004427D01*
X265999500Y-112995572D01*
X265999184Y-113004419D01*
X265984869Y-113204557D01*
X265982351Y-113222068D01*
X265940645Y-113413790D01*
X265935661Y-113430765D01*
X265867093Y-113614605D01*
X265859743Y-113630699D01*
X265765709Y-113802908D01*
X265756144Y-113817791D01*
X265638561Y-113974864D01*
X265626975Y-113988235D01*
X265488235Y-114126975D01*
X265474864Y-114138561D01*
X265317791Y-114256144D01*
X265302908Y-114265709D01*
X265130699Y-114359743D01*
X265114605Y-114367093D01*
X264930765Y-114435661D01*
X264913790Y-114440645D01*
X264722068Y-114482351D01*
X264704557Y-114484869D01*
X264523779Y-114497799D01*
X264504417Y-114499184D01*
X264495572Y-114499500D01*
X179004428Y-114499500D01*
X178995582Y-114499184D01*
X178973622Y-114497613D01*
X178795442Y-114484869D01*
X178777931Y-114482351D01*
X178586209Y-114440645D01*
X178569234Y-114435661D01*
X178385394Y-114367093D01*
X178369300Y-114359743D01*
X178197091Y-114265709D01*
X178182208Y-114256144D01*
X178025135Y-114138561D01*
X178011764Y-114126975D01*
X177873024Y-113988235D01*
X177861438Y-113974864D01*
X177743855Y-113817791D01*
X177734290Y-113802908D01*
X177640256Y-113630699D01*
X177632909Y-113614611D01*
X177564336Y-113430760D01*
X177559354Y-113413790D01*
X177517648Y-113222068D01*
X177515130Y-113204556D01*
X177500816Y-113004418D01*
X177500500Y-112995572D01*
X177500500Y-111536153D01*
X192524500Y-111536153D01*
X192524500Y-111693846D01*
X192555261Y-111848489D01*
X192555264Y-111848501D01*
X192615602Y-111994172D01*
X192615609Y-111994185D01*
X192703210Y-112125288D01*
X192703213Y-112125292D01*
X192814707Y-112236786D01*
X192814711Y-112236789D01*
X192945814Y-112324390D01*
X192945827Y-112324397D01*
X193091498Y-112384735D01*
X193091503Y-112384737D01*
X193246153Y-112415499D01*
X193246156Y-112415500D01*
X193246158Y-112415500D01*
X193403844Y-112415500D01*
X193403845Y-112415499D01*
X193558497Y-112384737D01*
X193704179Y-112324394D01*
X193835289Y-112236789D01*
X193946789Y-112125289D01*
X194034394Y-111994179D01*
X194094737Y-111848497D01*
X194125500Y-111693842D01*
X194125500Y-111536158D01*
X194125500Y-111536155D01*
X194125499Y-111536153D01*
X194094737Y-111381503D01*
X194094735Y-111381498D01*
X194034397Y-111235827D01*
X194034390Y-111235814D01*
X193946789Y-111104711D01*
X193946786Y-111104707D01*
X193835292Y-110993213D01*
X193835288Y-110993210D01*
X193704185Y-110905609D01*
X193704172Y-110905602D01*
X193558501Y-110845264D01*
X193558489Y-110845261D01*
X193403845Y-110814500D01*
X193403842Y-110814500D01*
X193246158Y-110814500D01*
X193246155Y-110814500D01*
X193091510Y-110845261D01*
X193091498Y-110845264D01*
X192945827Y-110905602D01*
X192945814Y-110905609D01*
X192814711Y-110993210D01*
X192814707Y-110993213D01*
X192703213Y-111104707D01*
X192703210Y-111104711D01*
X192615609Y-111235814D01*
X192615602Y-111235827D01*
X192555264Y-111381498D01*
X192555261Y-111381510D01*
X192524500Y-111536153D01*
X177500500Y-111536153D01*
X177500500Y-110573920D01*
X194549499Y-110573920D01*
X194578340Y-110718907D01*
X194578343Y-110718917D01*
X194634912Y-110855488D01*
X194634919Y-110855501D01*
X194717048Y-110978415D01*
X194717051Y-110978419D01*
X194821580Y-111082948D01*
X194821584Y-111082951D01*
X194944498Y-111165080D01*
X194944511Y-111165087D01*
X195081082Y-111221656D01*
X195081087Y-111221658D01*
X195081091Y-111221658D01*
X195081092Y-111221659D01*
X195226079Y-111250500D01*
X195226082Y-111250500D01*
X195373920Y-111250500D01*
X195471462Y-111231096D01*
X195518913Y-111221658D01*
X195655495Y-111165084D01*
X195711517Y-111127650D01*
X195778193Y-111106772D01*
X195804601Y-111109135D01*
X195869530Y-111122051D01*
X195869531Y-111122051D01*
X196017369Y-111122051D01*
X196132676Y-111099114D01*
X196162362Y-111093209D01*
X196298944Y-111036635D01*
X196421865Y-110954502D01*
X196526400Y-110849967D01*
X196608533Y-110727046D01*
X196665107Y-110590464D01*
X196693949Y-110445469D01*
X196693949Y-110297633D01*
X196693949Y-110297630D01*
X196693948Y-110297628D01*
X196684043Y-110247829D01*
X196665108Y-110152643D01*
X196665107Y-110152642D01*
X196665107Y-110152638D01*
X196610823Y-110021584D01*
X196608536Y-110016062D01*
X196608529Y-110016049D01*
X196526400Y-109893135D01*
X196526397Y-109893131D01*
X196421868Y-109788602D01*
X196421864Y-109788599D01*
X196298950Y-109706470D01*
X196298937Y-109706463D01*
X196162366Y-109649894D01*
X196162356Y-109649891D01*
X196017369Y-109621051D01*
X196017367Y-109621051D01*
X195869531Y-109621051D01*
X195869529Y-109621051D01*
X195724541Y-109649891D01*
X195724531Y-109649894D01*
X195587957Y-109706465D01*
X195531929Y-109743901D01*
X195465251Y-109764778D01*
X195438847Y-109762415D01*
X195373920Y-109749500D01*
X195373918Y-109749500D01*
X195226082Y-109749500D01*
X195226080Y-109749500D01*
X195081092Y-109778340D01*
X195081082Y-109778343D01*
X194944511Y-109834912D01*
X194944498Y-109834919D01*
X194821584Y-109917048D01*
X194821580Y-109917051D01*
X194717051Y-110021580D01*
X194717048Y-110021584D01*
X194634919Y-110144498D01*
X194634912Y-110144511D01*
X194578343Y-110281082D01*
X194578340Y-110281092D01*
X194549500Y-110426079D01*
X194549500Y-110426082D01*
X194549500Y-110573918D01*
X194549500Y-110573920D01*
X194549499Y-110573920D01*
X177500500Y-110573920D01*
X177500500Y-109428966D01*
X207275000Y-109428966D01*
X207275000Y-109775000D01*
X207975000Y-109775000D01*
X207975000Y-110275000D01*
X207275000Y-110275000D01*
X207275000Y-110621033D01*
X207312466Y-110809389D01*
X207312468Y-110809397D01*
X207385964Y-110986833D01*
X207385969Y-110986842D01*
X207492667Y-111146526D01*
X207492670Y-111146530D01*
X207628469Y-111282329D01*
X207628473Y-111282332D01*
X207788157Y-111389030D01*
X207788167Y-111389035D01*
X207965599Y-111462530D01*
X207965606Y-111462533D01*
X208000000Y-111469373D01*
X208000000Y-110640056D01*
X208016866Y-110680775D01*
X208094225Y-110758134D01*
X208195299Y-110800000D01*
X208304701Y-110800000D01*
X208405775Y-110758134D01*
X208483134Y-110680775D01*
X208500000Y-110640056D01*
X208500000Y-111469372D01*
X208534393Y-111462533D01*
X208534400Y-111462530D01*
X208711832Y-111389035D01*
X208711842Y-111389030D01*
X208871526Y-111282332D01*
X208871530Y-111282329D01*
X209007329Y-111146530D01*
X209007332Y-111146526D01*
X209114030Y-110986842D01*
X209114035Y-110986833D01*
X209187531Y-110809397D01*
X209187533Y-110809389D01*
X209224999Y-110621033D01*
X209225000Y-110621030D01*
X209225000Y-110275000D01*
X208525000Y-110275000D01*
X208525000Y-109775000D01*
X209225000Y-109775000D01*
X209225000Y-109428970D01*
X209224999Y-109428966D01*
X209187533Y-109240610D01*
X209187531Y-109240602D01*
X209114035Y-109063166D01*
X209114030Y-109063157D01*
X209007332Y-108903473D01*
X209007329Y-108903469D01*
X209006475Y-108902615D01*
X209006170Y-108902057D01*
X209003467Y-108898763D01*
X209004091Y-108898250D01*
X208972990Y-108841292D01*
X208977974Y-108771600D01*
X209019846Y-108715667D01*
X209025266Y-108711832D01*
X209183395Y-108606173D01*
X209183403Y-108606167D01*
X209326167Y-108463403D01*
X209326170Y-108463399D01*
X209438340Y-108295526D01*
X209438342Y-108295522D01*
X209493792Y-108161652D01*
X209537633Y-108107248D01*
X209603927Y-108085183D01*
X209671626Y-108102462D01*
X209703513Y-108132677D01*
X209704928Y-108131517D01*
X209708794Y-108136228D01*
X209823771Y-108251205D01*
X209823779Y-108251211D01*
X209958976Y-108341547D01*
X209958980Y-108341549D01*
X210109206Y-108403774D01*
X210109211Y-108403776D01*
X210109215Y-108403776D01*
X210109216Y-108403777D01*
X210268692Y-108435500D01*
X210268695Y-108435500D01*
X210431307Y-108435500D01*
X210538598Y-108414157D01*
X210590789Y-108403776D01*
X210702548Y-108357483D01*
X210772016Y-108350015D01*
X210797449Y-108357482D01*
X210909211Y-108403776D01*
X210909215Y-108403776D01*
X210909216Y-108403777D01*
X211068692Y-108435500D01*
X211068695Y-108435500D01*
X211231307Y-108435500D01*
X211338598Y-108414157D01*
X211390789Y-108403776D01*
X211502548Y-108357483D01*
X211572016Y-108350015D01*
X211597449Y-108357482D01*
X211709211Y-108403776D01*
X211709215Y-108403776D01*
X211709216Y-108403777D01*
X211868692Y-108435500D01*
X211868695Y-108435500D01*
X212031307Y-108435500D01*
X212138598Y-108414157D01*
X212190789Y-108403776D01*
X212341021Y-108341548D01*
X212341023Y-108341547D01*
X212409918Y-108295513D01*
X212476225Y-108251208D01*
X212591208Y-108136225D01*
X212646898Y-108052877D01*
X212700509Y-108008074D01*
X212769834Y-107999366D01*
X212832862Y-108029520D01*
X212853099Y-108052875D01*
X212886232Y-108102462D01*
X212908793Y-108136227D01*
X213023771Y-108251205D01*
X213023779Y-108251211D01*
X213158976Y-108341547D01*
X213158980Y-108341549D01*
X213309206Y-108403774D01*
X213309211Y-108403776D01*
X213309215Y-108403776D01*
X213309216Y-108403777D01*
X213468692Y-108435500D01*
X213468695Y-108435500D01*
X213631307Y-108435500D01*
X213738598Y-108414157D01*
X213790789Y-108403776D01*
X213902548Y-108357483D01*
X213972016Y-108350015D01*
X213997449Y-108357482D01*
X214109211Y-108403776D01*
X214109215Y-108403776D01*
X214109216Y-108403777D01*
X214268692Y-108435500D01*
X214268695Y-108435500D01*
X214431307Y-108435500D01*
X214538598Y-108414157D01*
X214590789Y-108403776D01*
X214702548Y-108357483D01*
X214772016Y-108350015D01*
X214797449Y-108357482D01*
X214909211Y-108403776D01*
X214909215Y-108403776D01*
X214909216Y-108403777D01*
X215068692Y-108435500D01*
X215068695Y-108435500D01*
X215231307Y-108435500D01*
X215338598Y-108414157D01*
X215390789Y-108403776D01*
X215541021Y-108341548D01*
X215541023Y-108341547D01*
X215609918Y-108295513D01*
X215676225Y-108251208D01*
X215791208Y-108136225D01*
X215791210Y-108136221D01*
X215795072Y-108131517D01*
X215797035Y-108133128D01*
X215842109Y-108095428D01*
X215911431Y-108086693D01*
X215974470Y-108116822D01*
X216006206Y-108161652D01*
X216061652Y-108295513D01*
X216061659Y-108295526D01*
X216173829Y-108463399D01*
X216173832Y-108463403D01*
X216316596Y-108606167D01*
X216316604Y-108606173D01*
X216474734Y-108711832D01*
X216519540Y-108765444D01*
X216528247Y-108834769D01*
X216498093Y-108897796D01*
X216493534Y-108902607D01*
X216492668Y-108903472D01*
X216492665Y-108903476D01*
X216385969Y-109063157D01*
X216385964Y-109063166D01*
X216312468Y-109240602D01*
X216312466Y-109240610D01*
X216275000Y-109428966D01*
X216275000Y-109775000D01*
X216975000Y-109775000D01*
X216975000Y-110275000D01*
X216275000Y-110275000D01*
X216275000Y-110621033D01*
X216312466Y-110809389D01*
X216312468Y-110809397D01*
X216385964Y-110986833D01*
X216385969Y-110986842D01*
X216492667Y-111146526D01*
X216492670Y-111146530D01*
X216628469Y-111282329D01*
X216628473Y-111282332D01*
X216788157Y-111389030D01*
X216788167Y-111389035D01*
X216965599Y-111462530D01*
X216965606Y-111462533D01*
X217000000Y-111469373D01*
X217000000Y-110640056D01*
X217016866Y-110680775D01*
X217094225Y-110758134D01*
X217195299Y-110800000D01*
X217304701Y-110800000D01*
X217405775Y-110758134D01*
X217483134Y-110680775D01*
X217500000Y-110640056D01*
X217500000Y-111469372D01*
X217534393Y-111462533D01*
X217534400Y-111462530D01*
X217711832Y-111389035D01*
X217711842Y-111389030D01*
X217871526Y-111282332D01*
X217871530Y-111282329D01*
X218007329Y-111146530D01*
X218007332Y-111146526D01*
X218114030Y-110986842D01*
X218114035Y-110986833D01*
X218187531Y-110809397D01*
X218187533Y-110809389D01*
X218224999Y-110621033D01*
X218225000Y-110621030D01*
X218225000Y-110275000D01*
X217525000Y-110275000D01*
X217525000Y-109775000D01*
X218225000Y-109775000D01*
X218225000Y-109428970D01*
X218224999Y-109428966D01*
X218187533Y-109240610D01*
X218187531Y-109240602D01*
X218114035Y-109063166D01*
X218114030Y-109063157D01*
X218007332Y-108903473D01*
X218007329Y-108903469D01*
X217871530Y-108767670D01*
X217871526Y-108767667D01*
X217751605Y-108687538D01*
X217706800Y-108633926D01*
X217698093Y-108564601D01*
X217728248Y-108501573D01*
X217732816Y-108496754D01*
X217766167Y-108463403D01*
X217766170Y-108463399D01*
X217878340Y-108295526D01*
X217878347Y-108295513D01*
X217955609Y-108108983D01*
X217955612Y-108108974D01*
X217994999Y-107910958D01*
X217995000Y-107910955D01*
X217995000Y-107760000D01*
X217295000Y-107760000D01*
X217295000Y-107260000D01*
X217995000Y-107260000D01*
X217995000Y-107109045D01*
X217994999Y-107109041D01*
X217955612Y-106911025D01*
X217955609Y-106911016D01*
X217878347Y-106724486D01*
X217878340Y-106724473D01*
X217766170Y-106556600D01*
X217766167Y-106556596D01*
X217623403Y-106413832D01*
X217623399Y-106413829D01*
X217455526Y-106301659D01*
X217455513Y-106301652D01*
X217268984Y-106224390D01*
X217268977Y-106224388D01*
X217220000Y-106214645D01*
X217220000Y-107000382D01*
X217169554Y-106949936D01*
X217095445Y-106907149D01*
X217012787Y-106885000D01*
X216927213Y-106885000D01*
X216844555Y-106907149D01*
X216770446Y-106949936D01*
X216720000Y-107000382D01*
X216720000Y-106776454D01*
X216739685Y-106709415D01*
X216756319Y-106688773D01*
X216786176Y-106658916D01*
X216822517Y-106622575D01*
X216900258Y-106487924D01*
X216940500Y-106337741D01*
X216940500Y-106182259D01*
X216900258Y-106032076D01*
X216888673Y-106012011D01*
X216822519Y-105897428D01*
X216822514Y-105897422D01*
X216771773Y-105846681D01*
X216738288Y-105785358D01*
X216743272Y-105715666D01*
X216785144Y-105659733D01*
X216850608Y-105635316D01*
X216859454Y-105635000D01*
X216861106Y-105635000D01*
X216861109Y-105634999D01*
X217039805Y-105599454D01*
X217039817Y-105599451D01*
X217208145Y-105529728D01*
X217208158Y-105529721D01*
X217359652Y-105428495D01*
X217359656Y-105428492D01*
X217366995Y-105421153D01*
X219399500Y-105421153D01*
X219399500Y-105578846D01*
X219430261Y-105733489D01*
X219430264Y-105733501D01*
X219490602Y-105879172D01*
X219490609Y-105879185D01*
X219578210Y-106010288D01*
X219578213Y-106010292D01*
X219689707Y-106121786D01*
X219689711Y-106121789D01*
X219820814Y-106209390D01*
X219820827Y-106209397D01*
X219964226Y-106268794D01*
X219966503Y-106269737D01*
X220121153Y-106300499D01*
X220121156Y-106300500D01*
X220121158Y-106300500D01*
X220278844Y-106300500D01*
X220278845Y-106300499D01*
X220433497Y-106269737D01*
X220546166Y-106223067D01*
X220579172Y-106209397D01*
X220579172Y-106209396D01*
X220579179Y-106209394D01*
X220710289Y-106121789D01*
X220821789Y-106010289D01*
X220909394Y-105879179D01*
X220969737Y-105733497D01*
X221000500Y-105578842D01*
X221000500Y-105421158D01*
X221000500Y-105421155D01*
X221000499Y-105421153D01*
X220981847Y-105327385D01*
X220969737Y-105266503D01*
X220969735Y-105266498D01*
X220909397Y-105120827D01*
X220909390Y-105120814D01*
X220821789Y-104989711D01*
X220821786Y-104989707D01*
X220710292Y-104878213D01*
X220710288Y-104878210D01*
X220579185Y-104790609D01*
X220579172Y-104790602D01*
X220433501Y-104730264D01*
X220433489Y-104730261D01*
X220278845Y-104699500D01*
X220278842Y-104699500D01*
X220121158Y-104699500D01*
X220121155Y-104699500D01*
X219966510Y-104730261D01*
X219966498Y-104730264D01*
X219820827Y-104790602D01*
X219820814Y-104790609D01*
X219689711Y-104878210D01*
X219689707Y-104878213D01*
X219578213Y-104989707D01*
X219578210Y-104989711D01*
X219490609Y-105120814D01*
X219490602Y-105120827D01*
X219430264Y-105266498D01*
X219430261Y-105266510D01*
X219399500Y-105421153D01*
X217366995Y-105421153D01*
X217460764Y-105327385D01*
X217488492Y-105299656D01*
X217488495Y-105299652D01*
X217589721Y-105148158D01*
X217589728Y-105148145D01*
X217659451Y-104979817D01*
X217659454Y-104979805D01*
X217663394Y-104960000D01*
X215526606Y-104960000D01*
X215530545Y-104979805D01*
X215530548Y-104979817D01*
X215600271Y-105148145D01*
X215600278Y-105148158D01*
X215701504Y-105299652D01*
X215701507Y-105299656D01*
X215830343Y-105428492D01*
X215830347Y-105428495D01*
X215981841Y-105529721D01*
X215981848Y-105529725D01*
X216012737Y-105542519D01*
X216067141Y-105586359D01*
X216089207Y-105652653D01*
X216071929Y-105720353D01*
X216027288Y-105764467D01*
X215987428Y-105787481D01*
X215987422Y-105787485D01*
X215877485Y-105897422D01*
X215877483Y-105897425D01*
X215799406Y-106032657D01*
X215748838Y-106080872D01*
X215680231Y-106094094D01*
X215667831Y-106092274D01*
X215631256Y-106085000D01*
X215468740Y-106085000D01*
X215309363Y-106116701D01*
X215309354Y-106116704D01*
X215168571Y-106175018D01*
X215639095Y-106645541D01*
X215643434Y-106653487D01*
X215650685Y-106658916D01*
X215659918Y-106683675D01*
X215672580Y-106706864D01*
X215671933Y-106715897D01*
X215675098Y-106724382D01*
X215670117Y-106747274D01*
X215663291Y-106740448D01*
X215589782Y-106710000D01*
X215510218Y-106710000D01*
X215436709Y-106740448D01*
X215380448Y-106796709D01*
X215373767Y-106812837D01*
X215231307Y-106784500D01*
X215231305Y-106784500D01*
X215122308Y-106784500D01*
X215055269Y-106764815D01*
X215034627Y-106748181D01*
X214815018Y-106528571D01*
X214784126Y-106534716D01*
X214714534Y-106528489D01*
X214659357Y-106485625D01*
X214656833Y-106481989D01*
X214591211Y-106383779D01*
X214591205Y-106383771D01*
X214476228Y-106268794D01*
X214476220Y-106268788D01*
X214341023Y-106178452D01*
X214341019Y-106178450D01*
X214190793Y-106116225D01*
X214190783Y-106116222D01*
X214031307Y-106084500D01*
X214031305Y-106084500D01*
X213874500Y-106084500D01*
X213807461Y-106064815D01*
X213761706Y-106012011D01*
X213750500Y-105960500D01*
X213750500Y-104665245D01*
X216195000Y-104665245D01*
X216195000Y-104754755D01*
X216229254Y-104837452D01*
X216292548Y-104900746D01*
X216375245Y-104935000D01*
X216814755Y-104935000D01*
X216897452Y-104900746D01*
X216960746Y-104837452D01*
X216995000Y-104754755D01*
X216995000Y-104665245D01*
X216960746Y-104582548D01*
X216897452Y-104519254D01*
X216814755Y-104485000D01*
X216375245Y-104485000D01*
X216292548Y-104519254D01*
X216229254Y-104582548D01*
X216195000Y-104665245D01*
X213750500Y-104665245D01*
X213750500Y-104629656D01*
X213750500Y-104619657D01*
X213750501Y-104619655D01*
X213750501Y-104461540D01*
X213750088Y-104460000D01*
X215526606Y-104460000D01*
X216345000Y-104460000D01*
X216845000Y-104460000D01*
X217663394Y-104460000D01*
X217659454Y-104440194D01*
X217659451Y-104440182D01*
X217589728Y-104271854D01*
X217589721Y-104271841D01*
X217488495Y-104120347D01*
X217488492Y-104120343D01*
X217359656Y-103991507D01*
X217359652Y-103991504D01*
X217208158Y-103890278D01*
X217208145Y-103890271D01*
X217039817Y-103820548D01*
X217039805Y-103820545D01*
X216861109Y-103785000D01*
X216845000Y-103785000D01*
X216845000Y-104460000D01*
X216345000Y-104460000D01*
X216345000Y-103785000D01*
X216328890Y-103785000D01*
X216150194Y-103820545D01*
X216150182Y-103820548D01*
X215981854Y-103890271D01*
X215981841Y-103890278D01*
X215830347Y-103991504D01*
X215830343Y-103991507D01*
X215701507Y-104120343D01*
X215701504Y-104120347D01*
X215600278Y-104271841D01*
X215600271Y-104271854D01*
X215530548Y-104440182D01*
X215530545Y-104440194D01*
X215526606Y-104460000D01*
X213750088Y-104460000D01*
X213749176Y-104456595D01*
X213750837Y-104386746D01*
X213789998Y-104328883D01*
X213854226Y-104301377D01*
X213868950Y-104300500D01*
X213878844Y-104300500D01*
X213878845Y-104300499D01*
X214033497Y-104269737D01*
X214179179Y-104209394D01*
X214310289Y-104121789D01*
X214421789Y-104010289D01*
X214509394Y-103879179D01*
X214569737Y-103733497D01*
X214600500Y-103578842D01*
X214600500Y-103421158D01*
X214600500Y-103421155D01*
X214600499Y-103421153D01*
X214593819Y-103387573D01*
X214569737Y-103266503D01*
X214545299Y-103207503D01*
X214509397Y-103120827D01*
X214509390Y-103120814D01*
X214421789Y-102989711D01*
X214421786Y-102989707D01*
X214310292Y-102878213D01*
X214310288Y-102878210D01*
X214179185Y-102790609D01*
X214179172Y-102790602D01*
X214033501Y-102730264D01*
X214033489Y-102730261D01*
X213878845Y-102699500D01*
X213878842Y-102699500D01*
X213721158Y-102699500D01*
X213721155Y-102699500D01*
X213566510Y-102730261D01*
X213566498Y-102730264D01*
X213420827Y-102790602D01*
X213420814Y-102790609D01*
X213289711Y-102878210D01*
X213289707Y-102878213D01*
X213178213Y-102989707D01*
X213178210Y-102989711D01*
X213090609Y-103120814D01*
X213090602Y-103120827D01*
X213030264Y-103266498D01*
X213030261Y-103266508D01*
X213024898Y-103293472D01*
X213020188Y-103302476D01*
X213019463Y-103312614D01*
X213004266Y-103332913D01*
X212992513Y-103355383D01*
X212983680Y-103360412D01*
X212977591Y-103368547D01*
X212953835Y-103377407D01*
X212931797Y-103389957D01*
X212921648Y-103389412D01*
X212912127Y-103392964D01*
X212887348Y-103387573D01*
X212862027Y-103386216D01*
X212851966Y-103379876D01*
X212843854Y-103378112D01*
X212815600Y-103356961D01*
X212700215Y-103241576D01*
X212666730Y-103180253D01*
X212666279Y-103178086D01*
X212645109Y-103071658D01*
X212635379Y-103022742D01*
X212598187Y-102932951D01*
X212575039Y-102877066D01*
X212575032Y-102877053D01*
X212487431Y-102745950D01*
X212487428Y-102745946D01*
X212375934Y-102634452D01*
X212375930Y-102634449D01*
X212244827Y-102546848D01*
X212244814Y-102546841D01*
X212099143Y-102486503D01*
X212099131Y-102486500D01*
X211944487Y-102455739D01*
X211944484Y-102455739D01*
X211786800Y-102455739D01*
X211786797Y-102455739D01*
X211632152Y-102486500D01*
X211632140Y-102486503D01*
X211486469Y-102546841D01*
X211486456Y-102546848D01*
X211355353Y-102634449D01*
X211355349Y-102634452D01*
X211243855Y-102745946D01*
X211243852Y-102745950D01*
X211156251Y-102877053D01*
X211156244Y-102877066D01*
X211095906Y-103022737D01*
X211095903Y-103022747D01*
X211069521Y-103155378D01*
X211037136Y-103217289D01*
X210976420Y-103251863D01*
X210906650Y-103248123D01*
X210849979Y-103207256D01*
X210833343Y-103178638D01*
X210809397Y-103120827D01*
X210809390Y-103120814D01*
X210721789Y-102989711D01*
X210721786Y-102989707D01*
X210610292Y-102878213D01*
X210610288Y-102878210D01*
X210479185Y-102790609D01*
X210479172Y-102790602D01*
X210333501Y-102730264D01*
X210333489Y-102730261D01*
X210178845Y-102699500D01*
X210178842Y-102699500D01*
X210021158Y-102699500D01*
X210021155Y-102699500D01*
X209866510Y-102730261D01*
X209866498Y-102730264D01*
X209720827Y-102790602D01*
X209720814Y-102790609D01*
X209589711Y-102878210D01*
X209589707Y-102878213D01*
X209478213Y-102989707D01*
X209478210Y-102989711D01*
X209390609Y-103120814D01*
X209390602Y-103120827D01*
X209330264Y-103266498D01*
X209330261Y-103266510D01*
X209299500Y-103421153D01*
X209299500Y-103421158D01*
X209299500Y-103578842D01*
X209299501Y-103578846D01*
X209311281Y-103638072D01*
X209305052Y-103707664D01*
X209262189Y-103762840D01*
X209196299Y-103786084D01*
X209177254Y-103784722D01*
X209177168Y-103785597D01*
X209171106Y-103785000D01*
X209155000Y-103785000D01*
X209155000Y-104460000D01*
X209973394Y-104460000D01*
X209971145Y-104448691D01*
X209977372Y-104379099D01*
X210020235Y-104323922D01*
X210086125Y-104300678D01*
X210092762Y-104300500D01*
X210178844Y-104300500D01*
X210178845Y-104300499D01*
X210333497Y-104269737D01*
X210479179Y-104209394D01*
X210610289Y-104121789D01*
X210721789Y-104010289D01*
X210809394Y-103879179D01*
X210869737Y-103733497D01*
X210896120Y-103600860D01*
X210928504Y-103538950D01*
X210989220Y-103504376D01*
X211058990Y-103508115D01*
X211115662Y-103548981D01*
X211132298Y-103577599D01*
X211156246Y-103635414D01*
X211156251Y-103635424D01*
X211243852Y-103766527D01*
X211243855Y-103766531D01*
X211355349Y-103878025D01*
X211355353Y-103878028D01*
X211486456Y-103965629D01*
X211486469Y-103965636D01*
X211594280Y-104010292D01*
X211632145Y-104025976D01*
X211696789Y-104038834D01*
X211787491Y-104056877D01*
X211849402Y-104089262D01*
X211850981Y-104090813D01*
X212513181Y-104753013D01*
X212546666Y-104814336D01*
X212549500Y-104840694D01*
X212549500Y-105960500D01*
X212529815Y-106027539D01*
X212477011Y-106073294D01*
X212425500Y-106084500D01*
X212268693Y-106084500D01*
X212109216Y-106116222D01*
X212109210Y-106116224D01*
X212053640Y-106139242D01*
X211997451Y-106162516D01*
X211927984Y-106169985D01*
X211902550Y-106162517D01*
X211790789Y-106116224D01*
X211790783Y-106116222D01*
X211631307Y-106084500D01*
X211631305Y-106084500D01*
X211468695Y-106084500D01*
X211468693Y-106084500D01*
X211309216Y-106116222D01*
X211309206Y-106116225D01*
X211158980Y-106178450D01*
X211158976Y-106178452D01*
X211023779Y-106268788D01*
X211023771Y-106268794D01*
X210908794Y-106383771D01*
X210908791Y-106383775D01*
X210843166Y-106481990D01*
X210789554Y-106526795D01*
X210720229Y-106535502D01*
X210715873Y-106534716D01*
X210684981Y-106528571D01*
X210465374Y-106748181D01*
X210404051Y-106781666D01*
X210377692Y-106784500D01*
X210268693Y-106784500D01*
X210126232Y-106812837D01*
X210119552Y-106796709D01*
X210063291Y-106740448D01*
X209989782Y-106710000D01*
X209910218Y-106710000D01*
X209836709Y-106740448D01*
X209802848Y-106774308D01*
X209804781Y-106720212D01*
X209834754Y-106671691D01*
X210331427Y-106175018D01*
X210190644Y-106116704D01*
X210190636Y-106116702D01*
X210031259Y-106085000D01*
X209868741Y-106085000D01*
X209832167Y-106092274D01*
X209762576Y-106086044D01*
X209707400Y-106043179D01*
X209700593Y-106032656D01*
X209647063Y-105939940D01*
X209622517Y-105897425D01*
X209512575Y-105787483D01*
X209511017Y-105786583D01*
X209472712Y-105764467D01*
X209424497Y-105713900D01*
X209411275Y-105645293D01*
X209437243Y-105580428D01*
X209487263Y-105542519D01*
X209518148Y-105529726D01*
X209518158Y-105529721D01*
X209669652Y-105428495D01*
X209669656Y-105428492D01*
X209798492Y-105299656D01*
X209798495Y-105299652D01*
X209899721Y-105148158D01*
X209899728Y-105148145D01*
X209969451Y-104979817D01*
X209969454Y-104979805D01*
X209973394Y-104960000D01*
X207836606Y-104960000D01*
X207840545Y-104979805D01*
X207840548Y-104979817D01*
X207910271Y-105148145D01*
X207910278Y-105148158D01*
X208011504Y-105299652D01*
X208011507Y-105299656D01*
X208140343Y-105428492D01*
X208140347Y-105428495D01*
X208291841Y-105529721D01*
X208291854Y-105529728D01*
X208460182Y-105599451D01*
X208460194Y-105599454D01*
X208638890Y-105634999D01*
X208638894Y-105635000D01*
X208640546Y-105635000D01*
X208641379Y-105635244D01*
X208644956Y-105635597D01*
X208644889Y-105636275D01*
X208707585Y-105654685D01*
X208753340Y-105707489D01*
X208763284Y-105776647D01*
X208734259Y-105840203D01*
X208728227Y-105846681D01*
X208677485Y-105897422D01*
X208677480Y-105897428D01*
X208599743Y-106032072D01*
X208599742Y-106032076D01*
X208559500Y-106182259D01*
X208559500Y-106182261D01*
X208559500Y-106337738D01*
X208559499Y-106337738D01*
X208599743Y-106487927D01*
X208677480Y-106622571D01*
X208677485Y-106622577D01*
X208743681Y-106688773D01*
X208777166Y-106750096D01*
X208780000Y-106776454D01*
X208780000Y-107000382D01*
X208729554Y-106949936D01*
X208655445Y-106907149D01*
X208572787Y-106885000D01*
X208487213Y-106885000D01*
X208404555Y-106907149D01*
X208330446Y-106949936D01*
X208280000Y-107000382D01*
X208280000Y-106214646D01*
X208279999Y-106214645D01*
X208231022Y-106224388D01*
X208231015Y-106224390D01*
X208044486Y-106301652D01*
X208044473Y-106301659D01*
X207876600Y-106413829D01*
X207876596Y-106413832D01*
X207733832Y-106556596D01*
X207733829Y-106556600D01*
X207621659Y-106724473D01*
X207621652Y-106724486D01*
X207544390Y-106911016D01*
X207544387Y-106911025D01*
X207505000Y-107109041D01*
X207505000Y-107260000D01*
X208205000Y-107260000D01*
X208205000Y-107760000D01*
X207505000Y-107760000D01*
X207505000Y-107910958D01*
X207544387Y-108108974D01*
X207544390Y-108108983D01*
X207621652Y-108295513D01*
X207621659Y-108295526D01*
X207733829Y-108463399D01*
X207733832Y-108463403D01*
X207767184Y-108496755D01*
X207800669Y-108558078D01*
X207795685Y-108627770D01*
X207753813Y-108683703D01*
X207748394Y-108687538D01*
X207628473Y-108767667D01*
X207628469Y-108767670D01*
X207492670Y-108903469D01*
X207492667Y-108903473D01*
X207385969Y-109063157D01*
X207385964Y-109063166D01*
X207312468Y-109240602D01*
X207312466Y-109240610D01*
X207275000Y-109428966D01*
X177500500Y-109428966D01*
X177500500Y-108473920D01*
X198167392Y-108473920D01*
X198196233Y-108618907D01*
X198196236Y-108618917D01*
X198252805Y-108755488D01*
X198252812Y-108755501D01*
X198334941Y-108878415D01*
X198334944Y-108878419D01*
X198439473Y-108982948D01*
X198439477Y-108982951D01*
X198562391Y-109065080D01*
X198562404Y-109065087D01*
X198698975Y-109121656D01*
X198698980Y-109121658D01*
X198698984Y-109121658D01*
X198698985Y-109121659D01*
X198843972Y-109150500D01*
X198843975Y-109150500D01*
X198991813Y-109150500D01*
X199089355Y-109131096D01*
X199136806Y-109121658D01*
X199273388Y-109065084D01*
X199396309Y-108982951D01*
X199500844Y-108878416D01*
X199582977Y-108755495D01*
X199639551Y-108618913D01*
X199662892Y-108501573D01*
X199668393Y-108473920D01*
X199668393Y-108326079D01*
X199639552Y-108181092D01*
X199639551Y-108181091D01*
X199639551Y-108181087D01*
X199620970Y-108136228D01*
X199582980Y-108044511D01*
X199582973Y-108044498D01*
X199500844Y-107921584D01*
X199500841Y-107921580D01*
X199396312Y-107817051D01*
X199396308Y-107817048D01*
X199273394Y-107734919D01*
X199273381Y-107734912D01*
X199136810Y-107678343D01*
X199136800Y-107678340D01*
X198991813Y-107649500D01*
X198991811Y-107649500D01*
X198843975Y-107649500D01*
X198843973Y-107649500D01*
X198698985Y-107678340D01*
X198698975Y-107678343D01*
X198562404Y-107734912D01*
X198562391Y-107734919D01*
X198439477Y-107817048D01*
X198439473Y-107817051D01*
X198334944Y-107921580D01*
X198334941Y-107921584D01*
X198252812Y-108044498D01*
X198252805Y-108044511D01*
X198196236Y-108181082D01*
X198196233Y-108181092D01*
X198167393Y-108326079D01*
X198167393Y-108326082D01*
X198167393Y-108473918D01*
X198167393Y-108473920D01*
X198167392Y-108473920D01*
X177500500Y-108473920D01*
X177500500Y-106492276D01*
X198117855Y-106492276D01*
X198146696Y-106637263D01*
X198146699Y-106637273D01*
X198203268Y-106773844D01*
X198203275Y-106773857D01*
X198285404Y-106896771D01*
X198285407Y-106896775D01*
X198389936Y-107001304D01*
X198389940Y-107001307D01*
X198512854Y-107083436D01*
X198512867Y-107083443D01*
X198649438Y-107140012D01*
X198649443Y-107140014D01*
X198649447Y-107140014D01*
X198649448Y-107140015D01*
X198794435Y-107168856D01*
X198794438Y-107168856D01*
X198942276Y-107168856D01*
X199039818Y-107149452D01*
X199087269Y-107140014D01*
X199223851Y-107083440D01*
X199346772Y-107001307D01*
X199451307Y-106896772D01*
X199533440Y-106773851D01*
X199590014Y-106637269D01*
X199599452Y-106589818D01*
X199618856Y-106492276D01*
X199618856Y-106344435D01*
X199590015Y-106199448D01*
X199590014Y-106199447D01*
X199590014Y-106199443D01*
X199583804Y-106184451D01*
X199533443Y-106062867D01*
X199533436Y-106062854D01*
X199451307Y-105939940D01*
X199451304Y-105939936D01*
X199346775Y-105835407D01*
X199346771Y-105835404D01*
X199223857Y-105753275D01*
X199223844Y-105753268D01*
X199087273Y-105696699D01*
X199087263Y-105696696D01*
X198942276Y-105667856D01*
X198942274Y-105667856D01*
X198794438Y-105667856D01*
X198794436Y-105667856D01*
X198649448Y-105696696D01*
X198649438Y-105696699D01*
X198512867Y-105753268D01*
X198512854Y-105753275D01*
X198389940Y-105835404D01*
X198389936Y-105835407D01*
X198285407Y-105939936D01*
X198285404Y-105939940D01*
X198203275Y-106062854D01*
X198203268Y-106062867D01*
X198146699Y-106199438D01*
X198146696Y-106199448D01*
X198117856Y-106344435D01*
X198117856Y-106344438D01*
X198117856Y-106492274D01*
X198117856Y-106492276D01*
X198117855Y-106492276D01*
X177500500Y-106492276D01*
X177500500Y-104665245D01*
X208505000Y-104665245D01*
X208505000Y-104754755D01*
X208539254Y-104837452D01*
X208602548Y-104900746D01*
X208685245Y-104935000D01*
X209124755Y-104935000D01*
X209207452Y-104900746D01*
X209270746Y-104837452D01*
X209305000Y-104754755D01*
X209305000Y-104665245D01*
X209270746Y-104582548D01*
X209207452Y-104519254D01*
X209124755Y-104485000D01*
X208685245Y-104485000D01*
X208602548Y-104519254D01*
X208539254Y-104582548D01*
X208505000Y-104665245D01*
X177500500Y-104665245D01*
X177500500Y-104460000D01*
X207836606Y-104460000D01*
X208655000Y-104460000D01*
X208655000Y-103785000D01*
X208638890Y-103785000D01*
X208460194Y-103820545D01*
X208460182Y-103820548D01*
X208291854Y-103890271D01*
X208291841Y-103890278D01*
X208140347Y-103991504D01*
X208140343Y-103991507D01*
X208011507Y-104120343D01*
X208011504Y-104120347D01*
X207910278Y-104271841D01*
X207910271Y-104271854D01*
X207840548Y-104440182D01*
X207840545Y-104440194D01*
X207836606Y-104460000D01*
X177500500Y-104460000D01*
X177500500Y-99423920D01*
X201499499Y-99423920D01*
X201528340Y-99568907D01*
X201528343Y-99568917D01*
X201584912Y-99705488D01*
X201584919Y-99705501D01*
X201667048Y-99828415D01*
X201667051Y-99828419D01*
X201771580Y-99932948D01*
X201771584Y-99932951D01*
X201867286Y-99996898D01*
X201912091Y-100050511D01*
X201920798Y-100119836D01*
X201890643Y-100182863D01*
X201867286Y-100203102D01*
X201771584Y-100267048D01*
X201771580Y-100267051D01*
X201667051Y-100371580D01*
X201667048Y-100371584D01*
X201584919Y-100494498D01*
X201584912Y-100494511D01*
X201528343Y-100631082D01*
X201528340Y-100631092D01*
X201499500Y-100776079D01*
X201499500Y-100776082D01*
X201499500Y-100923918D01*
X201499500Y-100923920D01*
X201499499Y-100923920D01*
X201528340Y-101068907D01*
X201528343Y-101068917D01*
X201584912Y-101205488D01*
X201584919Y-101205501D01*
X201667048Y-101328415D01*
X201667051Y-101328419D01*
X201771580Y-101432948D01*
X201771584Y-101432951D01*
X201867286Y-101496898D01*
X201912091Y-101550511D01*
X201920798Y-101619836D01*
X201890643Y-101682863D01*
X201867286Y-101703102D01*
X201771584Y-101767048D01*
X201771580Y-101767051D01*
X201667051Y-101871580D01*
X201667048Y-101871584D01*
X201584919Y-101994498D01*
X201584912Y-101994511D01*
X201528343Y-102131082D01*
X201528340Y-102131092D01*
X201499500Y-102276079D01*
X201499500Y-102276082D01*
X201499500Y-102423918D01*
X201499500Y-102423920D01*
X201499499Y-102423920D01*
X201528340Y-102568907D01*
X201528343Y-102568917D01*
X201584912Y-102705488D01*
X201584919Y-102705501D01*
X201667048Y-102828415D01*
X201667051Y-102828419D01*
X201771580Y-102932948D01*
X201771584Y-102932951D01*
X201894498Y-103015080D01*
X201894511Y-103015087D01*
X202031082Y-103071656D01*
X202031087Y-103071658D01*
X202031091Y-103071658D01*
X202031092Y-103071659D01*
X202176079Y-103100500D01*
X202176082Y-103100500D01*
X202323920Y-103100500D01*
X202421462Y-103081096D01*
X202468913Y-103071658D01*
X202605495Y-103015084D01*
X202728416Y-102932951D01*
X202832951Y-102828416D01*
X202915084Y-102705495D01*
X202971658Y-102568913D01*
X202988051Y-102486502D01*
X203000500Y-102423920D01*
X203000500Y-102276079D01*
X202971659Y-102131092D01*
X202971658Y-102131091D01*
X202971658Y-102131087D01*
X202950699Y-102080488D01*
X202915087Y-101994511D01*
X202915080Y-101994498D01*
X202832951Y-101871584D01*
X202832948Y-101871580D01*
X202728419Y-101767051D01*
X202728415Y-101767048D01*
X202632713Y-101703102D01*
X202587908Y-101649490D01*
X202579201Y-101580165D01*
X202609355Y-101517138D01*
X202632713Y-101496898D01*
X202670965Y-101471338D01*
X202728416Y-101432951D01*
X202832951Y-101328416D01*
X202915084Y-101205495D01*
X202971658Y-101068913D01*
X203000500Y-100923918D01*
X203000500Y-100776082D01*
X203000500Y-100776079D01*
X202971659Y-100631092D01*
X202971658Y-100631091D01*
X202971658Y-100631087D01*
X202971656Y-100631082D01*
X202915087Y-100494511D01*
X202915080Y-100494498D01*
X202832951Y-100371584D01*
X202832948Y-100371580D01*
X202728419Y-100267051D01*
X202728415Y-100267048D01*
X202632713Y-100203102D01*
X202587908Y-100149490D01*
X202579201Y-100080165D01*
X202609355Y-100017138D01*
X202632713Y-99996898D01*
X202670965Y-99971338D01*
X202704516Y-99948920D01*
X207749499Y-99948920D01*
X207778340Y-100093907D01*
X207778343Y-100093917D01*
X207834914Y-100230492D01*
X207834915Y-100230493D01*
X207834916Y-100230495D01*
X207859340Y-100267049D01*
X207860383Y-100268609D01*
X207881261Y-100335287D01*
X207862776Y-100402667D01*
X207860383Y-100406391D01*
X207834914Y-100444507D01*
X207778343Y-100581082D01*
X207778340Y-100581092D01*
X207749500Y-100726079D01*
X207749500Y-100726082D01*
X207749500Y-100873918D01*
X207749500Y-100873920D01*
X207749499Y-100873920D01*
X207778340Y-101018907D01*
X207778343Y-101018917D01*
X207834914Y-101155492D01*
X207860383Y-101193609D01*
X207881261Y-101260287D01*
X207862776Y-101327667D01*
X207860383Y-101331391D01*
X207834914Y-101369507D01*
X207778343Y-101506082D01*
X207778340Y-101506092D01*
X207749500Y-101651079D01*
X207749500Y-101651082D01*
X207749500Y-101798918D01*
X207749500Y-101798920D01*
X207749499Y-101798920D01*
X207778340Y-101943907D01*
X207778343Y-101943917D01*
X207834912Y-102080488D01*
X207834919Y-102080501D01*
X207917048Y-102203415D01*
X207917051Y-102203419D01*
X208021580Y-102307948D01*
X208021584Y-102307951D01*
X208144498Y-102390080D01*
X208144511Y-102390087D01*
X208226192Y-102423920D01*
X208281087Y-102446658D01*
X208281091Y-102446658D01*
X208281092Y-102446659D01*
X208426079Y-102475500D01*
X208426082Y-102475500D01*
X208573920Y-102475500D01*
X208673261Y-102455739D01*
X208718913Y-102446658D01*
X208855495Y-102390084D01*
X208978416Y-102307951D01*
X209082951Y-102203416D01*
X209165084Y-102080495D01*
X209221658Y-101943913D01*
X209231096Y-101896462D01*
X209250500Y-101798920D01*
X209250500Y-101651079D01*
X209221659Y-101506092D01*
X209221658Y-101506091D01*
X209221658Y-101506087D01*
X209186741Y-101421789D01*
X209165086Y-101369509D01*
X209165084Y-101369506D01*
X209165084Y-101369505D01*
X209139616Y-101331390D01*
X209118738Y-101264715D01*
X209137222Y-101197334D01*
X209139604Y-101193628D01*
X209165084Y-101155495D01*
X209221658Y-101018913D01*
X209249520Y-100878846D01*
X209250500Y-100873920D01*
X209250500Y-100726079D01*
X209249520Y-100721153D01*
X209899500Y-100721153D01*
X209899500Y-100878846D01*
X209930261Y-101033489D01*
X209930264Y-101033501D01*
X209990602Y-101179172D01*
X209990609Y-101179185D01*
X210078210Y-101310288D01*
X210078213Y-101310292D01*
X210189707Y-101421786D01*
X210189711Y-101421789D01*
X210320814Y-101509390D01*
X210320827Y-101509397D01*
X210466498Y-101569735D01*
X210466503Y-101569737D01*
X210618644Y-101600000D01*
X210621153Y-101600499D01*
X210621156Y-101600500D01*
X210621158Y-101600500D01*
X210778844Y-101600500D01*
X210778845Y-101600499D01*
X210933497Y-101569737D01*
X211079179Y-101509394D01*
X211210289Y-101421789D01*
X211321789Y-101310289D01*
X211409394Y-101179179D01*
X211469737Y-101033497D01*
X211500500Y-100878842D01*
X211500500Y-100721158D01*
X211500500Y-100721155D01*
X211500499Y-100721153D01*
X211469737Y-100566503D01*
X211419205Y-100444506D01*
X211409397Y-100420827D01*
X211409390Y-100420814D01*
X211321789Y-100289711D01*
X211321786Y-100289707D01*
X211210292Y-100178213D01*
X211210288Y-100178210D01*
X211079185Y-100090609D01*
X211079172Y-100090602D01*
X210933501Y-100030264D01*
X210933489Y-100030261D01*
X210778845Y-99999500D01*
X210778842Y-99999500D01*
X210621158Y-99999500D01*
X210621155Y-99999500D01*
X210466510Y-100030261D01*
X210466498Y-100030264D01*
X210320827Y-100090602D01*
X210320814Y-100090609D01*
X210189711Y-100178210D01*
X210189707Y-100178213D01*
X210078213Y-100289707D01*
X210078210Y-100289711D01*
X209990609Y-100420814D01*
X209990602Y-100420827D01*
X209930264Y-100566498D01*
X209930261Y-100566510D01*
X209899500Y-100721153D01*
X209249520Y-100721153D01*
X209221659Y-100581092D01*
X209221658Y-100581091D01*
X209221658Y-100581087D01*
X209165084Y-100444505D01*
X209139616Y-100406390D01*
X209118738Y-100339715D01*
X209137222Y-100272334D01*
X209139604Y-100268628D01*
X209165084Y-100230495D01*
X209221658Y-100093913D01*
X209234319Y-100030263D01*
X209250500Y-99948920D01*
X209250500Y-99801079D01*
X209221659Y-99656092D01*
X209221658Y-99656091D01*
X209221658Y-99656087D01*
X209185551Y-99568917D01*
X209165087Y-99519511D01*
X209165080Y-99519498D01*
X209082951Y-99396584D01*
X209082948Y-99396580D01*
X208978419Y-99292051D01*
X208978415Y-99292048D01*
X208855501Y-99209919D01*
X208855488Y-99209912D01*
X208718917Y-99153343D01*
X208718907Y-99153340D01*
X208573920Y-99124500D01*
X208573918Y-99124500D01*
X208426082Y-99124500D01*
X208426080Y-99124500D01*
X208281092Y-99153340D01*
X208281082Y-99153343D01*
X208144511Y-99209912D01*
X208144498Y-99209919D01*
X208021584Y-99292048D01*
X208021580Y-99292051D01*
X207917051Y-99396580D01*
X207917048Y-99396584D01*
X207834919Y-99519498D01*
X207834912Y-99519511D01*
X207778343Y-99656082D01*
X207778340Y-99656092D01*
X207749500Y-99801079D01*
X207749500Y-99801082D01*
X207749500Y-99948918D01*
X207749500Y-99948920D01*
X207749499Y-99948920D01*
X202704516Y-99948920D01*
X202728416Y-99932951D01*
X202832951Y-99828416D01*
X202872714Y-99768907D01*
X202901317Y-99726100D01*
X202901317Y-99726099D01*
X202901318Y-99726098D01*
X202915079Y-99705502D01*
X202915080Y-99705501D01*
X202915084Y-99705495D01*
X202971658Y-99568913D01*
X202981486Y-99519505D01*
X203000500Y-99423920D01*
X203000500Y-99276079D01*
X202971659Y-99131092D01*
X202971658Y-99131091D01*
X202971658Y-99131087D01*
X202947011Y-99071584D01*
X202915087Y-98994511D01*
X202915080Y-98994498D01*
X202832951Y-98871584D01*
X202832948Y-98871580D01*
X202728419Y-98767051D01*
X202728415Y-98767048D01*
X202605501Y-98684919D01*
X202605488Y-98684912D01*
X202468917Y-98628343D01*
X202468907Y-98628340D01*
X202323920Y-98599500D01*
X202323918Y-98599500D01*
X202176082Y-98599500D01*
X202176080Y-98599500D01*
X202031092Y-98628340D01*
X202031082Y-98628343D01*
X201894511Y-98684912D01*
X201894498Y-98684919D01*
X201771584Y-98767048D01*
X201771580Y-98767051D01*
X201667051Y-98871580D01*
X201667048Y-98871584D01*
X201584919Y-98994498D01*
X201584912Y-98994511D01*
X201528343Y-99131082D01*
X201528340Y-99131092D01*
X201499500Y-99276079D01*
X201499500Y-99276082D01*
X201499500Y-99423918D01*
X201499500Y-99423920D01*
X201499499Y-99423920D01*
X177500500Y-99423920D01*
X177500500Y-98021153D01*
X216299500Y-98021153D01*
X216299500Y-98178846D01*
X216330261Y-98333489D01*
X216330264Y-98333501D01*
X216390602Y-98479172D01*
X216390609Y-98479185D01*
X216478210Y-98610288D01*
X216478213Y-98610292D01*
X216589707Y-98721786D01*
X216589711Y-98721789D01*
X216720814Y-98809390D01*
X216720827Y-98809397D01*
X216767451Y-98828709D01*
X216821855Y-98872549D01*
X216843920Y-98938843D01*
X216826641Y-99006543D01*
X216807681Y-99030950D01*
X216767052Y-99071579D01*
X216767048Y-99071584D01*
X216684919Y-99194498D01*
X216684912Y-99194511D01*
X216628343Y-99331082D01*
X216628340Y-99331092D01*
X216599500Y-99476079D01*
X216599500Y-99476082D01*
X216599500Y-99623918D01*
X216599500Y-99623920D01*
X216599499Y-99623920D01*
X216628340Y-99768907D01*
X216628343Y-99768917D01*
X216684912Y-99905488D01*
X216684919Y-99905501D01*
X216767048Y-100028415D01*
X216767051Y-100028419D01*
X216871580Y-100132948D01*
X216871584Y-100132951D01*
X216994498Y-100215080D01*
X216994511Y-100215087D01*
X217123726Y-100268609D01*
X217131087Y-100271658D01*
X217131091Y-100271658D01*
X217131092Y-100271659D01*
X217276079Y-100300500D01*
X217276082Y-100300500D01*
X217423920Y-100300500D01*
X217521462Y-100281096D01*
X217568913Y-100271658D01*
X217705495Y-100215084D01*
X217828416Y-100132951D01*
X217932951Y-100028416D01*
X218015084Y-99905495D01*
X218071658Y-99768913D01*
X218100500Y-99623918D01*
X218100500Y-99476082D01*
X218100500Y-99476079D01*
X218071659Y-99331092D01*
X218071658Y-99331091D01*
X218071658Y-99331087D01*
X218021469Y-99209919D01*
X218015087Y-99194511D01*
X218015080Y-99194498D01*
X217932951Y-99071584D01*
X217932948Y-99071580D01*
X217828419Y-98967051D01*
X217828415Y-98967048D01*
X217705501Y-98884919D01*
X217705491Y-98884914D01*
X217694281Y-98880271D01*
X217639876Y-98836431D01*
X217617810Y-98770138D01*
X217635088Y-98702438D01*
X217654046Y-98678031D01*
X217721789Y-98610289D01*
X217809394Y-98479179D01*
X217869737Y-98333497D01*
X217900500Y-98178842D01*
X217900500Y-98021158D01*
X217900500Y-98021155D01*
X217900499Y-98021153D01*
X217869738Y-97866510D01*
X217869737Y-97866503D01*
X217869735Y-97866498D01*
X217809397Y-97720827D01*
X217809390Y-97720814D01*
X217721789Y-97589711D01*
X217721786Y-97589707D01*
X217610292Y-97478213D01*
X217610288Y-97478210D01*
X217479185Y-97390609D01*
X217479172Y-97390602D01*
X217333501Y-97330264D01*
X217333489Y-97330261D01*
X217178845Y-97299500D01*
X217178842Y-97299500D01*
X217021158Y-97299500D01*
X217021155Y-97299500D01*
X216866510Y-97330261D01*
X216866498Y-97330264D01*
X216720827Y-97390602D01*
X216720814Y-97390609D01*
X216589711Y-97478210D01*
X216589707Y-97478213D01*
X216478213Y-97589707D01*
X216478210Y-97589711D01*
X216390609Y-97720814D01*
X216390602Y-97720827D01*
X216330264Y-97866498D01*
X216330261Y-97866510D01*
X216299500Y-98021153D01*
X177500500Y-98021153D01*
X177500500Y-95773920D01*
X188849499Y-95773920D01*
X188878340Y-95918907D01*
X188878343Y-95918917D01*
X188934912Y-96055488D01*
X188934919Y-96055501D01*
X189017048Y-96178415D01*
X189017051Y-96178419D01*
X189121580Y-96282948D01*
X189121584Y-96282951D01*
X189244498Y-96365080D01*
X189244511Y-96365087D01*
X189381082Y-96421656D01*
X189381087Y-96421658D01*
X189381091Y-96421658D01*
X189381092Y-96421659D01*
X189526079Y-96450500D01*
X189526082Y-96450500D01*
X189673920Y-96450500D01*
X189771462Y-96431096D01*
X189818913Y-96421658D01*
X189955495Y-96365084D01*
X190078416Y-96282951D01*
X190182951Y-96178416D01*
X190265084Y-96055495D01*
X190321658Y-95918913D01*
X190350500Y-95773918D01*
X190350500Y-95626082D01*
X190350500Y-95626079D01*
X190321659Y-95481092D01*
X190321658Y-95481091D01*
X190321658Y-95481087D01*
X190295699Y-95418416D01*
X190265087Y-95344511D01*
X190265080Y-95344498D01*
X190182951Y-95221584D01*
X190182948Y-95221580D01*
X190078419Y-95117051D01*
X190078415Y-95117048D01*
X189955501Y-95034919D01*
X189955488Y-95034912D01*
X189904808Y-95013920D01*
X218649499Y-95013920D01*
X218678340Y-95158907D01*
X218678343Y-95158917D01*
X218734912Y-95295488D01*
X218734919Y-95295501D01*
X218817048Y-95418415D01*
X218817051Y-95418419D01*
X218921580Y-95522948D01*
X218921584Y-95522951D01*
X219044498Y-95605080D01*
X219044511Y-95605087D01*
X219181082Y-95661656D01*
X219181087Y-95661658D01*
X219181091Y-95661658D01*
X219181092Y-95661659D01*
X219326079Y-95690500D01*
X219326082Y-95690500D01*
X219473920Y-95690500D01*
X219571462Y-95671096D01*
X219618913Y-95661658D01*
X219755495Y-95605084D01*
X219878416Y-95522951D01*
X219982951Y-95418416D01*
X220065084Y-95295495D01*
X220121658Y-95158913D01*
X220150500Y-95013918D01*
X220150500Y-94866082D01*
X220150500Y-94866079D01*
X220121659Y-94721092D01*
X220121658Y-94721091D01*
X220121658Y-94721087D01*
X220121656Y-94721082D01*
X220065087Y-94584511D01*
X220065080Y-94584498D01*
X219982951Y-94461584D01*
X219982948Y-94461580D01*
X219878419Y-94357051D01*
X219878415Y-94357048D01*
X219755501Y-94274919D01*
X219755488Y-94274912D01*
X219618917Y-94218343D01*
X219618907Y-94218340D01*
X219473920Y-94189500D01*
X219473918Y-94189500D01*
X219326082Y-94189500D01*
X219326080Y-94189500D01*
X219181092Y-94218340D01*
X219181082Y-94218343D01*
X219044511Y-94274912D01*
X219044498Y-94274919D01*
X218921584Y-94357048D01*
X218921580Y-94357051D01*
X218817051Y-94461580D01*
X218817048Y-94461584D01*
X218734919Y-94584498D01*
X218734912Y-94584511D01*
X218678343Y-94721082D01*
X218678340Y-94721092D01*
X218649500Y-94866079D01*
X218649500Y-94866082D01*
X218649500Y-95013918D01*
X218649500Y-95013920D01*
X218649499Y-95013920D01*
X189904808Y-95013920D01*
X189818914Y-94978342D01*
X189818910Y-94978341D01*
X189673920Y-94949500D01*
X189673918Y-94949500D01*
X189526082Y-94949500D01*
X189526080Y-94949500D01*
X189381092Y-94978340D01*
X189381082Y-94978343D01*
X189244511Y-95034912D01*
X189244498Y-95034919D01*
X189121584Y-95117048D01*
X189121580Y-95117051D01*
X189017051Y-95221580D01*
X189017048Y-95221584D01*
X188934919Y-95344498D01*
X188934912Y-95344511D01*
X188878343Y-95481082D01*
X188878340Y-95481092D01*
X188849500Y-95626079D01*
X188849500Y-95626082D01*
X188849500Y-95773918D01*
X188849500Y-95773920D01*
X188849499Y-95773920D01*
X177500500Y-95773920D01*
X177500500Y-90221153D01*
X185000000Y-90221153D01*
X185000000Y-94500000D01*
X188000000Y-94500000D01*
X188000000Y-92121153D01*
X199199500Y-92121153D01*
X199199500Y-92278846D01*
X199230261Y-92433489D01*
X199230264Y-92433501D01*
X199290602Y-92579172D01*
X199290609Y-92579185D01*
X199378210Y-92710288D01*
X199378213Y-92710292D01*
X199489707Y-92821786D01*
X199489711Y-92821789D01*
X199620814Y-92909390D01*
X199620827Y-92909397D01*
X199766498Y-92969735D01*
X199766503Y-92969737D01*
X199921153Y-93000499D01*
X199921156Y-93000500D01*
X199921158Y-93000500D01*
X200078844Y-93000500D01*
X200078845Y-93000499D01*
X200233497Y-92969737D01*
X200379179Y-92909394D01*
X200510289Y-92821789D01*
X200621789Y-92710289D01*
X200709394Y-92579179D01*
X200769737Y-92433497D01*
X200800500Y-92278842D01*
X200800500Y-92121158D01*
X200800500Y-92121155D01*
X200800499Y-92121153D01*
X200789345Y-92065080D01*
X200769737Y-91966503D01*
X200733252Y-91878419D01*
X200709397Y-91820827D01*
X200709390Y-91820814D01*
X200621789Y-91689711D01*
X200621786Y-91689707D01*
X200510292Y-91578213D01*
X200510288Y-91578210D01*
X200379185Y-91490609D01*
X200379172Y-91490602D01*
X200338897Y-91473920D01*
X208299499Y-91473920D01*
X208328340Y-91618907D01*
X208328343Y-91618917D01*
X208384912Y-91755488D01*
X208384919Y-91755501D01*
X208467048Y-91878415D01*
X208467051Y-91878419D01*
X208571580Y-91982948D01*
X208571584Y-91982951D01*
X208694498Y-92065080D01*
X208694510Y-92065087D01*
X208753950Y-92089707D01*
X208782755Y-92101638D01*
X208837159Y-92145478D01*
X208859224Y-92211772D01*
X208849865Y-92263650D01*
X208807263Y-92366503D01*
X208807261Y-92366510D01*
X208776500Y-92521153D01*
X208776500Y-92678846D01*
X208807261Y-92833489D01*
X208807264Y-92833501D01*
X208867602Y-92979171D01*
X208867612Y-92979189D01*
X208871914Y-92985628D01*
X208892789Y-93052306D01*
X208874302Y-93119686D01*
X208871916Y-93123398D01*
X208866170Y-93131998D01*
X208866164Y-93132008D01*
X208809592Y-93268586D01*
X208809590Y-93268592D01*
X208780750Y-93413579D01*
X208780750Y-93413582D01*
X208780750Y-93561418D01*
X208780750Y-93561420D01*
X208780749Y-93561420D01*
X208809590Y-93706407D01*
X208809593Y-93706417D01*
X208866162Y-93842988D01*
X208866169Y-93843001D01*
X208948298Y-93965915D01*
X208948301Y-93965919D01*
X209052830Y-94070448D01*
X209052834Y-94070451D01*
X209175748Y-94152580D01*
X209175761Y-94152587D01*
X209264878Y-94189500D01*
X209312337Y-94209158D01*
X209312341Y-94209158D01*
X209312342Y-94209159D01*
X209457329Y-94238000D01*
X209457332Y-94238000D01*
X209605170Y-94238000D01*
X209704003Y-94218340D01*
X209750163Y-94209158D01*
X209886745Y-94152584D01*
X210009666Y-94070451D01*
X210114201Y-93965916D01*
X210196334Y-93842995D01*
X210252908Y-93706413D01*
X210281750Y-93561418D01*
X210281750Y-93413582D01*
X210281750Y-93413579D01*
X210252909Y-93268592D01*
X210252908Y-93268591D01*
X210252908Y-93268587D01*
X210217083Y-93182099D01*
X210209615Y-93112633D01*
X210228544Y-93065757D01*
X210236057Y-93054514D01*
X210272148Y-93000500D01*
X210286389Y-92979187D01*
X210286390Y-92979184D01*
X210286394Y-92979179D01*
X210346737Y-92833497D01*
X210377500Y-92678842D01*
X210377500Y-92521158D01*
X210377500Y-92521155D01*
X210377499Y-92521153D01*
X210346738Y-92366510D01*
X210346737Y-92366503D01*
X210310427Y-92278842D01*
X210286397Y-92220827D01*
X210286390Y-92220814D01*
X210198789Y-92089711D01*
X210198786Y-92089707D01*
X210087292Y-91978213D01*
X210087288Y-91978210D01*
X209956185Y-91890609D01*
X209956176Y-91890604D01*
X209817183Y-91833032D01*
X209762780Y-91789191D01*
X209740715Y-91722897D01*
X209750075Y-91671018D01*
X209771658Y-91618913D01*
X209781096Y-91571462D01*
X209800500Y-91473920D01*
X209800500Y-91326079D01*
X209779688Y-91221457D01*
X210774499Y-91221457D01*
X210802379Y-91361614D01*
X210802381Y-91361620D01*
X210857069Y-91493650D01*
X210857074Y-91493659D01*
X210936467Y-91612478D01*
X210936470Y-91612482D01*
X211037517Y-91713529D01*
X211037521Y-91713532D01*
X211156340Y-91792925D01*
X211156346Y-91792928D01*
X211156347Y-91792929D01*
X211288380Y-91847619D01*
X211288384Y-91847619D01*
X211288385Y-91847620D01*
X211428542Y-91875500D01*
X211428545Y-91875500D01*
X211571457Y-91875500D01*
X211665751Y-91856742D01*
X211711620Y-91847619D01*
X211843653Y-91792929D01*
X211962479Y-91713532D01*
X212063532Y-91612479D01*
X212142929Y-91493653D01*
X212197619Y-91361620D01*
X212225500Y-91221455D01*
X212225500Y-91078545D01*
X212225500Y-91078542D01*
X212197620Y-90938385D01*
X212197619Y-90938384D01*
X212197619Y-90938380D01*
X212144562Y-90810289D01*
X212142930Y-90806349D01*
X212142925Y-90806340D01*
X212109494Y-90756307D01*
X238324499Y-90756307D01*
X238356222Y-90915783D01*
X238356225Y-90915793D01*
X238418450Y-91066019D01*
X238418452Y-91066023D01*
X238508788Y-91201220D01*
X238508794Y-91201228D01*
X238623771Y-91316205D01*
X238623779Y-91316211D01*
X238758976Y-91406547D01*
X238758980Y-91406549D01*
X238826584Y-91434551D01*
X238909211Y-91468776D01*
X238909215Y-91468776D01*
X238909216Y-91468777D01*
X239068692Y-91500500D01*
X239068695Y-91500500D01*
X239231307Y-91500500D01*
X239338598Y-91479157D01*
X239390789Y-91468776D01*
X239541021Y-91406548D01*
X239541023Y-91406547D01*
X239661452Y-91326079D01*
X239676225Y-91316208D01*
X239791208Y-91201225D01*
X239858511Y-91100499D01*
X239881547Y-91066023D01*
X239881549Y-91066019D01*
X239934416Y-90938385D01*
X239943776Y-90915789D01*
X239964762Y-90810288D01*
X239975500Y-90756307D01*
X239975500Y-90593700D01*
X239975500Y-90593695D01*
X239974834Y-90590350D01*
X259074500Y-90590350D01*
X259074500Y-90759649D01*
X259100981Y-90926847D01*
X259153296Y-91087853D01*
X259230152Y-91238688D01*
X259329648Y-91375634D01*
X259329652Y-91375639D01*
X259449360Y-91495347D01*
X259449365Y-91495351D01*
X259563412Y-91578210D01*
X259586315Y-91594850D01*
X259682425Y-91643820D01*
X259737146Y-91671703D01*
X259737148Y-91671703D01*
X259737151Y-91671705D01*
X259823450Y-91699745D01*
X259898152Y-91724018D01*
X260065351Y-91750500D01*
X260065356Y-91750500D01*
X260234649Y-91750500D01*
X260401847Y-91724018D01*
X260434119Y-91713532D01*
X260562849Y-91671705D01*
X260713685Y-91594850D01*
X260850641Y-91495346D01*
X260970346Y-91375641D01*
X261069850Y-91238685D01*
X261146705Y-91087849D01*
X261199018Y-90926847D01*
X261216408Y-90817051D01*
X261225500Y-90759649D01*
X261225500Y-90590350D01*
X261199018Y-90423152D01*
X261154223Y-90285289D01*
X261146705Y-90262151D01*
X261146703Y-90262148D01*
X261146703Y-90262146D01*
X261091690Y-90154179D01*
X261069850Y-90111315D01*
X261057137Y-90093817D01*
X260970351Y-89974365D01*
X260970347Y-89974360D01*
X260850639Y-89854652D01*
X260850634Y-89854648D01*
X260713688Y-89755152D01*
X260713687Y-89755151D01*
X260713685Y-89755150D01*
X260666582Y-89731150D01*
X260562853Y-89678296D01*
X260401847Y-89625981D01*
X260234649Y-89599500D01*
X260234644Y-89599500D01*
X260065356Y-89599500D01*
X260065351Y-89599500D01*
X259898152Y-89625981D01*
X259737146Y-89678296D01*
X259586311Y-89755152D01*
X259449365Y-89854648D01*
X259449360Y-89854652D01*
X259329652Y-89974360D01*
X259329648Y-89974365D01*
X259230152Y-90111311D01*
X259153296Y-90262146D01*
X259100981Y-90423152D01*
X259074500Y-90590350D01*
X239974834Y-90590350D01*
X239974062Y-90586468D01*
X239943777Y-90434216D01*
X239943776Y-90434215D01*
X239943776Y-90434211D01*
X239939195Y-90423152D01*
X239881549Y-90283980D01*
X239881547Y-90283976D01*
X239791211Y-90148779D01*
X239791205Y-90148771D01*
X239676228Y-90033794D01*
X239676220Y-90033788D01*
X239541023Y-89943452D01*
X239541019Y-89943450D01*
X239390793Y-89881225D01*
X239390783Y-89881222D01*
X239231307Y-89849500D01*
X239231305Y-89849500D01*
X239068695Y-89849500D01*
X239068693Y-89849500D01*
X238909216Y-89881222D01*
X238909206Y-89881225D01*
X238758980Y-89943450D01*
X238758976Y-89943452D01*
X238623779Y-90033788D01*
X238623771Y-90033794D01*
X238508794Y-90148771D01*
X238508788Y-90148779D01*
X238418452Y-90283976D01*
X238418450Y-90283980D01*
X238356225Y-90434206D01*
X238356222Y-90434216D01*
X238324500Y-90593692D01*
X238324500Y-90593695D01*
X238324500Y-90756305D01*
X238324500Y-90756307D01*
X238324499Y-90756307D01*
X212109494Y-90756307D01*
X212063532Y-90687521D01*
X212063529Y-90687517D01*
X211962482Y-90586470D01*
X211962478Y-90586467D01*
X211843659Y-90507074D01*
X211843650Y-90507069D01*
X211711620Y-90452381D01*
X211711614Y-90452379D01*
X211571457Y-90424500D01*
X211571455Y-90424500D01*
X211428545Y-90424500D01*
X211428543Y-90424500D01*
X211288385Y-90452379D01*
X211288379Y-90452381D01*
X211156349Y-90507069D01*
X211156340Y-90507074D01*
X211037521Y-90586467D01*
X211037517Y-90586470D01*
X210936470Y-90687517D01*
X210936467Y-90687521D01*
X210857074Y-90806340D01*
X210857069Y-90806349D01*
X210802381Y-90938379D01*
X210802379Y-90938385D01*
X210774500Y-91078542D01*
X210774500Y-91078545D01*
X210774500Y-91221455D01*
X210774500Y-91221457D01*
X210774499Y-91221457D01*
X209779688Y-91221457D01*
X209771659Y-91181092D01*
X209771658Y-91181091D01*
X209771658Y-91181087D01*
X209738278Y-91100500D01*
X209715087Y-91044511D01*
X209715080Y-91044498D01*
X209632951Y-90921584D01*
X209632948Y-90921580D01*
X209528419Y-90817051D01*
X209528415Y-90817048D01*
X209405501Y-90734919D01*
X209405488Y-90734912D01*
X209268917Y-90678343D01*
X209268907Y-90678340D01*
X209123920Y-90649500D01*
X209123918Y-90649500D01*
X208976082Y-90649500D01*
X208976080Y-90649500D01*
X208831092Y-90678340D01*
X208831082Y-90678343D01*
X208694511Y-90734912D01*
X208694498Y-90734919D01*
X208571584Y-90817048D01*
X208571580Y-90817051D01*
X208467051Y-90921580D01*
X208467048Y-90921584D01*
X208384919Y-91044498D01*
X208384912Y-91044511D01*
X208328343Y-91181082D01*
X208328340Y-91181092D01*
X208299500Y-91326079D01*
X208299500Y-91326082D01*
X208299500Y-91473918D01*
X208299500Y-91473920D01*
X208299499Y-91473920D01*
X200338897Y-91473920D01*
X200243850Y-91434551D01*
X200233501Y-91430264D01*
X200233489Y-91430261D01*
X200078845Y-91399500D01*
X200078842Y-91399500D01*
X199921158Y-91399500D01*
X199921155Y-91399500D01*
X199766510Y-91430261D01*
X199766498Y-91430264D01*
X199620827Y-91490602D01*
X199620814Y-91490609D01*
X199489711Y-91578210D01*
X199489707Y-91578213D01*
X199378213Y-91689707D01*
X199378210Y-91689711D01*
X199290609Y-91820814D01*
X199290602Y-91820827D01*
X199230264Y-91966498D01*
X199230261Y-91966510D01*
X199199500Y-92121153D01*
X188000000Y-92121153D01*
X188000000Y-88500000D01*
X185000000Y-88500000D01*
X185000000Y-90221153D01*
X177500500Y-90221153D01*
X177500500Y-86456902D01*
X180499500Y-86456902D01*
X180499500Y-86693097D01*
X180536446Y-86926368D01*
X180609433Y-87150996D01*
X180671476Y-87272761D01*
X180716657Y-87361433D01*
X180855483Y-87552510D01*
X181022490Y-87719517D01*
X181213567Y-87858343D01*
X181264658Y-87884375D01*
X181424003Y-87965566D01*
X181424005Y-87965566D01*
X181424008Y-87965568D01*
X181544412Y-88004689D01*
X181648631Y-88038553D01*
X181881903Y-88075500D01*
X181881908Y-88075500D01*
X182118097Y-88075500D01*
X182351368Y-88038553D01*
X182380738Y-88029010D01*
X182575992Y-87965568D01*
X182786433Y-87858343D01*
X182977510Y-87719517D01*
X183144517Y-87552510D01*
X183283343Y-87361433D01*
X183390568Y-87150992D01*
X183463553Y-86926368D01*
X183478999Y-86828844D01*
X183500500Y-86693097D01*
X183500500Y-86671153D01*
X198949500Y-86671153D01*
X198949500Y-86828846D01*
X198980260Y-86983488D01*
X198980263Y-86983498D01*
X199020514Y-87080673D01*
X199027983Y-87150142D01*
X199020514Y-87175577D01*
X198980263Y-87272751D01*
X198980260Y-87272761D01*
X198949500Y-87427403D01*
X198949500Y-87585096D01*
X198980260Y-87739738D01*
X198980263Y-87739748D01*
X199020514Y-87836923D01*
X199027983Y-87906392D01*
X199020514Y-87931827D01*
X198980263Y-88029001D01*
X198980260Y-88029011D01*
X198949500Y-88183653D01*
X198949500Y-88341346D01*
X198980260Y-88495988D01*
X198980263Y-88495998D01*
X199020514Y-88593173D01*
X199027983Y-88662642D01*
X199020514Y-88688077D01*
X198980263Y-88785251D01*
X198980260Y-88785261D01*
X198949500Y-88939903D01*
X198949500Y-89097596D01*
X198980260Y-89252238D01*
X198980263Y-89252248D01*
X199020514Y-89349423D01*
X199027983Y-89418892D01*
X199020514Y-89444327D01*
X198980263Y-89541501D01*
X198980260Y-89541511D01*
X198949500Y-89696153D01*
X198949500Y-89853846D01*
X198980261Y-90008489D01*
X198980264Y-90008501D01*
X199040602Y-90154172D01*
X199040609Y-90154185D01*
X199128210Y-90285288D01*
X199128213Y-90285292D01*
X199239707Y-90396786D01*
X199239711Y-90396789D01*
X199370814Y-90484390D01*
X199370827Y-90484397D01*
X199516498Y-90544735D01*
X199516503Y-90544737D01*
X199671153Y-90575499D01*
X199671156Y-90575500D01*
X199671158Y-90575500D01*
X199828844Y-90575500D01*
X199828845Y-90575499D01*
X199983497Y-90544737D01*
X200129179Y-90484394D01*
X200260289Y-90396789D01*
X200371789Y-90285289D01*
X200459394Y-90154179D01*
X200519737Y-90008497D01*
X200550500Y-89853842D01*
X200550500Y-89696158D01*
X200550500Y-89696155D01*
X200550499Y-89696153D01*
X200529503Y-89590602D01*
X200519737Y-89541503D01*
X200479484Y-89444325D01*
X200472016Y-89374859D01*
X200479485Y-89349423D01*
X200519737Y-89252247D01*
X200550500Y-89097592D01*
X200550500Y-88939908D01*
X200550500Y-88939905D01*
X200550499Y-88939903D01*
X200519737Y-88785253D01*
X200479484Y-88688075D01*
X200472016Y-88618609D01*
X200479485Y-88593173D01*
X200519737Y-88495997D01*
X200550500Y-88341342D01*
X200550500Y-88183658D01*
X200550500Y-88183655D01*
X200550499Y-88183653D01*
X200528986Y-88075500D01*
X200519737Y-88029003D01*
X200479484Y-87931825D01*
X200472016Y-87862359D01*
X200479485Y-87836923D01*
X200519737Y-87739747D01*
X200550500Y-87585092D01*
X200550500Y-87427408D01*
X200550500Y-87427405D01*
X200550499Y-87427403D01*
X200538865Y-87368917D01*
X200519737Y-87272753D01*
X200499509Y-87223920D01*
X211749499Y-87223920D01*
X211778340Y-87368907D01*
X211778343Y-87368917D01*
X211834912Y-87505488D01*
X211834919Y-87505501D01*
X211917048Y-87628415D01*
X211917051Y-87628419D01*
X212021580Y-87732948D01*
X212021584Y-87732951D01*
X212144498Y-87815080D01*
X212144511Y-87815087D01*
X212258637Y-87862359D01*
X212281087Y-87871658D01*
X212281091Y-87871658D01*
X212281092Y-87871659D01*
X212426079Y-87900500D01*
X212426082Y-87900500D01*
X212573920Y-87900500D01*
X212671462Y-87881096D01*
X212718913Y-87871658D01*
X212855495Y-87815084D01*
X212978416Y-87732951D01*
X213082951Y-87628416D01*
X213165084Y-87505495D01*
X213221658Y-87368913D01*
X213240784Y-87272761D01*
X213250500Y-87223920D01*
X213250500Y-87076079D01*
X213221659Y-86931092D01*
X213221658Y-86931091D01*
X213221658Y-86931087D01*
X213219703Y-86926368D01*
X213165087Y-86794511D01*
X213165080Y-86794498D01*
X213082951Y-86671584D01*
X213082948Y-86671580D01*
X212978418Y-86567050D01*
X212960591Y-86555139D01*
X212960590Y-86555138D01*
X212855501Y-86484919D01*
X212855488Y-86484912D01*
X212787865Y-86456902D01*
X228574500Y-86456902D01*
X228574500Y-86693097D01*
X228611446Y-86926368D01*
X228684433Y-87150996D01*
X228746476Y-87272761D01*
X228791657Y-87361433D01*
X228930483Y-87552510D01*
X229097490Y-87719517D01*
X229288567Y-87858343D01*
X229339658Y-87884375D01*
X229499003Y-87965566D01*
X229499005Y-87965566D01*
X229499008Y-87965568D01*
X229619412Y-88004689D01*
X229723631Y-88038553D01*
X229956903Y-88075500D01*
X229956908Y-88075500D01*
X230193097Y-88075500D01*
X230426368Y-88038553D01*
X230455738Y-88029010D01*
X230650992Y-87965568D01*
X230861433Y-87858343D01*
X231052510Y-87719517D01*
X231219517Y-87552510D01*
X231358343Y-87361433D01*
X231465568Y-87150992D01*
X231538553Y-86926368D01*
X231553999Y-86828844D01*
X231575500Y-86693097D01*
X231575500Y-86456902D01*
X231538553Y-86223631D01*
X231465566Y-85999003D01*
X231358342Y-85788566D01*
X231219517Y-85597490D01*
X231052510Y-85430483D01*
X230861433Y-85291657D01*
X230650996Y-85184433D01*
X230426368Y-85111446D01*
X230193097Y-85074500D01*
X230193092Y-85074500D01*
X229956908Y-85074500D01*
X229956903Y-85074500D01*
X229723631Y-85111446D01*
X229499003Y-85184433D01*
X229288566Y-85291657D01*
X229179550Y-85370862D01*
X229097490Y-85430483D01*
X229097488Y-85430485D01*
X229097487Y-85430485D01*
X228930485Y-85597487D01*
X228930485Y-85597488D01*
X228930483Y-85597490D01*
X228870862Y-85679550D01*
X228791657Y-85788566D01*
X228684433Y-85999003D01*
X228611446Y-86223631D01*
X228574500Y-86456902D01*
X212787865Y-86456902D01*
X212718917Y-86428343D01*
X212718907Y-86428340D01*
X212573920Y-86399500D01*
X212573918Y-86399500D01*
X212426082Y-86399500D01*
X212426080Y-86399500D01*
X212281092Y-86428340D01*
X212281082Y-86428343D01*
X212144511Y-86484912D01*
X212144498Y-86484919D01*
X212021584Y-86567048D01*
X212021580Y-86567051D01*
X211917051Y-86671580D01*
X211917048Y-86671584D01*
X211834919Y-86794498D01*
X211834912Y-86794511D01*
X211778343Y-86931082D01*
X211778340Y-86931092D01*
X211749500Y-87076079D01*
X211749500Y-87076082D01*
X211749500Y-87223918D01*
X211749500Y-87223920D01*
X211749499Y-87223920D01*
X200499509Y-87223920D01*
X200479484Y-87175575D01*
X200476203Y-87145059D01*
X200470757Y-87114869D01*
X200472305Y-87108801D01*
X200472016Y-87106109D01*
X200479482Y-87080680D01*
X200519737Y-86983497D01*
X200550500Y-86828842D01*
X200550500Y-86671158D01*
X200550500Y-86671155D01*
X200550499Y-86671153D01*
X200519737Y-86516503D01*
X200506655Y-86484919D01*
X200459397Y-86370827D01*
X200459390Y-86370814D01*
X200371789Y-86239711D01*
X200371786Y-86239707D01*
X200260292Y-86128213D01*
X200260288Y-86128210D01*
X200129185Y-86040609D01*
X200129172Y-86040602D01*
X199983501Y-85980264D01*
X199983489Y-85980261D01*
X199828845Y-85949500D01*
X199828842Y-85949500D01*
X199671158Y-85949500D01*
X199671155Y-85949500D01*
X199516510Y-85980261D01*
X199516498Y-85980264D01*
X199370827Y-86040602D01*
X199370814Y-86040609D01*
X199239711Y-86128210D01*
X199239707Y-86128213D01*
X199128213Y-86239707D01*
X199128210Y-86239711D01*
X199040609Y-86370814D01*
X199040602Y-86370827D01*
X198980264Y-86516498D01*
X198980261Y-86516510D01*
X198949500Y-86671153D01*
X183500500Y-86671153D01*
X183500500Y-86456902D01*
X183463553Y-86223631D01*
X183390566Y-85999003D01*
X183283342Y-85788566D01*
X183144517Y-85597490D01*
X182977510Y-85430483D01*
X182786433Y-85291657D01*
X182575996Y-85184433D01*
X182351368Y-85111446D01*
X182118097Y-85074500D01*
X182118092Y-85074500D01*
X181881908Y-85074500D01*
X181881903Y-85074500D01*
X181648631Y-85111446D01*
X181424003Y-85184433D01*
X181213566Y-85291657D01*
X181104550Y-85370862D01*
X181022490Y-85430483D01*
X181022488Y-85430485D01*
X181022487Y-85430485D01*
X180855485Y-85597487D01*
X180855485Y-85597488D01*
X180855483Y-85597490D01*
X180795862Y-85679550D01*
X180716657Y-85788566D01*
X180609433Y-85999003D01*
X180536446Y-86223631D01*
X180499500Y-86456902D01*
X177500500Y-86456902D01*
X177500500Y-83121153D01*
X258199500Y-83121153D01*
X258199500Y-83278846D01*
X258230261Y-83433489D01*
X258230264Y-83433501D01*
X258290602Y-83579172D01*
X258290609Y-83579185D01*
X258378210Y-83710288D01*
X258378213Y-83710292D01*
X258489707Y-83821786D01*
X258489711Y-83821789D01*
X258620814Y-83909390D01*
X258620827Y-83909397D01*
X258766498Y-83969735D01*
X258766503Y-83969737D01*
X258921153Y-84000499D01*
X258921156Y-84000500D01*
X258921158Y-84000500D01*
X259078844Y-84000500D01*
X259078845Y-84000499D01*
X259233497Y-83969737D01*
X259379179Y-83909394D01*
X259510289Y-83821789D01*
X259621789Y-83710289D01*
X259709394Y-83579179D01*
X259769737Y-83433497D01*
X259800500Y-83278842D01*
X259800500Y-83121158D01*
X259800500Y-83121155D01*
X259800499Y-83121153D01*
X259775097Y-82993449D01*
X259769737Y-82966503D01*
X259760721Y-82944737D01*
X259709397Y-82820827D01*
X259709390Y-82820814D01*
X259621789Y-82689711D01*
X259621786Y-82689707D01*
X259510292Y-82578213D01*
X259510288Y-82578210D01*
X259379185Y-82490609D01*
X259379172Y-82490602D01*
X259233501Y-82430264D01*
X259233489Y-82430261D01*
X259078845Y-82399500D01*
X259078842Y-82399500D01*
X258921158Y-82399500D01*
X258921155Y-82399500D01*
X258766510Y-82430261D01*
X258766498Y-82430264D01*
X258620827Y-82490602D01*
X258620814Y-82490609D01*
X258489711Y-82578210D01*
X258489707Y-82578213D01*
X258378213Y-82689707D01*
X258378210Y-82689711D01*
X258290609Y-82820814D01*
X258290602Y-82820827D01*
X258230264Y-82966498D01*
X258230261Y-82966510D01*
X258199500Y-83121153D01*
X177500500Y-83121153D01*
X177500500Y-82121153D01*
X209199500Y-82121153D01*
X209199500Y-82278846D01*
X209230261Y-82433489D01*
X209230264Y-82433501D01*
X209290602Y-82579172D01*
X209290609Y-82579185D01*
X209378210Y-82710288D01*
X209378213Y-82710292D01*
X209489707Y-82821786D01*
X209489711Y-82821789D01*
X209620814Y-82909390D01*
X209620827Y-82909397D01*
X209758683Y-82966498D01*
X209766503Y-82969737D01*
X209921153Y-83000499D01*
X209921156Y-83000500D01*
X209921158Y-83000500D01*
X210078844Y-83000500D01*
X210078845Y-83000499D01*
X210089179Y-82998443D01*
X210114287Y-82993450D01*
X210114292Y-82993449D01*
X210204530Y-82975499D01*
X210233497Y-82969737D01*
X210379179Y-82909394D01*
X210510289Y-82821789D01*
X210621789Y-82710289D01*
X210709394Y-82579179D01*
X210769737Y-82433497D01*
X210800500Y-82278842D01*
X210800500Y-82121158D01*
X210800500Y-82121155D01*
X210800499Y-82121153D01*
X210799128Y-82114257D01*
X210795527Y-82096153D01*
X249549500Y-82096153D01*
X249549500Y-82253846D01*
X249580261Y-82408489D01*
X249580264Y-82408501D01*
X249640602Y-82554172D01*
X249640609Y-82554185D01*
X249728210Y-82685288D01*
X249728213Y-82685292D01*
X249839707Y-82796786D01*
X249839711Y-82796789D01*
X249970814Y-82884390D01*
X249970827Y-82884397D01*
X250116498Y-82944735D01*
X250116503Y-82944737D01*
X250225963Y-82966510D01*
X250271153Y-82975499D01*
X250271156Y-82975500D01*
X250271158Y-82975500D01*
X250428844Y-82975500D01*
X250428845Y-82975499D01*
X250583497Y-82944737D01*
X250729179Y-82884394D01*
X250860289Y-82796789D01*
X250971789Y-82685289D01*
X251059394Y-82554179D01*
X251119737Y-82408497D01*
X251150500Y-82253842D01*
X251150500Y-82096158D01*
X251150500Y-82096155D01*
X251150499Y-82096153D01*
X251119738Y-81941510D01*
X251119737Y-81941503D01*
X251082043Y-81850500D01*
X251059397Y-81795827D01*
X251059390Y-81795814D01*
X250971789Y-81664711D01*
X250971786Y-81664707D01*
X250860292Y-81553213D01*
X250860288Y-81553210D01*
X250729185Y-81465609D01*
X250729172Y-81465602D01*
X250583501Y-81405264D01*
X250583489Y-81405261D01*
X250428845Y-81374500D01*
X250428842Y-81374500D01*
X250271158Y-81374500D01*
X250271155Y-81374500D01*
X250116510Y-81405261D01*
X250116498Y-81405264D01*
X249970827Y-81465602D01*
X249970814Y-81465609D01*
X249839711Y-81553210D01*
X249839707Y-81553213D01*
X249728213Y-81664707D01*
X249728210Y-81664711D01*
X249640609Y-81795814D01*
X249640602Y-81795827D01*
X249580264Y-81941498D01*
X249580261Y-81941510D01*
X249549500Y-82096153D01*
X210795527Y-82096153D01*
X210769738Y-81966508D01*
X210769737Y-81966507D01*
X210769737Y-81966503D01*
X210759380Y-81941498D01*
X210709397Y-81820827D01*
X210709390Y-81820814D01*
X210621789Y-81689711D01*
X210621786Y-81689707D01*
X210510292Y-81578213D01*
X210510288Y-81578210D01*
X210379185Y-81490609D01*
X210379172Y-81490602D01*
X210233501Y-81430264D01*
X210233489Y-81430261D01*
X210078845Y-81399500D01*
X210078842Y-81399500D01*
X209921158Y-81399500D01*
X209921155Y-81399500D01*
X209766510Y-81430261D01*
X209766498Y-81430264D01*
X209620827Y-81490602D01*
X209620814Y-81490609D01*
X209489711Y-81578210D01*
X209489707Y-81578213D01*
X209378213Y-81689707D01*
X209378210Y-81689711D01*
X209290609Y-81820814D01*
X209290602Y-81820827D01*
X209230264Y-81966498D01*
X209230261Y-81966510D01*
X209199500Y-82121153D01*
X177500500Y-82121153D01*
X177500500Y-81173920D01*
X194549499Y-81173920D01*
X194578340Y-81318907D01*
X194578343Y-81318917D01*
X194634912Y-81455488D01*
X194634919Y-81455501D01*
X194717048Y-81578415D01*
X194717051Y-81578419D01*
X194821580Y-81682948D01*
X194821584Y-81682951D01*
X194944498Y-81765080D01*
X194944511Y-81765087D01*
X195018725Y-81795827D01*
X195081087Y-81821658D01*
X195081091Y-81821658D01*
X195081092Y-81821659D01*
X195226079Y-81850500D01*
X195226082Y-81850500D01*
X195373920Y-81850500D01*
X195471462Y-81831096D01*
X195518913Y-81821658D01*
X195655495Y-81765084D01*
X195778416Y-81682951D01*
X195882951Y-81578416D01*
X195965084Y-81455495D01*
X196021658Y-81318913D01*
X196050500Y-81173918D01*
X196050500Y-81026082D01*
X196050500Y-81026079D01*
X196021659Y-80881092D01*
X196021658Y-80881091D01*
X196021658Y-80881087D01*
X195992884Y-80811620D01*
X195965087Y-80744511D01*
X195965080Y-80744498D01*
X195916275Y-80671457D01*
X254574499Y-80671457D01*
X254602379Y-80811614D01*
X254602381Y-80811620D01*
X254657069Y-80943650D01*
X254657074Y-80943659D01*
X254736467Y-81062478D01*
X254736470Y-81062482D01*
X254837517Y-81163529D01*
X254837521Y-81163532D01*
X254956340Y-81242925D01*
X254956346Y-81242928D01*
X254956347Y-81242929D01*
X255088380Y-81297619D01*
X255088384Y-81297619D01*
X255088385Y-81297620D01*
X255228542Y-81325500D01*
X255228545Y-81325500D01*
X255371457Y-81325500D01*
X255465751Y-81306742D01*
X255511620Y-81297619D01*
X255643653Y-81242929D01*
X255762479Y-81163532D01*
X255863532Y-81062479D01*
X255894669Y-81015879D01*
X255948279Y-80971074D01*
X256017604Y-80962365D01*
X256066661Y-80981666D01*
X256158347Y-81042929D01*
X256290380Y-81097619D01*
X256290384Y-81097619D01*
X256290385Y-81097620D01*
X256430542Y-81125500D01*
X256430545Y-81125500D01*
X256573457Y-81125500D01*
X256667751Y-81106742D01*
X256713620Y-81097619D01*
X256845653Y-81042929D01*
X256964479Y-80963532D01*
X257065532Y-80862479D01*
X257144929Y-80743653D01*
X257199619Y-80611620D01*
X257227500Y-80471455D01*
X257227500Y-80328545D01*
X257227500Y-80328542D01*
X257199620Y-80188385D01*
X257199619Y-80188384D01*
X257199619Y-80188380D01*
X257144929Y-80056347D01*
X257144928Y-80056346D01*
X257144925Y-80056340D01*
X257065532Y-79937521D01*
X257065529Y-79937517D01*
X256964482Y-79836470D01*
X256964478Y-79836467D01*
X256845659Y-79757074D01*
X256845650Y-79757069D01*
X256713620Y-79702381D01*
X256713614Y-79702379D01*
X256573457Y-79674500D01*
X256573455Y-79674500D01*
X256430545Y-79674500D01*
X256430543Y-79674500D01*
X256290385Y-79702379D01*
X256290379Y-79702381D01*
X256158349Y-79757069D01*
X256158340Y-79757074D01*
X256039521Y-79836467D01*
X256039517Y-79836470D01*
X255938470Y-79937517D01*
X255938467Y-79937521D01*
X255907330Y-79984121D01*
X255853717Y-80028926D01*
X255784392Y-80037633D01*
X255735337Y-80018332D01*
X255643659Y-79957074D01*
X255643650Y-79957069D01*
X255511620Y-79902381D01*
X255511614Y-79902379D01*
X255371457Y-79874500D01*
X255371455Y-79874500D01*
X255228545Y-79874500D01*
X255228543Y-79874500D01*
X255088385Y-79902379D01*
X255088379Y-79902381D01*
X254956349Y-79957069D01*
X254956340Y-79957074D01*
X254837521Y-80036467D01*
X254837517Y-80036470D01*
X254736470Y-80137517D01*
X254736467Y-80137521D01*
X254657074Y-80256340D01*
X254657069Y-80256349D01*
X254602381Y-80388379D01*
X254602379Y-80388385D01*
X254574500Y-80528542D01*
X254574500Y-80528545D01*
X254574500Y-80671455D01*
X254574500Y-80671457D01*
X254574499Y-80671457D01*
X195916275Y-80671457D01*
X195882951Y-80621584D01*
X195882948Y-80621580D01*
X195778419Y-80517051D01*
X195778415Y-80517048D01*
X195655501Y-80434919D01*
X195655488Y-80434912D01*
X195518917Y-80378343D01*
X195518907Y-80378340D01*
X195373920Y-80349500D01*
X195373918Y-80349500D01*
X195226082Y-80349500D01*
X195226080Y-80349500D01*
X195081092Y-80378340D01*
X195081082Y-80378343D01*
X194944511Y-80434912D01*
X194944498Y-80434919D01*
X194821584Y-80517048D01*
X194821580Y-80517051D01*
X194717051Y-80621580D01*
X194717048Y-80621584D01*
X194634919Y-80744498D01*
X194634912Y-80744511D01*
X194578343Y-80881082D01*
X194578340Y-80881092D01*
X194549500Y-81026079D01*
X194549500Y-81026082D01*
X194549500Y-81173918D01*
X194549500Y-81173920D01*
X194549499Y-81173920D01*
X177500500Y-81173920D01*
X177500500Y-79421153D01*
X213599500Y-79421153D01*
X213599500Y-79578846D01*
X213630261Y-79733489D01*
X213630264Y-79733501D01*
X213690602Y-79879172D01*
X213690609Y-79879185D01*
X213778210Y-80010288D01*
X213778213Y-80010292D01*
X213889707Y-80121786D01*
X213889711Y-80121789D01*
X214020814Y-80209390D01*
X214020827Y-80209397D01*
X214155277Y-80265087D01*
X214166503Y-80269737D01*
X214321153Y-80300499D01*
X214321156Y-80300500D01*
X214321158Y-80300500D01*
X214478844Y-80300500D01*
X214478845Y-80300499D01*
X214633497Y-80269737D01*
X214779179Y-80209394D01*
X214910289Y-80121789D01*
X215021789Y-80010289D01*
X215109394Y-79879179D01*
X215169737Y-79733497D01*
X215181588Y-79673920D01*
X245549499Y-79673920D01*
X245578340Y-79818907D01*
X245578343Y-79818917D01*
X245634912Y-79955488D01*
X245634919Y-79955501D01*
X245717048Y-80078415D01*
X245717051Y-80078419D01*
X245821580Y-80182948D01*
X245821584Y-80182951D01*
X245944498Y-80265080D01*
X245944511Y-80265087D01*
X246081082Y-80321656D01*
X246081087Y-80321658D01*
X246081091Y-80321658D01*
X246081092Y-80321659D01*
X246226079Y-80350500D01*
X246226082Y-80350500D01*
X246373920Y-80350500D01*
X246471462Y-80331096D01*
X246518913Y-80321658D01*
X246644262Y-80269737D01*
X246655488Y-80265087D01*
X246655488Y-80265086D01*
X246655495Y-80265084D01*
X246778416Y-80182951D01*
X246882951Y-80078416D01*
X246965084Y-79955495D01*
X247021658Y-79818913D01*
X247038650Y-79733489D01*
X247050500Y-79673920D01*
X247050500Y-79526079D01*
X247021659Y-79381092D01*
X247021658Y-79381091D01*
X247021658Y-79381087D01*
X246974194Y-79266498D01*
X246965087Y-79244511D01*
X246965080Y-79244498D01*
X246882951Y-79121584D01*
X246882948Y-79121580D01*
X246778419Y-79017051D01*
X246778415Y-79017048D01*
X246655501Y-78934919D01*
X246655488Y-78934912D01*
X246518917Y-78878343D01*
X246518907Y-78878340D01*
X246373920Y-78849500D01*
X246373918Y-78849500D01*
X246226082Y-78849500D01*
X246226080Y-78849500D01*
X246081092Y-78878340D01*
X246081082Y-78878343D01*
X245944511Y-78934912D01*
X245944498Y-78934919D01*
X245821584Y-79017048D01*
X245821580Y-79017051D01*
X245717051Y-79121580D01*
X245717048Y-79121584D01*
X245634919Y-79244498D01*
X245634912Y-79244511D01*
X245578343Y-79381082D01*
X245578340Y-79381092D01*
X245549500Y-79526079D01*
X245549500Y-79526082D01*
X245549500Y-79673918D01*
X245549500Y-79673920D01*
X245549499Y-79673920D01*
X215181588Y-79673920D01*
X215200500Y-79578842D01*
X215200500Y-79421158D01*
X215200500Y-79421155D01*
X215200499Y-79421153D01*
X215169738Y-79266510D01*
X215169737Y-79266503D01*
X215160622Y-79244498D01*
X215109397Y-79120827D01*
X215109390Y-79120814D01*
X215021789Y-78989711D01*
X215021786Y-78989707D01*
X214910292Y-78878213D01*
X214910288Y-78878210D01*
X214779185Y-78790609D01*
X214779172Y-78790602D01*
X214633501Y-78730264D01*
X214633489Y-78730261D01*
X214478845Y-78699500D01*
X214478842Y-78699500D01*
X214321158Y-78699500D01*
X214321155Y-78699500D01*
X214166510Y-78730261D01*
X214166498Y-78730264D01*
X214020827Y-78790602D01*
X214020814Y-78790609D01*
X213889711Y-78878210D01*
X213889707Y-78878213D01*
X213778213Y-78989707D01*
X213778210Y-78989711D01*
X213690609Y-79120814D01*
X213690602Y-79120827D01*
X213630264Y-79266498D01*
X213630261Y-79266510D01*
X213599500Y-79421153D01*
X177500500Y-79421153D01*
X177500500Y-77573920D01*
X240124499Y-77573920D01*
X240153340Y-77718907D01*
X240153343Y-77718917D01*
X240209912Y-77855488D01*
X240209919Y-77855501D01*
X240292048Y-77978415D01*
X240292051Y-77978419D01*
X240396580Y-78082948D01*
X240396584Y-78082951D01*
X240519498Y-78165080D01*
X240519511Y-78165087D01*
X240656082Y-78221656D01*
X240656087Y-78221658D01*
X240656091Y-78221658D01*
X240656092Y-78221659D01*
X240801079Y-78250500D01*
X240801082Y-78250500D01*
X240948920Y-78250500D01*
X241046462Y-78231096D01*
X241093913Y-78221658D01*
X241230495Y-78165084D01*
X241353416Y-78082951D01*
X241457951Y-77978416D01*
X241540084Y-77855495D01*
X241596658Y-77718913D01*
X241624605Y-77578419D01*
X241625500Y-77573920D01*
X241625500Y-77426079D01*
X241596659Y-77281092D01*
X241596658Y-77281091D01*
X241596658Y-77281087D01*
X241595456Y-77278185D01*
X241540087Y-77144511D01*
X241540080Y-77144498D01*
X241457951Y-77021584D01*
X241457948Y-77021580D01*
X241353419Y-76917051D01*
X241353415Y-76917048D01*
X241230501Y-76834919D01*
X241230488Y-76834912D01*
X241093917Y-76778343D01*
X241093907Y-76778340D01*
X240948920Y-76749500D01*
X240948918Y-76749500D01*
X240801082Y-76749500D01*
X240801080Y-76749500D01*
X240656092Y-76778340D01*
X240656082Y-76778343D01*
X240519511Y-76834912D01*
X240519498Y-76834919D01*
X240396584Y-76917048D01*
X240396580Y-76917051D01*
X240292051Y-77021580D01*
X240292048Y-77021584D01*
X240209919Y-77144498D01*
X240209912Y-77144511D01*
X240153343Y-77281082D01*
X240153340Y-77281092D01*
X240124500Y-77426079D01*
X240124500Y-77426082D01*
X240124500Y-77573918D01*
X240124500Y-77573920D01*
X240124499Y-77573920D01*
X177500500Y-77573920D01*
X177500500Y-76873920D01*
X212849499Y-76873920D01*
X212878340Y-77018907D01*
X212878343Y-77018917D01*
X212934912Y-77155488D01*
X212934919Y-77155501D01*
X213017048Y-77278415D01*
X213017051Y-77278419D01*
X213121580Y-77382948D01*
X213121584Y-77382951D01*
X213244498Y-77465080D01*
X213244511Y-77465087D01*
X213381082Y-77521656D01*
X213381087Y-77521658D01*
X213381091Y-77521658D01*
X213381092Y-77521659D01*
X213526079Y-77550500D01*
X213526082Y-77550500D01*
X213673920Y-77550500D01*
X213771462Y-77531096D01*
X213818913Y-77521658D01*
X213955495Y-77465084D01*
X214078416Y-77382951D01*
X214078419Y-77382948D01*
X214129059Y-77332309D01*
X214182948Y-77278419D01*
X214182951Y-77278416D01*
X214265084Y-77155495D01*
X214321658Y-77018913D01*
X214349074Y-76881087D01*
X214350500Y-76873920D01*
X214350500Y-76726079D01*
X214321659Y-76581092D01*
X214321658Y-76581091D01*
X214321658Y-76581087D01*
X214316956Y-76569735D01*
X214276248Y-76471457D01*
X247774499Y-76471457D01*
X247802379Y-76611614D01*
X247802381Y-76611620D01*
X247857069Y-76743650D01*
X247857074Y-76743659D01*
X247936467Y-76862478D01*
X247936470Y-76862482D01*
X248037517Y-76963529D01*
X248037521Y-76963532D01*
X248156340Y-77042925D01*
X248156346Y-77042928D01*
X248156347Y-77042929D01*
X248288380Y-77097619D01*
X248409412Y-77121694D01*
X248471323Y-77154079D01*
X248505897Y-77214794D01*
X248504017Y-77275011D01*
X248504530Y-77275113D01*
X248503918Y-77278185D01*
X248503884Y-77279300D01*
X248503340Y-77281090D01*
X248474500Y-77426079D01*
X248474500Y-77426082D01*
X248474500Y-77573918D01*
X248474500Y-77573920D01*
X248474499Y-77573920D01*
X248503340Y-77718907D01*
X248503343Y-77718917D01*
X248559912Y-77855488D01*
X248559919Y-77855501D01*
X248642048Y-77978415D01*
X248642051Y-77978419D01*
X248746580Y-78082948D01*
X248746584Y-78082951D01*
X248869498Y-78165080D01*
X248869511Y-78165087D01*
X249006082Y-78221656D01*
X249006087Y-78221658D01*
X249006091Y-78221658D01*
X249006092Y-78221659D01*
X249151079Y-78250500D01*
X249151082Y-78250500D01*
X249298920Y-78250500D01*
X249396462Y-78231096D01*
X249443913Y-78221658D01*
X249580495Y-78165084D01*
X249703416Y-78082951D01*
X249807951Y-77978416D01*
X249890084Y-77855495D01*
X249946658Y-77718913D01*
X249974605Y-77578419D01*
X249975500Y-77573920D01*
X249975500Y-77426079D01*
X249946659Y-77281092D01*
X249946658Y-77281091D01*
X249946658Y-77281087D01*
X249945456Y-77278185D01*
X249902268Y-77173920D01*
X259949499Y-77173920D01*
X259978340Y-77318907D01*
X259978343Y-77318917D01*
X260034912Y-77455488D01*
X260034919Y-77455501D01*
X260117048Y-77578415D01*
X260117051Y-77578419D01*
X260221580Y-77682948D01*
X260221584Y-77682951D01*
X260344498Y-77765080D01*
X260344511Y-77765087D01*
X260481082Y-77821656D01*
X260481087Y-77821658D01*
X260481091Y-77821658D01*
X260481092Y-77821659D01*
X260626079Y-77850500D01*
X260626082Y-77850500D01*
X260773920Y-77850500D01*
X260871462Y-77831096D01*
X260918913Y-77821658D01*
X261055495Y-77765084D01*
X261178416Y-77682951D01*
X261282951Y-77578416D01*
X261365084Y-77455495D01*
X261421658Y-77318913D01*
X261450500Y-77173918D01*
X261450500Y-77026082D01*
X261450500Y-77026079D01*
X261421659Y-76881092D01*
X261421658Y-76881091D01*
X261421658Y-76881087D01*
X261368843Y-76753582D01*
X261361375Y-76684113D01*
X261392650Y-76621634D01*
X261452739Y-76585982D01*
X261459214Y-76584513D01*
X261476462Y-76581082D01*
X261533497Y-76569737D01*
X261660698Y-76517049D01*
X261679172Y-76509397D01*
X261679172Y-76509396D01*
X261679179Y-76509394D01*
X261810289Y-76421789D01*
X261921789Y-76310289D01*
X262009394Y-76179179D01*
X262069737Y-76033497D01*
X262100500Y-75878842D01*
X262100500Y-75721158D01*
X262100500Y-75721155D01*
X262100499Y-75721153D01*
X262075135Y-75593642D01*
X262069737Y-75566503D01*
X262009852Y-75421926D01*
X262009397Y-75420827D01*
X262009390Y-75420814D01*
X261921789Y-75289711D01*
X261921786Y-75289707D01*
X261810292Y-75178213D01*
X261810288Y-75178210D01*
X261679185Y-75090609D01*
X261679172Y-75090602D01*
X261533501Y-75030264D01*
X261533489Y-75030261D01*
X261378845Y-74999500D01*
X261378842Y-74999500D01*
X261221158Y-74999500D01*
X261221155Y-74999500D01*
X261066510Y-75030261D01*
X261066498Y-75030264D01*
X260920827Y-75090602D01*
X260920814Y-75090609D01*
X260789711Y-75178210D01*
X260789707Y-75178213D01*
X260678213Y-75289707D01*
X260678210Y-75289711D01*
X260590609Y-75420814D01*
X260590602Y-75420827D01*
X260530264Y-75566498D01*
X260530261Y-75566510D01*
X260499500Y-75721153D01*
X260499500Y-75878846D01*
X260530261Y-76033489D01*
X260530264Y-76033501D01*
X260590602Y-76179172D01*
X260590612Y-76179191D01*
X260592123Y-76181452D01*
X260592549Y-76182815D01*
X260593479Y-76184554D01*
X260593149Y-76184730D01*
X260612996Y-76248130D01*
X260594507Y-76315509D01*
X260542525Y-76362196D01*
X260513209Y-76371952D01*
X260481091Y-76378341D01*
X260481082Y-76378343D01*
X260344511Y-76434912D01*
X260344498Y-76434919D01*
X260221584Y-76517048D01*
X260221580Y-76517051D01*
X260117051Y-76621580D01*
X260117048Y-76621584D01*
X260034919Y-76744498D01*
X260034912Y-76744511D01*
X259978343Y-76881082D01*
X259978340Y-76881092D01*
X259949500Y-77026079D01*
X259949500Y-77026082D01*
X259949500Y-77173918D01*
X259949500Y-77173920D01*
X259949499Y-77173920D01*
X249902268Y-77173920D01*
X249890087Y-77144511D01*
X249890080Y-77144498D01*
X249852918Y-77088881D01*
X249807951Y-77021584D01*
X249807948Y-77021580D01*
X249703419Y-76917051D01*
X249703415Y-76917048D01*
X249580501Y-76834919D01*
X249580488Y-76834912D01*
X249443917Y-76778343D01*
X249443907Y-76778340D01*
X249296709Y-76749060D01*
X249234798Y-76716675D01*
X249200224Y-76655959D01*
X249199284Y-76603251D01*
X249225500Y-76471457D01*
X249225500Y-76328542D01*
X249197620Y-76188385D01*
X249197619Y-76188384D01*
X249197619Y-76188380D01*
X249142929Y-76056347D01*
X249142928Y-76056346D01*
X249142925Y-76056340D01*
X249063532Y-75937521D01*
X249063529Y-75937517D01*
X248962482Y-75836470D01*
X248962478Y-75836467D01*
X248843659Y-75757074D01*
X248843650Y-75757069D01*
X248711620Y-75702381D01*
X248711614Y-75702379D01*
X248571457Y-75674500D01*
X248571455Y-75674500D01*
X248428545Y-75674500D01*
X248428543Y-75674500D01*
X248288385Y-75702379D01*
X248288379Y-75702381D01*
X248156349Y-75757069D01*
X248156340Y-75757074D01*
X248037521Y-75836467D01*
X248037517Y-75836470D01*
X247936470Y-75937517D01*
X247936467Y-75937521D01*
X247857074Y-76056340D01*
X247857069Y-76056349D01*
X247802381Y-76188379D01*
X247802379Y-76188385D01*
X247774500Y-76328542D01*
X247774500Y-76328545D01*
X247774500Y-76471455D01*
X247774500Y-76471457D01*
X247774499Y-76471457D01*
X214276248Y-76471457D01*
X214265087Y-76444511D01*
X214265080Y-76444498D01*
X214182951Y-76321584D01*
X214182948Y-76321580D01*
X214078419Y-76217051D01*
X214078415Y-76217048D01*
X213955501Y-76134919D01*
X213955488Y-76134912D01*
X213818917Y-76078343D01*
X213818907Y-76078340D01*
X213673920Y-76049500D01*
X213673918Y-76049500D01*
X213526082Y-76049500D01*
X213526080Y-76049500D01*
X213381092Y-76078340D01*
X213381082Y-76078343D01*
X213244511Y-76134912D01*
X213244498Y-76134919D01*
X213121584Y-76217048D01*
X213121580Y-76217051D01*
X213017051Y-76321580D01*
X213017048Y-76321584D01*
X212934919Y-76444498D01*
X212934912Y-76444511D01*
X212878343Y-76581082D01*
X212878340Y-76581092D01*
X212849500Y-76726079D01*
X212849500Y-76726082D01*
X212849500Y-76873918D01*
X212849500Y-76873920D01*
X212849499Y-76873920D01*
X177500500Y-76873920D01*
X177500500Y-75248074D01*
X201426750Y-75248074D01*
X201426750Y-75421925D01*
X201453947Y-75593639D01*
X201453947Y-75593642D01*
X201507668Y-75758978D01*
X201568742Y-75878842D01*
X201586597Y-75913884D01*
X201688785Y-76054533D01*
X201811717Y-76177465D01*
X201952366Y-76279653D01*
X202091411Y-76350500D01*
X202107271Y-76358581D01*
X202272608Y-76412302D01*
X202272609Y-76412302D01*
X202272612Y-76412303D01*
X202444324Y-76439500D01*
X202444325Y-76439500D01*
X202618175Y-76439500D01*
X202618176Y-76439500D01*
X202789888Y-76412303D01*
X202789891Y-76412302D01*
X202789892Y-76412302D01*
X202955228Y-76358581D01*
X202955228Y-76358580D01*
X202955231Y-76358580D01*
X203110134Y-76279653D01*
X203250783Y-76177465D01*
X203373715Y-76054533D01*
X203475903Y-75913884D01*
X203554830Y-75758981D01*
X203567121Y-75721153D01*
X203582468Y-75673920D01*
X243649499Y-75673920D01*
X243678340Y-75818907D01*
X243678343Y-75818917D01*
X243734912Y-75955488D01*
X243734919Y-75955501D01*
X243817048Y-76078415D01*
X243817051Y-76078419D01*
X243921580Y-76182948D01*
X243921584Y-76182951D01*
X244044498Y-76265080D01*
X244044511Y-76265087D01*
X244153647Y-76310292D01*
X244181087Y-76321658D01*
X244181091Y-76321658D01*
X244181092Y-76321659D01*
X244326079Y-76350500D01*
X244326082Y-76350500D01*
X244473920Y-76350500D01*
X244571462Y-76331096D01*
X244618913Y-76321658D01*
X244755495Y-76265084D01*
X244780869Y-76248130D01*
X244823940Y-76219351D01*
X244870283Y-76188385D01*
X244878416Y-76182951D01*
X244982951Y-76078416D01*
X245065084Y-75955495D01*
X245121658Y-75818913D01*
X245141104Y-75721153D01*
X245150500Y-75673920D01*
X245150500Y-75526079D01*
X245121659Y-75381092D01*
X245121658Y-75381091D01*
X245121658Y-75381087D01*
X245083809Y-75289711D01*
X245065087Y-75244511D01*
X245065080Y-75244498D01*
X244982951Y-75121584D01*
X244982948Y-75121580D01*
X244878419Y-75017051D01*
X244878415Y-75017048D01*
X244755501Y-74934919D01*
X244755488Y-74934912D01*
X244618917Y-74878343D01*
X244618907Y-74878340D01*
X244473920Y-74849500D01*
X244473918Y-74849500D01*
X244326082Y-74849500D01*
X244326080Y-74849500D01*
X244181092Y-74878340D01*
X244181082Y-74878343D01*
X244044511Y-74934912D01*
X244044498Y-74934919D01*
X243921584Y-75017048D01*
X243921580Y-75017051D01*
X243817051Y-75121580D01*
X243817048Y-75121584D01*
X243734919Y-75244498D01*
X243734912Y-75244511D01*
X243678343Y-75381082D01*
X243678340Y-75381092D01*
X243649500Y-75526079D01*
X243649500Y-75526082D01*
X243649500Y-75673918D01*
X243649500Y-75673920D01*
X243649499Y-75673920D01*
X203582468Y-75673920D01*
X203608552Y-75593642D01*
X203608552Y-75593641D01*
X203608553Y-75593638D01*
X203635750Y-75421926D01*
X203635750Y-75248074D01*
X203608553Y-75076362D01*
X203608552Y-75076358D01*
X203608552Y-75076357D01*
X203554831Y-74911021D01*
X203538179Y-74878340D01*
X203475903Y-74756116D01*
X203373715Y-74615467D01*
X203250783Y-74492535D01*
X203250782Y-74492534D01*
X203171458Y-74434901D01*
X203150773Y-74408076D01*
X202531251Y-73788553D01*
X202531250Y-73788553D01*
X201927626Y-74392174D01*
X201927402Y-74393242D01*
X201891039Y-74434903D01*
X201811717Y-74492534D01*
X201688787Y-74615464D01*
X201688787Y-74615465D01*
X201688785Y-74615467D01*
X201649357Y-74669735D01*
X201586597Y-74756115D01*
X201507668Y-74911021D01*
X201453947Y-75076357D01*
X201453947Y-75076360D01*
X201426750Y-75248074D01*
X177500500Y-75248074D01*
X177500500Y-73348107D01*
X201427250Y-73348107D01*
X201427250Y-73521892D01*
X201454433Y-73693521D01*
X201508134Y-73858793D01*
X201587026Y-74013624D01*
X201587027Y-74013626D01*
X201592094Y-74020600D01*
X201592096Y-74020601D01*
X202177696Y-73435001D01*
X202177696Y-73434999D01*
X202131619Y-73388922D01*
X202181250Y-73388922D01*
X202181250Y-73481078D01*
X202205102Y-73570095D01*
X202251180Y-73649905D01*
X202316345Y-73715070D01*
X202396155Y-73761148D01*
X202485172Y-73785000D01*
X202577328Y-73785000D01*
X202666345Y-73761148D01*
X202746155Y-73715070D01*
X202811320Y-73649905D01*
X202857398Y-73570095D01*
X202881250Y-73481078D01*
X202881250Y-73434999D01*
X202884803Y-73434999D01*
X202884803Y-73435000D01*
X203470403Y-74020600D01*
X203475474Y-74013624D01*
X203554365Y-73858793D01*
X203566595Y-73821153D01*
X219199500Y-73821153D01*
X219199500Y-73978846D01*
X219230261Y-74133489D01*
X219230264Y-74133501D01*
X219290602Y-74279172D01*
X219290609Y-74279185D01*
X219378210Y-74410288D01*
X219378213Y-74410292D01*
X219489707Y-74521786D01*
X219489711Y-74521789D01*
X219620814Y-74609390D01*
X219620827Y-74609397D01*
X219766498Y-74669735D01*
X219766503Y-74669737D01*
X219921153Y-74700499D01*
X219921156Y-74700500D01*
X219921158Y-74700500D01*
X220078844Y-74700500D01*
X220078845Y-74700499D01*
X220233497Y-74669737D01*
X220346166Y-74623067D01*
X220379172Y-74609397D01*
X220379172Y-74609396D01*
X220379179Y-74609394D01*
X220510289Y-74521789D01*
X220621789Y-74410289D01*
X220709394Y-74279179D01*
X220769737Y-74133497D01*
X220800500Y-73978842D01*
X220800500Y-73821158D01*
X220800500Y-73821155D01*
X220800499Y-73821153D01*
X220793308Y-73785000D01*
X220769737Y-73666503D01*
X220754138Y-73628844D01*
X220709394Y-73520820D01*
X220676207Y-73471153D01*
X223199500Y-73471153D01*
X223199500Y-73628846D01*
X223230261Y-73783489D01*
X223230264Y-73783501D01*
X223290602Y-73929172D01*
X223290609Y-73929185D01*
X223378210Y-74060288D01*
X223378213Y-74060292D01*
X223489707Y-74171786D01*
X223489711Y-74171789D01*
X223620814Y-74259390D01*
X223620827Y-74259397D01*
X223746424Y-74311420D01*
X223766503Y-74319737D01*
X223921153Y-74350499D01*
X223921156Y-74350500D01*
X223921158Y-74350500D01*
X224078844Y-74350500D01*
X224078845Y-74350499D01*
X224233497Y-74319737D01*
X224379179Y-74259394D01*
X224510289Y-74171789D01*
X224621789Y-74060289D01*
X224709394Y-73929179D01*
X224755462Y-73817961D01*
X254899880Y-73817961D01*
X254899880Y-73817962D01*
X254903429Y-73820334D01*
X255030813Y-73873097D01*
X255030823Y-73873100D01*
X255166053Y-73900000D01*
X255303946Y-73900000D01*
X255439176Y-73873100D01*
X255439186Y-73873097D01*
X255566570Y-73820334D01*
X255566572Y-73820332D01*
X255570119Y-73817961D01*
X255999880Y-73817961D01*
X255999880Y-73817962D01*
X256003429Y-73820334D01*
X256130813Y-73873097D01*
X256130823Y-73873100D01*
X256266053Y-73900000D01*
X256403946Y-73900000D01*
X256539176Y-73873100D01*
X256539186Y-73873097D01*
X256666570Y-73820334D01*
X256666572Y-73820332D01*
X256670119Y-73817961D01*
X256335001Y-73482842D01*
X256335000Y-73482842D01*
X255999880Y-73817961D01*
X255570119Y-73817961D01*
X255235001Y-73482842D01*
X255235000Y-73482842D01*
X254899880Y-73817961D01*
X224755462Y-73817961D01*
X224769737Y-73783497D01*
X224774183Y-73761148D01*
X224776887Y-73747555D01*
X224776887Y-73747553D01*
X224799574Y-73633497D01*
X224800500Y-73628842D01*
X224800500Y-73471158D01*
X224800500Y-73471155D01*
X224800499Y-73471153D01*
X224793307Y-73434999D01*
X224769737Y-73316503D01*
X224749631Y-73267962D01*
X224749631Y-73267961D01*
X254349880Y-73267961D01*
X254349880Y-73267962D01*
X254353425Y-73270331D01*
X254486446Y-73325429D01*
X254485863Y-73326836D01*
X254538032Y-73361015D01*
X254558725Y-73398903D01*
X254559570Y-73398554D01*
X254614668Y-73531573D01*
X254614668Y-73531574D01*
X254617037Y-73535119D01*
X254952157Y-73200000D01*
X254952157Y-73199999D01*
X254922321Y-73170163D01*
X255085000Y-73170163D01*
X255085000Y-73229837D01*
X255107836Y-73284968D01*
X255150032Y-73327164D01*
X255205163Y-73350000D01*
X255264837Y-73350000D01*
X255319968Y-73327164D01*
X255362164Y-73284968D01*
X255385000Y-73229837D01*
X255385000Y-73200000D01*
X255517842Y-73200000D01*
X255785000Y-73467157D01*
X255785001Y-73467157D01*
X256052157Y-73200001D01*
X256052157Y-73199999D01*
X256022321Y-73170163D01*
X256185000Y-73170163D01*
X256185000Y-73229837D01*
X256207836Y-73284968D01*
X256250032Y-73327164D01*
X256305163Y-73350000D01*
X256364837Y-73350000D01*
X256419968Y-73327164D01*
X256462164Y-73284968D01*
X256485000Y-73229837D01*
X256485000Y-73200000D01*
X256617842Y-73200000D01*
X256952961Y-73535119D01*
X256955332Y-73531572D01*
X256955334Y-73531570D01*
X257010430Y-73398554D01*
X257011832Y-73399135D01*
X257046029Y-73346956D01*
X257063289Y-73334647D01*
X257086115Y-73321153D01*
X260199500Y-73321153D01*
X260199500Y-73478846D01*
X260230261Y-73633489D01*
X260230264Y-73633501D01*
X260290602Y-73779172D01*
X260290609Y-73779185D01*
X260378210Y-73910288D01*
X260378213Y-73910292D01*
X260489707Y-74021786D01*
X260489711Y-74021789D01*
X260620814Y-74109390D01*
X260620827Y-74109397D01*
X260766498Y-74169735D01*
X260766503Y-74169737D01*
X260921153Y-74200499D01*
X260921156Y-74200500D01*
X260921158Y-74200500D01*
X261078844Y-74200500D01*
X261078845Y-74200499D01*
X261233497Y-74169737D01*
X261379179Y-74109394D01*
X261510289Y-74021789D01*
X261621789Y-73910289D01*
X261709394Y-73779179D01*
X261769737Y-73633497D01*
X261800500Y-73478842D01*
X261800500Y-73321158D01*
X261800500Y-73321155D01*
X261800499Y-73321153D01*
X261790165Y-73269200D01*
X261769737Y-73166503D01*
X261764943Y-73154930D01*
X261709397Y-73020827D01*
X261709390Y-73020814D01*
X261621789Y-72889711D01*
X261621786Y-72889707D01*
X261542319Y-72810240D01*
X261508834Y-72748917D01*
X261513818Y-72679225D01*
X261555690Y-72623292D01*
X261574102Y-72612812D01*
X261573809Y-72612264D01*
X261579172Y-72609396D01*
X261579179Y-72609394D01*
X261710289Y-72521789D01*
X261821789Y-72410289D01*
X261909394Y-72279179D01*
X261969737Y-72133497D01*
X262000500Y-71978842D01*
X262000500Y-71821158D01*
X262000500Y-71821155D01*
X262000499Y-71821153D01*
X261987178Y-71754184D01*
X261969737Y-71666503D01*
X261956675Y-71634968D01*
X261909397Y-71520827D01*
X261909390Y-71520814D01*
X261821789Y-71389711D01*
X261821786Y-71389707D01*
X261710292Y-71278213D01*
X261710288Y-71278210D01*
X261579185Y-71190609D01*
X261579172Y-71190602D01*
X261433501Y-71130264D01*
X261433489Y-71130261D01*
X261278845Y-71099500D01*
X261278842Y-71099500D01*
X261121158Y-71099500D01*
X261121155Y-71099500D01*
X260966510Y-71130261D01*
X260966498Y-71130264D01*
X260820827Y-71190602D01*
X260820814Y-71190609D01*
X260689711Y-71278210D01*
X260689707Y-71278213D01*
X260578213Y-71389707D01*
X260578210Y-71389711D01*
X260490609Y-71520814D01*
X260490602Y-71520827D01*
X260430264Y-71666498D01*
X260430261Y-71666510D01*
X260399500Y-71821153D01*
X260399500Y-71978846D01*
X260430261Y-72133489D01*
X260430264Y-72133501D01*
X260490602Y-72279172D01*
X260490609Y-72279185D01*
X260578210Y-72410288D01*
X260578213Y-72410292D01*
X260657680Y-72489759D01*
X260691165Y-72551082D01*
X260686181Y-72620774D01*
X260644309Y-72676707D01*
X260625899Y-72687191D01*
X260626191Y-72687736D01*
X260620814Y-72690609D01*
X260489711Y-72778210D01*
X260489707Y-72778213D01*
X260378213Y-72889707D01*
X260378210Y-72889711D01*
X260290609Y-73020814D01*
X260290602Y-73020827D01*
X260230264Y-73166498D01*
X260230261Y-73166510D01*
X260199500Y-73321153D01*
X257086115Y-73321153D01*
X257203763Y-73251605D01*
X256885001Y-72932842D01*
X256885000Y-72932842D01*
X256617842Y-73200000D01*
X256485000Y-73200000D01*
X256485000Y-73170163D01*
X256462164Y-73115032D01*
X256419968Y-73072836D01*
X256364837Y-73050000D01*
X256305163Y-73050000D01*
X256250032Y-73072836D01*
X256207836Y-73115032D01*
X256185000Y-73170163D01*
X256022321Y-73170163D01*
X255785000Y-72932842D01*
X255517842Y-73200000D01*
X255385000Y-73200000D01*
X255385000Y-73170163D01*
X255362164Y-73115032D01*
X255319968Y-73072836D01*
X255264837Y-73050000D01*
X255205163Y-73050000D01*
X255150032Y-73072836D01*
X255107836Y-73115032D01*
X255085000Y-73170163D01*
X254922321Y-73170163D01*
X254810737Y-73058579D01*
X254810737Y-73058580D01*
X254684998Y-72932842D01*
X254349880Y-73267961D01*
X224749631Y-73267961D01*
X224709397Y-73170827D01*
X224709390Y-73170814D01*
X224621789Y-73039711D01*
X224621786Y-73039707D01*
X224510292Y-72928213D01*
X224510288Y-72928210D01*
X224379185Y-72840609D01*
X224379172Y-72840602D01*
X224233501Y-72780264D01*
X224233489Y-72780261D01*
X224078845Y-72749500D01*
X224078842Y-72749500D01*
X223921158Y-72749500D01*
X223921155Y-72749500D01*
X223766510Y-72780261D01*
X223766498Y-72780264D01*
X223620827Y-72840602D01*
X223620814Y-72840609D01*
X223489711Y-72928210D01*
X223489707Y-72928213D01*
X223378213Y-73039707D01*
X223378210Y-73039711D01*
X223290609Y-73170814D01*
X223290602Y-73170827D01*
X223230264Y-73316498D01*
X223230261Y-73316510D01*
X223199500Y-73471153D01*
X220676207Y-73471153D01*
X220621789Y-73389711D01*
X220621786Y-73389707D01*
X220510292Y-73278213D01*
X220510288Y-73278210D01*
X220379185Y-73190609D01*
X220379172Y-73190602D01*
X220233501Y-73130264D01*
X220233489Y-73130261D01*
X220078845Y-73099500D01*
X220078842Y-73099500D01*
X219921158Y-73099500D01*
X219921155Y-73099500D01*
X219766510Y-73130261D01*
X219766498Y-73130264D01*
X219620827Y-73190602D01*
X219620814Y-73190609D01*
X219489711Y-73278210D01*
X219489707Y-73278213D01*
X219378213Y-73389707D01*
X219378210Y-73389711D01*
X219290609Y-73520814D01*
X219290602Y-73520827D01*
X219230264Y-73666498D01*
X219230261Y-73666510D01*
X219199500Y-73821153D01*
X203566595Y-73821153D01*
X203581024Y-73776747D01*
X203608066Y-73693521D01*
X203635250Y-73521892D01*
X203635250Y-73348107D01*
X203608066Y-73176478D01*
X203554365Y-73011206D01*
X203475478Y-72856382D01*
X203470403Y-72849398D01*
X202884803Y-73434999D01*
X202881250Y-73434999D01*
X202881250Y-73388922D01*
X202857398Y-73299905D01*
X202811320Y-73220095D01*
X202746155Y-73154930D01*
X202666345Y-73108852D01*
X202577328Y-73085000D01*
X202485172Y-73085000D01*
X202396155Y-73108852D01*
X202316345Y-73154930D01*
X202251180Y-73220095D01*
X202205102Y-73299905D01*
X202181250Y-73388922D01*
X202131619Y-73388922D01*
X201592095Y-72849398D01*
X201592094Y-72849398D01*
X201587025Y-72856375D01*
X201508134Y-73011206D01*
X201454433Y-73176478D01*
X201427250Y-73348107D01*
X177500500Y-73348107D01*
X177500500Y-72495844D01*
X201945648Y-72495844D01*
X201945648Y-72495845D01*
X202531250Y-73081446D01*
X202531251Y-73081446D01*
X202893751Y-72718946D01*
X253984999Y-72718946D01*
X254011899Y-72854176D01*
X254011901Y-72854182D01*
X254064668Y-72981573D01*
X254064668Y-72981574D01*
X254067037Y-72985119D01*
X254402157Y-72650000D01*
X254372320Y-72620163D01*
X254535000Y-72620163D01*
X254535000Y-72679837D01*
X254557836Y-72734968D01*
X254600032Y-72777164D01*
X254655163Y-72800000D01*
X254714837Y-72800000D01*
X254769968Y-72777164D01*
X254812164Y-72734968D01*
X254835000Y-72679837D01*
X254835000Y-72650000D01*
X254967842Y-72650000D01*
X255096053Y-72778211D01*
X255235000Y-72917157D01*
X255373946Y-72778211D01*
X255502157Y-72649999D01*
X255472321Y-72620163D01*
X255635000Y-72620163D01*
X255635000Y-72679837D01*
X255657836Y-72734968D01*
X255700032Y-72777164D01*
X255755163Y-72800000D01*
X255814837Y-72800000D01*
X255869968Y-72777164D01*
X255912164Y-72734968D01*
X255935000Y-72679837D01*
X255935000Y-72650000D01*
X256067842Y-72650000D01*
X256196053Y-72778211D01*
X256335000Y-72917157D01*
X256473946Y-72778211D01*
X256602157Y-72649999D01*
X256572321Y-72620163D01*
X256735000Y-72620163D01*
X256735000Y-72679837D01*
X256757836Y-72734968D01*
X256800032Y-72777164D01*
X256855163Y-72800000D01*
X256914837Y-72800000D01*
X256969968Y-72777164D01*
X257012164Y-72734968D01*
X257035000Y-72679837D01*
X257035000Y-72650000D01*
X257167842Y-72650000D01*
X257502961Y-72985119D01*
X257505332Y-72981572D01*
X257505334Y-72981570D01*
X257558097Y-72854186D01*
X257558100Y-72854176D01*
X257585000Y-72718946D01*
X257585000Y-72581053D01*
X257558100Y-72445823D01*
X257558097Y-72445813D01*
X257505334Y-72318429D01*
X257502961Y-72314880D01*
X257167842Y-72650000D01*
X257035000Y-72650000D01*
X257035000Y-72620163D01*
X257012164Y-72565032D01*
X256969968Y-72522836D01*
X256914837Y-72500000D01*
X256855163Y-72500000D01*
X256800032Y-72522836D01*
X256757836Y-72565032D01*
X256735000Y-72620163D01*
X256572321Y-72620163D01*
X256335000Y-72382842D01*
X256067842Y-72650000D01*
X255935000Y-72650000D01*
X255935000Y-72620163D01*
X255912164Y-72565032D01*
X255869968Y-72522836D01*
X255814837Y-72500000D01*
X255755163Y-72500000D01*
X255700032Y-72522836D01*
X255657836Y-72565032D01*
X255635000Y-72620163D01*
X255472321Y-72620163D01*
X255235000Y-72382842D01*
X254967842Y-72650000D01*
X254835000Y-72650000D01*
X254835000Y-72620163D01*
X254812164Y-72565032D01*
X254769968Y-72522836D01*
X254714837Y-72500000D01*
X254655163Y-72500000D01*
X254600032Y-72522836D01*
X254557836Y-72565032D01*
X254535000Y-72620163D01*
X254372320Y-72620163D01*
X254067037Y-72314880D01*
X254067036Y-72314880D01*
X254064667Y-72318427D01*
X254064666Y-72318428D01*
X254011902Y-72445813D01*
X254011899Y-72445823D01*
X253985000Y-72581053D01*
X253985000Y-72718946D01*
X253984999Y-72718946D01*
X202893751Y-72718946D01*
X203116851Y-72495846D01*
X203116850Y-72495844D01*
X203109876Y-72490777D01*
X203109874Y-72490776D01*
X202955043Y-72411884D01*
X202789771Y-72358183D01*
X202618142Y-72331000D01*
X202444358Y-72331000D01*
X202272728Y-72358183D01*
X202107456Y-72411884D01*
X201952625Y-72490775D01*
X201945648Y-72495844D01*
X177500500Y-72495844D01*
X177500500Y-72099999D01*
X254417842Y-72099999D01*
X254417842Y-72100000D01*
X254684998Y-72367156D01*
X254818577Y-72233578D01*
X254818581Y-72233575D01*
X254952157Y-72100000D01*
X254952157Y-72099999D01*
X254922321Y-72070163D01*
X255085000Y-72070163D01*
X255085000Y-72129837D01*
X255107836Y-72184968D01*
X255150032Y-72227164D01*
X255205163Y-72250000D01*
X255264837Y-72250000D01*
X255319968Y-72227164D01*
X255362164Y-72184968D01*
X255385000Y-72129837D01*
X255385000Y-72100000D01*
X255517842Y-72100000D01*
X255651406Y-72233564D01*
X255651421Y-72233578D01*
X255785000Y-72367157D01*
X255785001Y-72367157D01*
X255918578Y-72233579D01*
X256052157Y-72100000D01*
X256052157Y-72099999D01*
X256022321Y-72070163D01*
X256185000Y-72070163D01*
X256185000Y-72129837D01*
X256207836Y-72184968D01*
X256250032Y-72227164D01*
X256305163Y-72250000D01*
X256364837Y-72250000D01*
X256419968Y-72227164D01*
X256462164Y-72184968D01*
X256485000Y-72129837D01*
X256485000Y-72100000D01*
X256617842Y-72100000D01*
X256751406Y-72233564D01*
X256751421Y-72233578D01*
X256885000Y-72367157D01*
X257152157Y-72100000D01*
X257152157Y-72099999D01*
X256885001Y-71832842D01*
X256885000Y-71832842D01*
X256617842Y-72100000D01*
X256485000Y-72100000D01*
X256485000Y-72070163D01*
X256462164Y-72015032D01*
X256419968Y-71972836D01*
X256364837Y-71950000D01*
X256305163Y-71950000D01*
X256250032Y-71972836D01*
X256207836Y-72015032D01*
X256185000Y-72070163D01*
X256022321Y-72070163D01*
X255785000Y-71832842D01*
X255517842Y-72100000D01*
X255385000Y-72100000D01*
X255385000Y-72070163D01*
X255362164Y-72015032D01*
X255319968Y-71972836D01*
X255264837Y-71950000D01*
X255205163Y-71950000D01*
X255150032Y-71972836D01*
X255107836Y-72015032D01*
X255085000Y-72070163D01*
X254922321Y-72070163D01*
X254810737Y-71958579D01*
X254810737Y-71958580D01*
X254684998Y-71832842D01*
X254417842Y-72099999D01*
X177500500Y-72099999D01*
X177500500Y-71618946D01*
X253984999Y-71618946D01*
X254011899Y-71754176D01*
X254011901Y-71754182D01*
X254064668Y-71881573D01*
X254064668Y-71881574D01*
X254067037Y-71885119D01*
X254402157Y-71550000D01*
X254372320Y-71520163D01*
X254535000Y-71520163D01*
X254535000Y-71579837D01*
X254557836Y-71634968D01*
X254600032Y-71677164D01*
X254655163Y-71700000D01*
X254714837Y-71700000D01*
X254769968Y-71677164D01*
X254812164Y-71634968D01*
X254835000Y-71579837D01*
X254835000Y-71550000D01*
X254967842Y-71550000D01*
X255084345Y-71666503D01*
X255235000Y-71817157D01*
X255385654Y-71666503D01*
X255502157Y-71549999D01*
X255472321Y-71520163D01*
X255635000Y-71520163D01*
X255635000Y-71579837D01*
X255657836Y-71634968D01*
X255700032Y-71677164D01*
X255755163Y-71700000D01*
X255814837Y-71700000D01*
X255869968Y-71677164D01*
X255912164Y-71634968D01*
X255935000Y-71579837D01*
X255935000Y-71550000D01*
X256067842Y-71550000D01*
X256184345Y-71666503D01*
X256335000Y-71817157D01*
X256485654Y-71666503D01*
X256602157Y-71549999D01*
X256572321Y-71520163D01*
X256735000Y-71520163D01*
X256735000Y-71579837D01*
X256757836Y-71634968D01*
X256800032Y-71677164D01*
X256855163Y-71700000D01*
X256914837Y-71700000D01*
X256969968Y-71677164D01*
X257012164Y-71634968D01*
X257035000Y-71579837D01*
X257035000Y-71550000D01*
X257167842Y-71550000D01*
X257502961Y-71885119D01*
X257505332Y-71881572D01*
X257505334Y-71881570D01*
X257558098Y-71754184D01*
X257558100Y-71754176D01*
X257585000Y-71618946D01*
X257585000Y-71481053D01*
X257558100Y-71345823D01*
X257558097Y-71345813D01*
X257505334Y-71218429D01*
X257502961Y-71214880D01*
X257167842Y-71550000D01*
X257035000Y-71550000D01*
X257035000Y-71520163D01*
X257012164Y-71465032D01*
X256969968Y-71422836D01*
X256914837Y-71400000D01*
X256855163Y-71400000D01*
X256800032Y-71422836D01*
X256757836Y-71465032D01*
X256735000Y-71520163D01*
X256572321Y-71520163D01*
X256335000Y-71282842D01*
X256067842Y-71550000D01*
X255935000Y-71550000D01*
X255935000Y-71520163D01*
X255912164Y-71465032D01*
X255869968Y-71422836D01*
X255814837Y-71400000D01*
X255755163Y-71400000D01*
X255700032Y-71422836D01*
X255657836Y-71465032D01*
X255635000Y-71520163D01*
X255472321Y-71520163D01*
X255235000Y-71282842D01*
X254967842Y-71550000D01*
X254835000Y-71550000D01*
X254835000Y-71520163D01*
X254812164Y-71465032D01*
X254769968Y-71422836D01*
X254714837Y-71400000D01*
X254655163Y-71400000D01*
X254600032Y-71422836D01*
X254557836Y-71465032D01*
X254535000Y-71520163D01*
X254372320Y-71520163D01*
X254067037Y-71214880D01*
X254067036Y-71214880D01*
X254064667Y-71218427D01*
X254064666Y-71218428D01*
X254011902Y-71345813D01*
X254011899Y-71345823D01*
X253985000Y-71481053D01*
X253985000Y-71618946D01*
X253984999Y-71618946D01*
X177500500Y-71618946D01*
X177500500Y-68921153D01*
X210699500Y-68921153D01*
X210699500Y-69078846D01*
X210730261Y-69233489D01*
X210730264Y-69233501D01*
X210790602Y-69379172D01*
X210790609Y-69379185D01*
X210878210Y-69510288D01*
X210878213Y-69510292D01*
X210989707Y-69621786D01*
X210989711Y-69621789D01*
X211120814Y-69709390D01*
X211120827Y-69709397D01*
X211255277Y-69765087D01*
X211266503Y-69769737D01*
X211421153Y-69800499D01*
X211421156Y-69800500D01*
X211421158Y-69800500D01*
X211578844Y-69800500D01*
X211578845Y-69800499D01*
X211733497Y-69769737D01*
X211874172Y-69711468D01*
X211879172Y-69709397D01*
X211879172Y-69709396D01*
X211879179Y-69709394D01*
X212010289Y-69621789D01*
X212121789Y-69510289D01*
X212209394Y-69379179D01*
X212269737Y-69233497D01*
X212281588Y-69173920D01*
X224049499Y-69173920D01*
X224078340Y-69318907D01*
X224078343Y-69318917D01*
X224134912Y-69455488D01*
X224134919Y-69455501D01*
X224217048Y-69578415D01*
X224217051Y-69578419D01*
X224321580Y-69682948D01*
X224321584Y-69682951D01*
X224444498Y-69765080D01*
X224444511Y-69765087D01*
X224579880Y-69821158D01*
X224581087Y-69821658D01*
X224581091Y-69821658D01*
X224581092Y-69821659D01*
X224726079Y-69850500D01*
X224726082Y-69850500D01*
X224873920Y-69850500D01*
X224971462Y-69831096D01*
X225018913Y-69821658D01*
X225144262Y-69769737D01*
X225155488Y-69765087D01*
X225155488Y-69765086D01*
X225155495Y-69765084D01*
X225278416Y-69682951D01*
X225382951Y-69578416D01*
X225465084Y-69455495D01*
X225465085Y-69455492D01*
X225465087Y-69455489D01*
X225488004Y-69400159D01*
X225508292Y-69351178D01*
X233679525Y-69351178D01*
X233679525Y-69508871D01*
X233710286Y-69663514D01*
X233710289Y-69663526D01*
X233770627Y-69809197D01*
X233770634Y-69809210D01*
X233858235Y-69940313D01*
X233858238Y-69940317D01*
X233969732Y-70051811D01*
X233969736Y-70051814D01*
X234100839Y-70139415D01*
X234100852Y-70139422D01*
X234201430Y-70181082D01*
X234246528Y-70199762D01*
X234348462Y-70220038D01*
X234401178Y-70230524D01*
X234401181Y-70230525D01*
X234401183Y-70230525D01*
X234558869Y-70230525D01*
X234558870Y-70230524D01*
X234713522Y-70199762D01*
X234722030Y-70196237D01*
X234791495Y-70188766D01*
X234853976Y-70220038D01*
X234884045Y-70263341D01*
X234890604Y-70279176D01*
X234890609Y-70279185D01*
X234978210Y-70410288D01*
X234978213Y-70410292D01*
X235089707Y-70521786D01*
X235089711Y-70521789D01*
X235220814Y-70609390D01*
X235220827Y-70609397D01*
X235363340Y-70668427D01*
X235366503Y-70669737D01*
X235521153Y-70700499D01*
X235521156Y-70700500D01*
X235521158Y-70700500D01*
X235678844Y-70700500D01*
X235678845Y-70700499D01*
X235833497Y-70669737D01*
X235979179Y-70609394D01*
X236110289Y-70521789D01*
X236221789Y-70410289D01*
X236309394Y-70279179D01*
X236311572Y-70273920D01*
X243549499Y-70273920D01*
X243578340Y-70418907D01*
X243578343Y-70418917D01*
X243634912Y-70555488D01*
X243634919Y-70555501D01*
X243717048Y-70678415D01*
X243717051Y-70678419D01*
X243821580Y-70782948D01*
X243821584Y-70782951D01*
X243944498Y-70865080D01*
X243944511Y-70865087D01*
X244072084Y-70917929D01*
X244081087Y-70921658D01*
X244081091Y-70921658D01*
X244081092Y-70921659D01*
X244226079Y-70950500D01*
X244226082Y-70950500D01*
X244373920Y-70950500D01*
X244478655Y-70929666D01*
X244518913Y-70921658D01*
X244632594Y-70874570D01*
X244655488Y-70865087D01*
X244655488Y-70865086D01*
X244655495Y-70865084D01*
X244778416Y-70782951D01*
X244882951Y-70678416D01*
X244965084Y-70555495D01*
X245021658Y-70418913D01*
X245036071Y-70346457D01*
X250074499Y-70346457D01*
X250102379Y-70486614D01*
X250102381Y-70486620D01*
X250157069Y-70618650D01*
X250157074Y-70618659D01*
X250236467Y-70737478D01*
X250236470Y-70737482D01*
X250337517Y-70838529D01*
X250337521Y-70838532D01*
X250456340Y-70917925D01*
X250456349Y-70917930D01*
X250465352Y-70921659D01*
X250588380Y-70972619D01*
X250588384Y-70972619D01*
X250588385Y-70972620D01*
X250728542Y-71000500D01*
X250728545Y-71000500D01*
X250871457Y-71000500D01*
X250965751Y-70981742D01*
X251011620Y-70972619D01*
X251109596Y-70932036D01*
X254349880Y-70932036D01*
X254349880Y-70932037D01*
X254684998Y-71267157D01*
X254830500Y-71121657D01*
X254952157Y-70999998D01*
X254922322Y-70970163D01*
X255085000Y-70970163D01*
X255085000Y-71029837D01*
X255107836Y-71084968D01*
X255150032Y-71127164D01*
X255205163Y-71150000D01*
X255264837Y-71150000D01*
X255319968Y-71127164D01*
X255362164Y-71084968D01*
X255385000Y-71029837D01*
X255385000Y-70999998D01*
X255517842Y-70999998D01*
X255639501Y-71121658D01*
X255639500Y-71121658D01*
X255785000Y-71267157D01*
X255930499Y-71121658D01*
X256052157Y-70999998D01*
X256022322Y-70970163D01*
X256185000Y-70970163D01*
X256185000Y-71029837D01*
X256207836Y-71084968D01*
X256250032Y-71127164D01*
X256305163Y-71150000D01*
X256364837Y-71150000D01*
X256419968Y-71127164D01*
X256462164Y-71084968D01*
X256485000Y-71029837D01*
X256485000Y-70999998D01*
X256617842Y-70999998D01*
X256739501Y-71121658D01*
X256739500Y-71121658D01*
X256885000Y-71267157D01*
X256885001Y-71267157D01*
X257220119Y-70932037D01*
X257216574Y-70929668D01*
X257083554Y-70874570D01*
X257084134Y-70873168D01*
X257031949Y-70838963D01*
X257011276Y-70801094D01*
X257010429Y-70801446D01*
X256955331Y-70668425D01*
X256952962Y-70664880D01*
X256952961Y-70664880D01*
X256617842Y-70999998D01*
X256485000Y-70999998D01*
X256485000Y-70970163D01*
X256462164Y-70915032D01*
X256419968Y-70872836D01*
X256364837Y-70850000D01*
X256305163Y-70850000D01*
X256250032Y-70872836D01*
X256207836Y-70915032D01*
X256185000Y-70970163D01*
X256022322Y-70970163D01*
X255785001Y-70732842D01*
X255785000Y-70732842D01*
X255517842Y-70999998D01*
X255385000Y-70999998D01*
X255385000Y-70970163D01*
X255362164Y-70915032D01*
X255319968Y-70872836D01*
X255264837Y-70850000D01*
X255205163Y-70850000D01*
X255150032Y-70872836D01*
X255107836Y-70915032D01*
X255085000Y-70970163D01*
X254922322Y-70970163D01*
X254617037Y-70664880D01*
X254617036Y-70664880D01*
X254614667Y-70668427D01*
X254614666Y-70668428D01*
X254559570Y-70801445D01*
X254558171Y-70800865D01*
X254523951Y-70853059D01*
X254486096Y-70873728D01*
X254486445Y-70874570D01*
X254353428Y-70929666D01*
X254353427Y-70929667D01*
X254349880Y-70932036D01*
X251109596Y-70932036D01*
X251143653Y-70917929D01*
X251147989Y-70915032D01*
X251207686Y-70875144D01*
X251230744Y-70859736D01*
X251262479Y-70838532D01*
X251363532Y-70737479D01*
X251442929Y-70618653D01*
X251497619Y-70486620D01*
X251512802Y-70410292D01*
X251514043Y-70404054D01*
X251518423Y-70382036D01*
X254899880Y-70382036D01*
X254899880Y-70382037D01*
X255235000Y-70717157D01*
X255235001Y-70717157D01*
X255570119Y-70382037D01*
X255570118Y-70382036D01*
X255999880Y-70382036D01*
X255999880Y-70382037D01*
X256335000Y-70717157D01*
X256335001Y-70717157D01*
X256578237Y-70473920D01*
X259249499Y-70473920D01*
X259278340Y-70618907D01*
X259278343Y-70618917D01*
X259334912Y-70755488D01*
X259334919Y-70755501D01*
X259417048Y-70878415D01*
X259417051Y-70878419D01*
X259521580Y-70982948D01*
X259521584Y-70982951D01*
X259644498Y-71065080D01*
X259644511Y-71065087D01*
X259781082Y-71121656D01*
X259781087Y-71121658D01*
X259781091Y-71121658D01*
X259781092Y-71121659D01*
X259926079Y-71150500D01*
X259926082Y-71150500D01*
X260073920Y-71150500D01*
X260191233Y-71127164D01*
X260218913Y-71121658D01*
X260355495Y-71065084D01*
X260478416Y-70982951D01*
X260582951Y-70878416D01*
X260665084Y-70755495D01*
X260721658Y-70618913D01*
X260740978Y-70521786D01*
X260750500Y-70473920D01*
X260750500Y-70326079D01*
X260721659Y-70181092D01*
X260721658Y-70181091D01*
X260721658Y-70181087D01*
X260701946Y-70133497D01*
X260665087Y-70044511D01*
X260665080Y-70044498D01*
X260582951Y-69921584D01*
X260582948Y-69921580D01*
X260478419Y-69817051D01*
X260478415Y-69817048D01*
X260355501Y-69734919D01*
X260355488Y-69734912D01*
X260218917Y-69678343D01*
X260218907Y-69678340D01*
X260073920Y-69649500D01*
X260073918Y-69649500D01*
X259926082Y-69649500D01*
X259926080Y-69649500D01*
X259781092Y-69678340D01*
X259781082Y-69678343D01*
X259644511Y-69734912D01*
X259644498Y-69734919D01*
X259521584Y-69817048D01*
X259521580Y-69817051D01*
X259417051Y-69921580D01*
X259417048Y-69921584D01*
X259334919Y-70044498D01*
X259334912Y-70044511D01*
X259278343Y-70181082D01*
X259278340Y-70181092D01*
X259249500Y-70326079D01*
X259249500Y-70326082D01*
X259249500Y-70473918D01*
X259249500Y-70473920D01*
X259249499Y-70473920D01*
X256578237Y-70473920D01*
X256670119Y-70382037D01*
X256666574Y-70379668D01*
X256539182Y-70326901D01*
X256539176Y-70326899D01*
X256403946Y-70300000D01*
X256266054Y-70300000D01*
X256130823Y-70326899D01*
X256130813Y-70326902D01*
X256003428Y-70379666D01*
X256003427Y-70379667D01*
X255999880Y-70382036D01*
X255570118Y-70382036D01*
X255566574Y-70379668D01*
X255439182Y-70326901D01*
X255439176Y-70326899D01*
X255303946Y-70300000D01*
X255166054Y-70300000D01*
X255030823Y-70326899D01*
X255030813Y-70326902D01*
X254903428Y-70379666D01*
X254903427Y-70379667D01*
X254899880Y-70382036D01*
X251518423Y-70382036D01*
X251525500Y-70346457D01*
X251525500Y-70203542D01*
X251497620Y-70063385D01*
X251497619Y-70063384D01*
X251497619Y-70063380D01*
X251442929Y-69931347D01*
X251442928Y-69931346D01*
X251442925Y-69931340D01*
X251363532Y-69812521D01*
X251363529Y-69812517D01*
X251262482Y-69711470D01*
X251262478Y-69711467D01*
X251143659Y-69632074D01*
X251143650Y-69632069D01*
X251011620Y-69577381D01*
X251011614Y-69577379D01*
X250871457Y-69549500D01*
X250871455Y-69549500D01*
X250728545Y-69549500D01*
X250728543Y-69549500D01*
X250588385Y-69577379D01*
X250588379Y-69577381D01*
X250456349Y-69632069D01*
X250456340Y-69632074D01*
X250337521Y-69711467D01*
X250337517Y-69711470D01*
X250236470Y-69812517D01*
X250236467Y-69812521D01*
X250157074Y-69931340D01*
X250157069Y-69931349D01*
X250102381Y-70063379D01*
X250102379Y-70063385D01*
X250074500Y-70203542D01*
X250074500Y-70203545D01*
X250074500Y-70346455D01*
X250074500Y-70346457D01*
X250074499Y-70346457D01*
X245036071Y-70346457D01*
X245045312Y-70300000D01*
X245050500Y-70273920D01*
X245050500Y-70126079D01*
X245021659Y-69981092D01*
X245021658Y-69981091D01*
X245021658Y-69981087D01*
X245004771Y-69940317D01*
X244965087Y-69844511D01*
X244965080Y-69844498D01*
X244882951Y-69721584D01*
X244882948Y-69721580D01*
X244778419Y-69617051D01*
X244778415Y-69617048D01*
X244655501Y-69534919D01*
X244655488Y-69534912D01*
X244518917Y-69478343D01*
X244518907Y-69478340D01*
X244373920Y-69449500D01*
X244373918Y-69449500D01*
X244226082Y-69449500D01*
X244226080Y-69449500D01*
X244081092Y-69478340D01*
X244081082Y-69478343D01*
X243944511Y-69534912D01*
X243944498Y-69534919D01*
X243821584Y-69617048D01*
X243821580Y-69617051D01*
X243717051Y-69721580D01*
X243717048Y-69721584D01*
X243634919Y-69844498D01*
X243634912Y-69844511D01*
X243578343Y-69981082D01*
X243578340Y-69981092D01*
X243549500Y-70126079D01*
X243549500Y-70126082D01*
X243549500Y-70273918D01*
X243549500Y-70273920D01*
X243549499Y-70273920D01*
X236311572Y-70273920D01*
X236369737Y-70133497D01*
X236383684Y-70063380D01*
X236400500Y-69978844D01*
X236400500Y-69821155D01*
X236400499Y-69821153D01*
X236380693Y-69721584D01*
X236369737Y-69666503D01*
X236351215Y-69621786D01*
X236309397Y-69520827D01*
X236309390Y-69520814D01*
X236221789Y-69389711D01*
X236221786Y-69389707D01*
X236110292Y-69278213D01*
X236110288Y-69278210D01*
X235979185Y-69190609D01*
X235979172Y-69190602D01*
X235833501Y-69130264D01*
X235833489Y-69130261D01*
X235678845Y-69099500D01*
X235678842Y-69099500D01*
X235521158Y-69099500D01*
X235521155Y-69099500D01*
X235366511Y-69130260D01*
X235366502Y-69130263D01*
X235357985Y-69133791D01*
X235288515Y-69141255D01*
X235226038Y-69109977D01*
X235195978Y-69066680D01*
X235189420Y-69050849D01*
X235189419Y-69050846D01*
X235189417Y-69050843D01*
X235189415Y-69050839D01*
X235101814Y-68919736D01*
X235101811Y-68919732D01*
X234990317Y-68808238D01*
X234990313Y-68808235D01*
X234859210Y-68720634D01*
X234859197Y-68720627D01*
X234713526Y-68660289D01*
X234713514Y-68660286D01*
X234558870Y-68629525D01*
X234558867Y-68629525D01*
X234401183Y-68629525D01*
X234401180Y-68629525D01*
X234246535Y-68660286D01*
X234246523Y-68660289D01*
X234100852Y-68720627D01*
X234100839Y-68720634D01*
X233969736Y-68808235D01*
X233969732Y-68808238D01*
X233858238Y-68919732D01*
X233858235Y-68919736D01*
X233770634Y-69050839D01*
X233770627Y-69050852D01*
X233710289Y-69196523D01*
X233710286Y-69196535D01*
X233679525Y-69351178D01*
X225508292Y-69351178D01*
X225509227Y-69348921D01*
X225553067Y-69294519D01*
X225619361Y-69272454D01*
X225647980Y-69274758D01*
X225732939Y-69291658D01*
X225732942Y-69291658D01*
X225880780Y-69291658D01*
X225978322Y-69272254D01*
X226025773Y-69262816D01*
X226103718Y-69230530D01*
X226103719Y-69230530D01*
X226152577Y-69210292D01*
X226162355Y-69206242D01*
X226285276Y-69124109D01*
X226389811Y-69019574D01*
X226471944Y-68896653D01*
X226528518Y-68760071D01*
X226537956Y-68712620D01*
X226556152Y-68621153D01*
X238499500Y-68621153D01*
X238499500Y-68778846D01*
X238530261Y-68933489D01*
X238530264Y-68933501D01*
X238590602Y-69079172D01*
X238590609Y-69079185D01*
X238678210Y-69210288D01*
X238678213Y-69210292D01*
X238789707Y-69321786D01*
X238789711Y-69321789D01*
X238920814Y-69409390D01*
X238920827Y-69409397D01*
X239032134Y-69455501D01*
X239066503Y-69469737D01*
X239221153Y-69500499D01*
X239221156Y-69500500D01*
X239221158Y-69500500D01*
X239378844Y-69500500D01*
X239378845Y-69500499D01*
X239533497Y-69469737D01*
X239679179Y-69409394D01*
X239810289Y-69321789D01*
X239921789Y-69210289D01*
X240009394Y-69079179D01*
X240069737Y-68933497D01*
X240100500Y-68778842D01*
X240100500Y-68621158D01*
X240100500Y-68621155D01*
X240100499Y-68621153D01*
X255599500Y-68621153D01*
X255599500Y-68778846D01*
X255630261Y-68933489D01*
X255630264Y-68933501D01*
X255690602Y-69079172D01*
X255690609Y-69079185D01*
X255778210Y-69210288D01*
X255778213Y-69210292D01*
X255889707Y-69321786D01*
X255889711Y-69321789D01*
X256020814Y-69409390D01*
X256020827Y-69409397D01*
X256132134Y-69455501D01*
X256166503Y-69469737D01*
X256321153Y-69500499D01*
X256321156Y-69500500D01*
X256321158Y-69500500D01*
X256478844Y-69500500D01*
X256478845Y-69500499D01*
X256633497Y-69469737D01*
X256779179Y-69409394D01*
X256910289Y-69321789D01*
X257021789Y-69210289D01*
X257109394Y-69079179D01*
X257169737Y-68933497D01*
X257200500Y-68778842D01*
X257200500Y-68621158D01*
X257200500Y-68621155D01*
X257200499Y-68621153D01*
X257190653Y-68571656D01*
X257169737Y-68466503D01*
X257156655Y-68434919D01*
X257109397Y-68320827D01*
X257109390Y-68320814D01*
X257021789Y-68189711D01*
X257021786Y-68189707D01*
X256910292Y-68078213D01*
X256910288Y-68078210D01*
X256779185Y-67990609D01*
X256779172Y-67990602D01*
X256633501Y-67930264D01*
X256633489Y-67930261D01*
X256478845Y-67899500D01*
X256478842Y-67899500D01*
X256321158Y-67899500D01*
X256321155Y-67899500D01*
X256166510Y-67930261D01*
X256166498Y-67930264D01*
X256020827Y-67990602D01*
X256020814Y-67990609D01*
X255889711Y-68078210D01*
X255889707Y-68078213D01*
X255778213Y-68189707D01*
X255778210Y-68189711D01*
X255690609Y-68320814D01*
X255690602Y-68320827D01*
X255630264Y-68466498D01*
X255630261Y-68466510D01*
X255599500Y-68621153D01*
X240100499Y-68621153D01*
X240090653Y-68571656D01*
X240069737Y-68466503D01*
X240056655Y-68434919D01*
X240009397Y-68320827D01*
X240009390Y-68320814D01*
X239921789Y-68189711D01*
X239921786Y-68189707D01*
X239810292Y-68078213D01*
X239810288Y-68078210D01*
X239679185Y-67990609D01*
X239679172Y-67990602D01*
X239533501Y-67930264D01*
X239533489Y-67930261D01*
X239378845Y-67899500D01*
X239378842Y-67899500D01*
X239221158Y-67899500D01*
X239221155Y-67899500D01*
X239066510Y-67930261D01*
X239066498Y-67930264D01*
X238920827Y-67990602D01*
X238920814Y-67990609D01*
X238789711Y-68078210D01*
X238789707Y-68078213D01*
X238678213Y-68189707D01*
X238678210Y-68189711D01*
X238590609Y-68320814D01*
X238590602Y-68320827D01*
X238530264Y-68466498D01*
X238530261Y-68466510D01*
X238499500Y-68621153D01*
X226556152Y-68621153D01*
X226557360Y-68615078D01*
X226557360Y-68467237D01*
X226528519Y-68322250D01*
X226528518Y-68322249D01*
X226528518Y-68322245D01*
X226506768Y-68269735D01*
X226471945Y-68185664D01*
X226451498Y-68155064D01*
X226430619Y-68088387D01*
X226432981Y-68061988D01*
X226450500Y-67973918D01*
X226450500Y-67826082D01*
X226450500Y-67826079D01*
X226421659Y-67681092D01*
X226421658Y-67681091D01*
X226421658Y-67681087D01*
X226407090Y-67645917D01*
X226365087Y-67544511D01*
X226365080Y-67544498D01*
X226282951Y-67421584D01*
X226282948Y-67421580D01*
X226178419Y-67317051D01*
X226178415Y-67317048D01*
X226055501Y-67234919D01*
X226055488Y-67234912D01*
X225918917Y-67178343D01*
X225918907Y-67178340D01*
X225773920Y-67149500D01*
X225773918Y-67149500D01*
X225626082Y-67149500D01*
X225626080Y-67149500D01*
X225481092Y-67178340D01*
X225481082Y-67178343D01*
X225344511Y-67234912D01*
X225344498Y-67234919D01*
X225221584Y-67317048D01*
X225221580Y-67317051D01*
X225117051Y-67421580D01*
X225117048Y-67421584D01*
X225034919Y-67544498D01*
X225034912Y-67544511D01*
X224978343Y-67681082D01*
X224978340Y-67681092D01*
X224949500Y-67826079D01*
X224949500Y-67826082D01*
X224949500Y-67973918D01*
X224949500Y-67973920D01*
X224949499Y-67973920D01*
X224978340Y-68118907D01*
X224978343Y-68118917D01*
X225003187Y-68178896D01*
X225010656Y-68248365D01*
X224979380Y-68310844D01*
X224919291Y-68346496D01*
X224880010Y-68349483D01*
X224880010Y-68349500D01*
X224879793Y-68349500D01*
X224876480Y-68349752D01*
X224873920Y-68349500D01*
X224873918Y-68349500D01*
X224726082Y-68349500D01*
X224726080Y-68349500D01*
X224581092Y-68378340D01*
X224581082Y-68378343D01*
X224444511Y-68434912D01*
X224444498Y-68434919D01*
X224321584Y-68517048D01*
X224321580Y-68517051D01*
X224217051Y-68621580D01*
X224217048Y-68621584D01*
X224134919Y-68744498D01*
X224134912Y-68744511D01*
X224078343Y-68881082D01*
X224078340Y-68881092D01*
X224049500Y-69026079D01*
X224049500Y-69026082D01*
X224049500Y-69173918D01*
X224049500Y-69173920D01*
X224049499Y-69173920D01*
X212281588Y-69173920D01*
X212300500Y-69078842D01*
X212300500Y-68921158D01*
X212300500Y-68921155D01*
X212300499Y-68921153D01*
X212292528Y-68881082D01*
X212269737Y-68766503D01*
X212269735Y-68766498D01*
X212209397Y-68620827D01*
X212209390Y-68620814D01*
X212121789Y-68489711D01*
X212121786Y-68489707D01*
X212010292Y-68378213D01*
X212010288Y-68378210D01*
X211879185Y-68290609D01*
X211879172Y-68290602D01*
X211733501Y-68230264D01*
X211733489Y-68230261D01*
X211578845Y-68199500D01*
X211578842Y-68199500D01*
X211421158Y-68199500D01*
X211421155Y-68199500D01*
X211266510Y-68230261D01*
X211266498Y-68230264D01*
X211120827Y-68290602D01*
X211120814Y-68290609D01*
X210989711Y-68378210D01*
X210989707Y-68378213D01*
X210878213Y-68489707D01*
X210878210Y-68489711D01*
X210790609Y-68620814D01*
X210790602Y-68620827D01*
X210730264Y-68766498D01*
X210730261Y-68766510D01*
X210699500Y-68921153D01*
X177500500Y-68921153D01*
X177500500Y-67421153D01*
X218299500Y-67421153D01*
X218299500Y-67578846D01*
X218330261Y-67733489D01*
X218330264Y-67733501D01*
X218390602Y-67879172D01*
X218390609Y-67879185D01*
X218478210Y-68010288D01*
X218478213Y-68010292D01*
X218589707Y-68121786D01*
X218589711Y-68121789D01*
X218720814Y-68209390D01*
X218720827Y-68209397D01*
X218866498Y-68269735D01*
X218866503Y-68269737D01*
X219021153Y-68300499D01*
X219021156Y-68300500D01*
X219021158Y-68300500D01*
X219178844Y-68300500D01*
X219178845Y-68300499D01*
X219333497Y-68269737D01*
X219479179Y-68209394D01*
X219610289Y-68121789D01*
X219721789Y-68010289D01*
X219809394Y-67879179D01*
X219869737Y-67733497D01*
X219900500Y-67578842D01*
X219900500Y-67421158D01*
X219900500Y-67421155D01*
X219900499Y-67421153D01*
X219892900Y-67382951D01*
X219869737Y-67266503D01*
X219869735Y-67266498D01*
X219809397Y-67120827D01*
X219809390Y-67120814D01*
X219721789Y-66989711D01*
X219721786Y-66989707D01*
X219610292Y-66878213D01*
X219610288Y-66878210D01*
X219479185Y-66790609D01*
X219479172Y-66790602D01*
X219333501Y-66730264D01*
X219333489Y-66730261D01*
X219178845Y-66699500D01*
X219178842Y-66699500D01*
X219021158Y-66699500D01*
X219021155Y-66699500D01*
X218866510Y-66730261D01*
X218866498Y-66730264D01*
X218720827Y-66790602D01*
X218720814Y-66790609D01*
X218589711Y-66878210D01*
X218589707Y-66878213D01*
X218478213Y-66989707D01*
X218478210Y-66989711D01*
X218390609Y-67120814D01*
X218390602Y-67120827D01*
X218330264Y-67266498D01*
X218330261Y-67266510D01*
X218299500Y-67421153D01*
X177500500Y-67421153D01*
X177500500Y-66421153D01*
X220399500Y-66421153D01*
X220399500Y-66578846D01*
X220430261Y-66733489D01*
X220430264Y-66733501D01*
X220490602Y-66879172D01*
X220490609Y-66879185D01*
X220578210Y-67010288D01*
X220578213Y-67010292D01*
X220689707Y-67121786D01*
X220689711Y-67121789D01*
X220820814Y-67209390D01*
X220820827Y-67209397D01*
X220960018Y-67267051D01*
X220966503Y-67269737D01*
X221121153Y-67300499D01*
X221121156Y-67300500D01*
X221121158Y-67300500D01*
X221278844Y-67300500D01*
X221278845Y-67300499D01*
X221433497Y-67269737D01*
X221579179Y-67209394D01*
X221710289Y-67121789D01*
X221821789Y-67010289D01*
X221909394Y-66879179D01*
X221911572Y-66873920D01*
X234449499Y-66873920D01*
X234478340Y-67018907D01*
X234478343Y-67018917D01*
X234534912Y-67155488D01*
X234534919Y-67155501D01*
X234617048Y-67278415D01*
X234617051Y-67278419D01*
X234721580Y-67382948D01*
X234721584Y-67382951D01*
X234844498Y-67465080D01*
X234844511Y-67465087D01*
X234981082Y-67521656D01*
X234981087Y-67521658D01*
X234981091Y-67521658D01*
X234981092Y-67521659D01*
X235126079Y-67550500D01*
X235126082Y-67550500D01*
X235273920Y-67550500D01*
X235371462Y-67531096D01*
X235418913Y-67521658D01*
X235468979Y-67500920D01*
X247249499Y-67500920D01*
X247278340Y-67645907D01*
X247278343Y-67645917D01*
X247334912Y-67782488D01*
X247334919Y-67782501D01*
X247417048Y-67905415D01*
X247417051Y-67905419D01*
X247521580Y-68009948D01*
X247521584Y-68009951D01*
X247644498Y-68092080D01*
X247644511Y-68092087D01*
X247716219Y-68121789D01*
X247781087Y-68148658D01*
X247781091Y-68148658D01*
X247781092Y-68148659D01*
X247926079Y-68177500D01*
X247926082Y-68177500D01*
X248073920Y-68177500D01*
X248171462Y-68158096D01*
X248218913Y-68148658D01*
X248355495Y-68092084D01*
X248478416Y-68009951D01*
X248564447Y-67923920D01*
X249249499Y-67923920D01*
X249278340Y-68068907D01*
X249278343Y-68068917D01*
X249334912Y-68205488D01*
X249334919Y-68205501D01*
X249417048Y-68328415D01*
X249417051Y-68328419D01*
X249521580Y-68432948D01*
X249521584Y-68432951D01*
X249644498Y-68515080D01*
X249644511Y-68515087D01*
X249781082Y-68571656D01*
X249781087Y-68571658D01*
X249781091Y-68571658D01*
X249781092Y-68571659D01*
X249926079Y-68600500D01*
X249926082Y-68600500D01*
X250073920Y-68600500D01*
X250171462Y-68581096D01*
X250218913Y-68571658D01*
X250350751Y-68517049D01*
X250355488Y-68515087D01*
X250355488Y-68515086D01*
X250355495Y-68515084D01*
X250360164Y-68511964D01*
X250360165Y-68511964D01*
X250478416Y-68432951D01*
X250582948Y-68328419D01*
X250582951Y-68328416D01*
X250665084Y-68205495D01*
X250721658Y-68068913D01*
X250737235Y-67990606D01*
X250750500Y-67923920D01*
X250750500Y-67776079D01*
X250721659Y-67631092D01*
X250721658Y-67631091D01*
X250721658Y-67631087D01*
X250700019Y-67578846D01*
X250665087Y-67494511D01*
X250665080Y-67494498D01*
X250582951Y-67371584D01*
X250582948Y-67371580D01*
X250478419Y-67267051D01*
X250478415Y-67267048D01*
X250355501Y-67184919D01*
X250355488Y-67184912D01*
X250218917Y-67128343D01*
X250218907Y-67128340D01*
X250073920Y-67099500D01*
X250073918Y-67099500D01*
X249926082Y-67099500D01*
X249926080Y-67099500D01*
X249781092Y-67128340D01*
X249781082Y-67128343D01*
X249644511Y-67184912D01*
X249644498Y-67184919D01*
X249521584Y-67267048D01*
X249521580Y-67267051D01*
X249417051Y-67371580D01*
X249417048Y-67371584D01*
X249334919Y-67494498D01*
X249334912Y-67494511D01*
X249278343Y-67631082D01*
X249278340Y-67631092D01*
X249249500Y-67776079D01*
X249249500Y-67776082D01*
X249249500Y-67923918D01*
X249249500Y-67923920D01*
X249249499Y-67923920D01*
X248564447Y-67923920D01*
X248582951Y-67905416D01*
X248665084Y-67782495D01*
X248665085Y-67782492D01*
X248665087Y-67782489D01*
X248689919Y-67722538D01*
X248689919Y-67722537D01*
X248707088Y-67681087D01*
X248721658Y-67645913D01*
X248741831Y-67544498D01*
X248750500Y-67500920D01*
X248750500Y-67353079D01*
X248721659Y-67208092D01*
X248721658Y-67208091D01*
X248721658Y-67208087D01*
X248709337Y-67178342D01*
X248665087Y-67071511D01*
X248665080Y-67071498D01*
X248582951Y-66948584D01*
X248582948Y-66948580D01*
X248478419Y-66844051D01*
X248478415Y-66844048D01*
X248355501Y-66761919D01*
X248355488Y-66761912D01*
X248218917Y-66705343D01*
X248218907Y-66705340D01*
X248073920Y-66676500D01*
X248073918Y-66676500D01*
X247926082Y-66676500D01*
X247926080Y-66676500D01*
X247781092Y-66705340D01*
X247781082Y-66705343D01*
X247644511Y-66761912D01*
X247644498Y-66761919D01*
X247521584Y-66844048D01*
X247521580Y-66844051D01*
X247417051Y-66948580D01*
X247417048Y-66948584D01*
X247334919Y-67071498D01*
X247334912Y-67071511D01*
X247278343Y-67208082D01*
X247278340Y-67208092D01*
X247249500Y-67353079D01*
X247249500Y-67353082D01*
X247249500Y-67500918D01*
X247249500Y-67500920D01*
X247249499Y-67500920D01*
X235468979Y-67500920D01*
X235555495Y-67465084D01*
X235678416Y-67382951D01*
X235782951Y-67278416D01*
X235865084Y-67155495D01*
X235921658Y-67018913D01*
X235935648Y-66948584D01*
X235950500Y-66873920D01*
X235950500Y-66726079D01*
X235921659Y-66581092D01*
X235921658Y-66581091D01*
X235921658Y-66581087D01*
X235894317Y-66515080D01*
X235865087Y-66444511D01*
X235865080Y-66444498D01*
X235782951Y-66321584D01*
X235782948Y-66321580D01*
X235678419Y-66217051D01*
X235678415Y-66217048D01*
X235555501Y-66134919D01*
X235555488Y-66134912D01*
X235418917Y-66078343D01*
X235418907Y-66078340D01*
X235273920Y-66049500D01*
X235273918Y-66049500D01*
X235126082Y-66049500D01*
X235126080Y-66049500D01*
X234981092Y-66078340D01*
X234981082Y-66078343D01*
X234844511Y-66134912D01*
X234844498Y-66134919D01*
X234721584Y-66217048D01*
X234721580Y-66217051D01*
X234617051Y-66321580D01*
X234617048Y-66321584D01*
X234534919Y-66444498D01*
X234534912Y-66444511D01*
X234478343Y-66581082D01*
X234478340Y-66581092D01*
X234449500Y-66726079D01*
X234449500Y-66726082D01*
X234449500Y-66873918D01*
X234449500Y-66873920D01*
X234449499Y-66873920D01*
X221911572Y-66873920D01*
X221969737Y-66733497D01*
X221975337Y-66705343D01*
X221977236Y-66695799D01*
X221977236Y-66695798D01*
X222000500Y-66578844D01*
X222000500Y-66421155D01*
X222000499Y-66421153D01*
X221988595Y-66361309D01*
X221969737Y-66266503D01*
X221950470Y-66219987D01*
X221909397Y-66120827D01*
X221909390Y-66120814D01*
X221821789Y-65989711D01*
X221821786Y-65989707D01*
X221710292Y-65878213D01*
X221710288Y-65878210D01*
X221579185Y-65790609D01*
X221579172Y-65790602D01*
X221433501Y-65730264D01*
X221433489Y-65730261D01*
X221278845Y-65699500D01*
X221278842Y-65699500D01*
X221121158Y-65699500D01*
X221121155Y-65699500D01*
X220966510Y-65730261D01*
X220966498Y-65730264D01*
X220820827Y-65790602D01*
X220820814Y-65790609D01*
X220689711Y-65878210D01*
X220689707Y-65878213D01*
X220578213Y-65989707D01*
X220578210Y-65989711D01*
X220490609Y-66120814D01*
X220490602Y-66120827D01*
X220430264Y-66266498D01*
X220430261Y-66266510D01*
X220399500Y-66421153D01*
X177500500Y-66421153D01*
X177500500Y-62004427D01*
X177500816Y-61995581D01*
X177515130Y-61795436D01*
X177517646Y-61777938D01*
X177550446Y-61627155D01*
X188510000Y-61627155D01*
X188510000Y-62275000D01*
X189426988Y-62275000D01*
X189394075Y-62332007D01*
X189360000Y-62459174D01*
X189360000Y-62590826D01*
X189394075Y-62717993D01*
X189426988Y-62775000D01*
X188510000Y-62775000D01*
X188510000Y-63422844D01*
X188516401Y-63482372D01*
X188516403Y-63482379D01*
X188566645Y-63617086D01*
X188566649Y-63617093D01*
X188652809Y-63732187D01*
X188652812Y-63732190D01*
X188767906Y-63818350D01*
X188767913Y-63818354D01*
X188902620Y-63868596D01*
X188902627Y-63868598D01*
X188962155Y-63874999D01*
X188962172Y-63875000D01*
X189610000Y-63875000D01*
X189610000Y-62958012D01*
X189667007Y-62990925D01*
X189794174Y-63025000D01*
X189925826Y-63025000D01*
X190052993Y-62990925D01*
X190110000Y-62958012D01*
X190110000Y-63875000D01*
X190757828Y-63875000D01*
X190757844Y-63874999D01*
X190817372Y-63868598D01*
X190817379Y-63868596D01*
X190952086Y-63818354D01*
X190952093Y-63818350D01*
X191067187Y-63732190D01*
X191067190Y-63732187D01*
X191153350Y-63617093D01*
X191153354Y-63617086D01*
X191202422Y-63485529D01*
X191244293Y-63429595D01*
X191309757Y-63405178D01*
X191378030Y-63420030D01*
X191406285Y-63441181D01*
X191520213Y-63555109D01*
X191692179Y-63680048D01*
X191692181Y-63680049D01*
X191692184Y-63680051D01*
X191881588Y-63776557D01*
X192083757Y-63842246D01*
X192293713Y-63875500D01*
X192293714Y-63875500D01*
X192506286Y-63875500D01*
X192506287Y-63875500D01*
X192716243Y-63842246D01*
X192918412Y-63776557D01*
X193107816Y-63680051D01*
X193162572Y-63640269D01*
X193279786Y-63555109D01*
X193279788Y-63555106D01*
X193279792Y-63555104D01*
X193430104Y-63404792D01*
X193430106Y-63404788D01*
X193430109Y-63404786D01*
X193555048Y-63232820D01*
X193555050Y-63232817D01*
X193555051Y-63232816D01*
X193559514Y-63224054D01*
X193607488Y-63173259D01*
X193675308Y-63156463D01*
X193741444Y-63178999D01*
X193780486Y-63224056D01*
X193784951Y-63232820D01*
X193909890Y-63404786D01*
X194060213Y-63555109D01*
X194232179Y-63680048D01*
X194232181Y-63680049D01*
X194232184Y-63680051D01*
X194421588Y-63776557D01*
X194623757Y-63842246D01*
X194833713Y-63875500D01*
X194833714Y-63875500D01*
X195046286Y-63875500D01*
X195046287Y-63875500D01*
X195256243Y-63842246D01*
X195458412Y-63776557D01*
X195647816Y-63680051D01*
X195702572Y-63640269D01*
X195819786Y-63555109D01*
X195819788Y-63555106D01*
X195819792Y-63555104D01*
X195970104Y-63404792D01*
X195970106Y-63404788D01*
X195970109Y-63404786D01*
X196095048Y-63232820D01*
X196095050Y-63232817D01*
X196095051Y-63232816D01*
X196099514Y-63224054D01*
X196147488Y-63173259D01*
X196215308Y-63156463D01*
X196281444Y-63178999D01*
X196320486Y-63224056D01*
X196324951Y-63232820D01*
X196449890Y-63404786D01*
X196600213Y-63555109D01*
X196772179Y-63680048D01*
X196772181Y-63680049D01*
X196772184Y-63680051D01*
X196961588Y-63776557D01*
X197163757Y-63842246D01*
X197373713Y-63875500D01*
X197373714Y-63875500D01*
X197586286Y-63875500D01*
X197586287Y-63875500D01*
X197796243Y-63842246D01*
X197998412Y-63776557D01*
X198187816Y-63680051D01*
X198242572Y-63640269D01*
X198359786Y-63555109D01*
X198359788Y-63555106D01*
X198359792Y-63555104D01*
X198510104Y-63404792D01*
X198510106Y-63404788D01*
X198510109Y-63404786D01*
X198635048Y-63232820D01*
X198635050Y-63232817D01*
X198635051Y-63232816D01*
X198639514Y-63224054D01*
X198687488Y-63173259D01*
X198755308Y-63156463D01*
X198821444Y-63178999D01*
X198860486Y-63224056D01*
X198864951Y-63232820D01*
X198989890Y-63404786D01*
X199140213Y-63555109D01*
X199312179Y-63680048D01*
X199312181Y-63680049D01*
X199312184Y-63680051D01*
X199501588Y-63776557D01*
X199703757Y-63842246D01*
X199913713Y-63875500D01*
X199913714Y-63875500D01*
X200126286Y-63875500D01*
X200126287Y-63875500D01*
X200336243Y-63842246D01*
X200538412Y-63776557D01*
X200727816Y-63680051D01*
X200782572Y-63640269D01*
X200899786Y-63555109D01*
X200899788Y-63555106D01*
X200899792Y-63555104D01*
X201050104Y-63404792D01*
X201050106Y-63404788D01*
X201050109Y-63404786D01*
X201175048Y-63232820D01*
X201175050Y-63232817D01*
X201175051Y-63232816D01*
X201271557Y-63043412D01*
X201337246Y-62841243D01*
X201370500Y-62631287D01*
X201370500Y-62418753D01*
X202930000Y-62418753D01*
X202930000Y-62631246D01*
X202963242Y-62841127D01*
X202963242Y-62841130D01*
X203028904Y-63043217D01*
X203125375Y-63232550D01*
X203164728Y-63286716D01*
X203797037Y-62654408D01*
X203814075Y-62717993D01*
X203879901Y-62832007D01*
X203972993Y-62925099D01*
X204087007Y-62990925D01*
X204150590Y-63007962D01*
X203518282Y-63640269D01*
X203518282Y-63640270D01*
X203572449Y-63679624D01*
X203761782Y-63776095D01*
X203963870Y-63841757D01*
X204173754Y-63875000D01*
X204386246Y-63875000D01*
X204596127Y-63841757D01*
X204596130Y-63841757D01*
X204798217Y-63776095D01*
X204987554Y-63679622D01*
X205041716Y-63640270D01*
X205041717Y-63640270D01*
X204409408Y-63007962D01*
X204472993Y-62990925D01*
X204587007Y-62925099D01*
X204680099Y-62832007D01*
X204745925Y-62717993D01*
X204762962Y-62654409D01*
X205395270Y-63286717D01*
X205395270Y-63286716D01*
X205434622Y-63232555D01*
X205439232Y-63223507D01*
X205487205Y-63172709D01*
X205555025Y-63155912D01*
X205621161Y-63178447D01*
X205660204Y-63223504D01*
X205664949Y-63232817D01*
X205789890Y-63404786D01*
X205940213Y-63555109D01*
X206112179Y-63680048D01*
X206112181Y-63680049D01*
X206112184Y-63680051D01*
X206301588Y-63776557D01*
X206503757Y-63842246D01*
X206713713Y-63875500D01*
X206713714Y-63875500D01*
X206926286Y-63875500D01*
X206926287Y-63875500D01*
X207136243Y-63842246D01*
X207338412Y-63776557D01*
X207527816Y-63680051D01*
X207582572Y-63640269D01*
X207699786Y-63555109D01*
X207699788Y-63555106D01*
X207699792Y-63555104D01*
X207850104Y-63404792D01*
X207850106Y-63404788D01*
X207850109Y-63404786D01*
X207975048Y-63232820D01*
X207975050Y-63232817D01*
X207975051Y-63232816D01*
X207979514Y-63224054D01*
X208027488Y-63173259D01*
X208095308Y-63156463D01*
X208161444Y-63178999D01*
X208200486Y-63224056D01*
X208204951Y-63232820D01*
X208329890Y-63404786D01*
X208480213Y-63555109D01*
X208652179Y-63680048D01*
X208652181Y-63680049D01*
X208652184Y-63680051D01*
X208841588Y-63776557D01*
X209043757Y-63842246D01*
X209253713Y-63875500D01*
X209253714Y-63875500D01*
X209466286Y-63875500D01*
X209466287Y-63875500D01*
X209676243Y-63842246D01*
X209878412Y-63776557D01*
X210067816Y-63680051D01*
X210154471Y-63617093D01*
X210239784Y-63555110D01*
X210239784Y-63555109D01*
X210239792Y-63555104D01*
X210353329Y-63441566D01*
X210414648Y-63408084D01*
X210484340Y-63413068D01*
X210540274Y-63454939D01*
X210557189Y-63485917D01*
X210606202Y-63617328D01*
X210606206Y-63617335D01*
X210692452Y-63732544D01*
X210692455Y-63732547D01*
X210807664Y-63818793D01*
X210807671Y-63818797D01*
X210942517Y-63869091D01*
X210942516Y-63869091D01*
X210949444Y-63869835D01*
X211002127Y-63875500D01*
X212797872Y-63875499D01*
X212857483Y-63869091D01*
X212992331Y-63818796D01*
X213107546Y-63732546D01*
X213193796Y-63617331D01*
X213244091Y-63482483D01*
X213250500Y-63422873D01*
X213250499Y-61627128D01*
X213244091Y-61567517D01*
X213242810Y-61564083D01*
X213193797Y-61432671D01*
X213193793Y-61432664D01*
X213107547Y-61317455D01*
X213107544Y-61317452D01*
X212992335Y-61231206D01*
X212992328Y-61231202D01*
X212857482Y-61180908D01*
X212857483Y-61180908D01*
X212797883Y-61174501D01*
X212797881Y-61174500D01*
X212797873Y-61174500D01*
X212797864Y-61174500D01*
X211002129Y-61174500D01*
X211002123Y-61174501D01*
X210942516Y-61180908D01*
X210807671Y-61231202D01*
X210807664Y-61231206D01*
X210692455Y-61317452D01*
X210692452Y-61317455D01*
X210606206Y-61432664D01*
X210606203Y-61432669D01*
X210557189Y-61564083D01*
X210515317Y-61620016D01*
X210449853Y-61644433D01*
X210381580Y-61629581D01*
X210353326Y-61608430D01*
X210239786Y-61494890D01*
X210067820Y-61369951D01*
X209878414Y-61273444D01*
X209878413Y-61273443D01*
X209878412Y-61273443D01*
X209676243Y-61207754D01*
X209676241Y-61207753D01*
X209676240Y-61207753D01*
X209514957Y-61182208D01*
X209466287Y-61174500D01*
X209253713Y-61174500D01*
X209205042Y-61182208D01*
X209043760Y-61207753D01*
X208841585Y-61273444D01*
X208652179Y-61369951D01*
X208480213Y-61494890D01*
X208329890Y-61645213D01*
X208204949Y-61817182D01*
X208200484Y-61825946D01*
X208152509Y-61876742D01*
X208084688Y-61893536D01*
X208018553Y-61870998D01*
X207979516Y-61825946D01*
X207975050Y-61817182D01*
X207850109Y-61645213D01*
X207699786Y-61494890D01*
X207527820Y-61369951D01*
X207338414Y-61273444D01*
X207338413Y-61273443D01*
X207338412Y-61273443D01*
X207136243Y-61207754D01*
X207136241Y-61207753D01*
X207136240Y-61207753D01*
X206974957Y-61182208D01*
X206926287Y-61174500D01*
X206713713Y-61174500D01*
X206665042Y-61182208D01*
X206503760Y-61207753D01*
X206301585Y-61273444D01*
X206112179Y-61369951D01*
X205940213Y-61494890D01*
X205789890Y-61645213D01*
X205664949Y-61817182D01*
X205660202Y-61826499D01*
X205612227Y-61877293D01*
X205544405Y-61894087D01*
X205478271Y-61871548D01*
X205439234Y-61826495D01*
X205434626Y-61817452D01*
X205395270Y-61763282D01*
X205395269Y-61763282D01*
X204762962Y-62395590D01*
X204745925Y-62332007D01*
X204680099Y-62217993D01*
X204587007Y-62124901D01*
X204472993Y-62059075D01*
X204409409Y-62042037D01*
X205041716Y-61409728D01*
X204987550Y-61370375D01*
X204798217Y-61273904D01*
X204596129Y-61208242D01*
X204386246Y-61175000D01*
X204173754Y-61175000D01*
X203963872Y-61208242D01*
X203963869Y-61208242D01*
X203761782Y-61273904D01*
X203572439Y-61370380D01*
X203518282Y-61409727D01*
X203518282Y-61409728D01*
X204150591Y-62042037D01*
X204087007Y-62059075D01*
X203972993Y-62124901D01*
X203879901Y-62217993D01*
X203814075Y-62332007D01*
X203797037Y-62395591D01*
X203164728Y-61763282D01*
X203164727Y-61763282D01*
X203125380Y-61817439D01*
X203028904Y-62006782D01*
X202963242Y-62208869D01*
X202963242Y-62208872D01*
X202930000Y-62418753D01*
X201370500Y-62418753D01*
X201370500Y-62418713D01*
X201337246Y-62208757D01*
X201271557Y-62006588D01*
X201175051Y-61817184D01*
X201175049Y-61817181D01*
X201175048Y-61817179D01*
X201050109Y-61645213D01*
X200899786Y-61494890D01*
X200727820Y-61369951D01*
X200538414Y-61273444D01*
X200538413Y-61273443D01*
X200538412Y-61273443D01*
X200336243Y-61207754D01*
X200336241Y-61207753D01*
X200336240Y-61207753D01*
X200174957Y-61182208D01*
X200126287Y-61174500D01*
X199913713Y-61174500D01*
X199865042Y-61182208D01*
X199703760Y-61207753D01*
X199501585Y-61273444D01*
X199312179Y-61369951D01*
X199140213Y-61494890D01*
X198989890Y-61645213D01*
X198864949Y-61817182D01*
X198860484Y-61825946D01*
X198812509Y-61876742D01*
X198744688Y-61893536D01*
X198678553Y-61870998D01*
X198639516Y-61825946D01*
X198635050Y-61817182D01*
X198510109Y-61645213D01*
X198359786Y-61494890D01*
X198187820Y-61369951D01*
X197998414Y-61273444D01*
X197998413Y-61273443D01*
X197998412Y-61273443D01*
X197796243Y-61207754D01*
X197796241Y-61207753D01*
X197796240Y-61207753D01*
X197634957Y-61182208D01*
X197586287Y-61174500D01*
X197373713Y-61174500D01*
X197325042Y-61182208D01*
X197163760Y-61207753D01*
X196961585Y-61273444D01*
X196772179Y-61369951D01*
X196600213Y-61494890D01*
X196449890Y-61645213D01*
X196324949Y-61817182D01*
X196320484Y-61825946D01*
X196272509Y-61876742D01*
X196204688Y-61893536D01*
X196138553Y-61870998D01*
X196099516Y-61825946D01*
X196095050Y-61817182D01*
X195970109Y-61645213D01*
X195819786Y-61494890D01*
X195647820Y-61369951D01*
X195458414Y-61273444D01*
X195458413Y-61273443D01*
X195458412Y-61273443D01*
X195256243Y-61207754D01*
X195256241Y-61207753D01*
X195256240Y-61207753D01*
X195094957Y-61182208D01*
X195046287Y-61174500D01*
X194833713Y-61174500D01*
X194785042Y-61182208D01*
X194623760Y-61207753D01*
X194421585Y-61273444D01*
X194232179Y-61369951D01*
X194060213Y-61494890D01*
X193909890Y-61645213D01*
X193784949Y-61817182D01*
X193780484Y-61825946D01*
X193732509Y-61876742D01*
X193664688Y-61893536D01*
X193598553Y-61870998D01*
X193559516Y-61825946D01*
X193555050Y-61817182D01*
X193430109Y-61645213D01*
X193279786Y-61494890D01*
X193107820Y-61369951D01*
X192918414Y-61273444D01*
X192918413Y-61273443D01*
X192918412Y-61273443D01*
X192716243Y-61207754D01*
X192716241Y-61207753D01*
X192716240Y-61207753D01*
X192554957Y-61182208D01*
X192506287Y-61174500D01*
X192293713Y-61174500D01*
X192245042Y-61182208D01*
X192083760Y-61207753D01*
X191881585Y-61273444D01*
X191692179Y-61369951D01*
X191520215Y-61494889D01*
X191406285Y-61608819D01*
X191344962Y-61642303D01*
X191275270Y-61637319D01*
X191219337Y-61595447D01*
X191202422Y-61564470D01*
X191153354Y-61432913D01*
X191153350Y-61432906D01*
X191067190Y-61317812D01*
X191067187Y-61317809D01*
X190952093Y-61231649D01*
X190952086Y-61231645D01*
X190817379Y-61181403D01*
X190817372Y-61181401D01*
X190757844Y-61175000D01*
X190110000Y-61175000D01*
X190110000Y-62091988D01*
X190052993Y-62059075D01*
X189925826Y-62025000D01*
X189794174Y-62025000D01*
X189667007Y-62059075D01*
X189610000Y-62091988D01*
X189610000Y-61175000D01*
X188962155Y-61175000D01*
X188902627Y-61181401D01*
X188902620Y-61181403D01*
X188767913Y-61231645D01*
X188767906Y-61231649D01*
X188652812Y-61317809D01*
X188652809Y-61317812D01*
X188566649Y-61432906D01*
X188566645Y-61432913D01*
X188516403Y-61567620D01*
X188516401Y-61567627D01*
X188510000Y-61627155D01*
X177550446Y-61627155D01*
X177559358Y-61586189D01*
X177564335Y-61569242D01*
X177632911Y-61385382D01*
X177640251Y-61369310D01*
X177734294Y-61197083D01*
X177743850Y-61182214D01*
X177861443Y-61025128D01*
X177873017Y-61011771D01*
X178011771Y-60873017D01*
X178025128Y-60861443D01*
X178182214Y-60743850D01*
X178197083Y-60734294D01*
X178369310Y-60640251D01*
X178385382Y-60632911D01*
X178569242Y-60564335D01*
X178586200Y-60559356D01*
X178777938Y-60517646D01*
X178795436Y-60515130D01*
X178995582Y-60500816D01*
X179004428Y-60500500D01*
X179065892Y-60500500D01*
X223744903Y-60500500D01*
X223806380Y-60500500D01*
X223815198Y-60500813D01*
G37*
%TD.AperFunction*%
%TD*%
%TA.AperFunction,Conductor*%
%TO.N,GND*%
G36*
X188000000Y-94500000D02*
G01*
X185000000Y-94500000D01*
X185000000Y-90221153D01*
X185699500Y-90221153D01*
X185699500Y-90378846D01*
X185730261Y-90533489D01*
X185730264Y-90533501D01*
X185790602Y-90679172D01*
X185790609Y-90679185D01*
X185878210Y-90810288D01*
X185878213Y-90810292D01*
X185989707Y-90921786D01*
X185989711Y-90921789D01*
X186120814Y-91009390D01*
X186120827Y-91009397D01*
X186266498Y-91069735D01*
X186266503Y-91069737D01*
X186421153Y-91100499D01*
X186421156Y-91100500D01*
X186421158Y-91100500D01*
X186578844Y-91100500D01*
X186578845Y-91100499D01*
X186733497Y-91069737D01*
X186879179Y-91009394D01*
X187010289Y-90921789D01*
X187121789Y-90810289D01*
X187209394Y-90679179D01*
X187269737Y-90533497D01*
X187300500Y-90378842D01*
X187300500Y-90221158D01*
X187300500Y-90221155D01*
X187300499Y-90221153D01*
X187269738Y-90066510D01*
X187269737Y-90066503D01*
X187269735Y-90066498D01*
X187209397Y-89920827D01*
X187209390Y-89920814D01*
X187121789Y-89789711D01*
X187121786Y-89789707D01*
X187010292Y-89678213D01*
X187010288Y-89678210D01*
X186879185Y-89590609D01*
X186879172Y-89590602D01*
X186733501Y-89530264D01*
X186733489Y-89530261D01*
X186578845Y-89499500D01*
X186578842Y-89499500D01*
X186421158Y-89499500D01*
X186421155Y-89499500D01*
X186266510Y-89530261D01*
X186266498Y-89530264D01*
X186120827Y-89590602D01*
X186120814Y-89590609D01*
X185989711Y-89678210D01*
X185989707Y-89678213D01*
X185878213Y-89789707D01*
X185878210Y-89789711D01*
X185790609Y-89920814D01*
X185790602Y-89920827D01*
X185730264Y-90066498D01*
X185730261Y-90066510D01*
X185699500Y-90221153D01*
X185000000Y-90221153D01*
X185000000Y-88500000D01*
X188000000Y-88500000D01*
X188000000Y-94500000D01*
G37*
%TD.AperFunction*%
%TD*%
M02*
