%TF.GenerationSoftware,KiCad,Pcbnew,10.0.4*%
%TF.CreationDate,2026-09-09T23:07:52+05:00*%
%TF.ProjectId,ESP32 Project,45535033-3220-4507-926f-6a6563742e6b,rev?*%
%TF.SameCoordinates,Original*%
%TF.FileFunction,Paste,Top*%
%TF.FilePolarity,Positive*%
%FSLAX46Y46*%
G04 Gerber Fmt 4.6, Leading zero omitted, Abs format (unit mm)*
G04 Created by KiCad (PCBNEW 10.0.4) date 2026-09-09 23:07:52*
%MOMM*%
%LPD*%
G01*
G04 APERTURE LIST*
G04 Aperture macros list*
%AMRoundRect*
0 Rectangle with rounded corners*
0 $1 Rounding radius*
0 $2 $3 $4 $5 $6 $7 $8 $9 X,Y pos of 4 corners*
0 Add a 4 corners polygon primitive as box body*
4,1,4,$2,$3,$4,$5,$6,$7,$8,$9,$2,$3,0*
0 Add four circle primitives for the rounded corners*
1,1,$1+$1,$2,$3*
1,1,$1+$1,$4,$5*
1,1,$1+$1,$6,$7*
1,1,$1+$1,$8,$9*
0 Add four rect primitives between the rounded corners*
20,1,$1+$1,$2,$3,$4,$5,0*
20,1,$1+$1,$4,$5,$6,$7,0*
20,1,$1+$1,$6,$7,$8,$9,0*
20,1,$1+$1,$8,$9,$2,$3,0*%
%AMFreePoly0*
4,1,14,0.289644,0.110355,0.410355,-0.010356,0.425000,-0.045711,0.425000,-0.075000,0.410355,-0.110355,0.375000,-0.125000,-0.375000,-0.125000,-0.410355,-0.110355,-0.425000,-0.075000,-0.425000,0.075000,-0.410355,0.110355,-0.375000,0.125000,0.254289,0.125000,0.289644,0.110355,0.289644,0.110355,$1*%
%AMFreePoly1*
4,1,14,0.410355,0.110355,0.425000,0.075000,0.425000,0.045711,0.410355,0.010356,0.289644,-0.110355,0.254289,-0.125000,-0.375000,-0.125000,-0.410355,-0.110355,-0.425000,-0.075000,-0.425000,0.075000,-0.410355,0.110355,-0.375000,0.125000,0.375000,0.125000,0.410355,0.110355,0.410355,0.110355,$1*%
%AMFreePoly2*
4,1,14,0.110355,0.410355,0.125000,0.375000,0.125000,-0.375000,0.110355,-0.410355,0.075000,-0.425000,-0.075000,-0.425000,-0.110355,-0.410355,-0.125000,-0.375000,-0.125000,0.254289,-0.110355,0.289644,0.010356,0.410355,0.045711,0.425000,0.075000,0.425000,0.110355,0.410355,0.110355,0.410355,$1*%
%AMFreePoly3*
4,1,14,-0.010356,0.410355,0.110355,0.289644,0.125000,0.254289,0.125000,-0.375000,0.110355,-0.410355,0.075000,-0.425000,-0.075000,-0.425000,-0.110355,-0.410355,-0.125000,-0.375000,-0.125000,0.375000,-0.110355,0.410355,-0.075000,0.425000,-0.045711,0.425000,-0.010356,0.410355,-0.010356,0.410355,$1*%
%AMFreePoly4*
4,1,14,0.410355,0.110355,0.425000,0.075000,0.425000,-0.075000,0.410355,-0.110355,0.375000,-0.125000,-0.254289,-0.125000,-0.289644,-0.110355,-0.410355,0.010356,-0.425000,0.045711,-0.425000,0.075000,-0.410355,0.110355,-0.375000,0.125000,0.375000,0.125000,0.410355,0.110355,0.410355,0.110355,$1*%
%AMFreePoly5*
4,1,14,0.410355,0.110355,0.425000,0.075000,0.425000,-0.075000,0.410355,-0.110355,0.375000,-0.125000,-0.375000,-0.125000,-0.410355,-0.110355,-0.425000,-0.075000,-0.425000,-0.045711,-0.410355,-0.010356,-0.289644,0.110355,-0.254289,0.125000,0.375000,0.125000,0.410355,0.110355,0.410355,0.110355,$1*%
%AMFreePoly6*
4,1,14,0.110355,0.410355,0.125000,0.375000,0.125000,-0.254289,0.110355,-0.289644,-0.010356,-0.410355,-0.045711,-0.425000,-0.075000,-0.425000,-0.110355,-0.410355,-0.125000,-0.375000,-0.125000,0.375000,-0.110355,0.410355,-0.075000,0.425000,0.075000,0.425000,0.110355,0.410355,0.110355,0.410355,$1*%
%AMFreePoly7*
4,1,14,0.110355,0.410355,0.125000,0.375000,0.125000,-0.375000,0.110355,-0.410355,0.075000,-0.425000,0.045711,-0.425000,0.010356,-0.410355,-0.110355,-0.289644,-0.125000,-0.254289,-0.125000,0.375000,-0.110355,0.410355,-0.075000,0.425000,0.075000,0.425000,0.110355,0.410355,0.110355,0.410355,$1*%
G04 Aperture macros list end*
%ADD10R,1.100000X0.800000*%
%ADD11R,1.100000X1.000000*%
%ADD12RoundRect,0.147500X-0.442500X-1.257500X0.442500X-1.257500X0.442500X1.257500X-0.442500X1.257500X0*%
%ADD13RoundRect,0.250000X0.450000X-0.262500X0.450000X0.262500X-0.450000X0.262500X-0.450000X-0.262500X0*%
%ADD14RoundRect,0.250000X0.450000X-0.325000X0.450000X0.325000X-0.450000X0.325000X-0.450000X-0.325000X0*%
%ADD15RoundRect,0.250000X0.255000X0.255000X-0.255000X0.255000X-0.255000X-0.255000X0.255000X-0.255000X0*%
%ADD16RoundRect,0.062500X0.350000X0.062500X-0.350000X0.062500X-0.350000X-0.062500X0.350000X-0.062500X0*%
%ADD17RoundRect,0.062500X0.062500X0.350000X-0.062500X0.350000X-0.062500X-0.350000X0.062500X-0.350000X0*%
%ADD18R,0.550000X0.570000*%
%ADD19RoundRect,0.250000X-0.250000X-0.475000X0.250000X-0.475000X0.250000X0.475000X-0.250000X0.475000X0*%
%ADD20RoundRect,0.250000X0.250000X0.475000X-0.250000X0.475000X-0.250000X-0.475000X0.250000X-0.475000X0*%
%ADD21RoundRect,0.250000X0.475000X-0.250000X0.475000X0.250000X-0.475000X0.250000X-0.475000X-0.250000X0*%
%ADD22RoundRect,0.250000X-0.262500X-0.450000X0.262500X-0.450000X0.262500X0.450000X-0.262500X0.450000X0*%
%ADD23RoundRect,0.250000X-0.450000X0.262500X-0.450000X-0.262500X0.450000X-0.262500X0.450000X0.262500X0*%
%ADD24RoundRect,0.250000X-0.475000X0.250000X-0.475000X-0.250000X0.475000X-0.250000X0.475000X0.250000X0*%
%ADD25RoundRect,0.150000X-0.150000X0.512500X-0.150000X-0.512500X0.150000X-0.512500X0.150000X0.512500X0*%
%ADD26O,1.600000X0.600000*%
%ADD27RoundRect,0.250000X0.262500X0.450000X-0.262500X0.450000X-0.262500X-0.450000X0.262500X-0.450000X0*%
%ADD28RoundRect,0.100000X-0.100000X0.495000X-0.100000X-0.495000X0.100000X-0.495000X0.100000X0.495000X0*%
%ADD29RoundRect,0.150000X-0.150000X0.587500X-0.150000X-0.587500X0.150000X-0.587500X0.150000X0.587500X0*%
%ADD30RoundRect,0.250000X0.325000X0.450000X-0.325000X0.450000X-0.325000X-0.450000X0.325000X-0.450000X0*%
%ADD31R,1.500000X0.900000*%
%ADD32R,0.700000X0.700000*%
%ADD33R,0.300000X0.900000*%
%ADD34RoundRect,0.250000X-0.457500X-0.445000X0.457500X-0.445000X0.457500X0.445000X-0.457500X0.445000X0*%
%ADD35RoundRect,0.150000X0.150000X-0.587500X0.150000X0.587500X-0.150000X0.587500X-0.150000X-0.587500X0*%
%ADD36RoundRect,0.160000X0.160000X-0.160000X0.160000X0.160000X-0.160000X0.160000X-0.160000X-0.160000X0*%
%ADD37FreePoly0,90.000000*%
%ADD38RoundRect,0.062500X0.062500X-0.362500X0.062500X0.362500X-0.062500X0.362500X-0.062500X-0.362500X0*%
%ADD39FreePoly1,90.000000*%
%ADD40FreePoly2,90.000000*%
%ADD41RoundRect,0.062500X0.362500X-0.062500X0.362500X0.062500X-0.362500X0.062500X-0.362500X-0.062500X0*%
%ADD42FreePoly3,90.000000*%
%ADD43FreePoly4,90.000000*%
%ADD44FreePoly5,90.000000*%
%ADD45FreePoly6,90.000000*%
%ADD46FreePoly7,90.000000*%
%ADD47R,2.150000X0.950000*%
%ADD48R,2.150000X3.250000*%
%ADD49R,1.000000X1.500000*%
%ADD50R,0.700000X1.500000*%
%ADD51R,1.500000X2.800000*%
%ADD52RoundRect,0.250000X0.445000X-0.457500X0.445000X0.457500X-0.445000X0.457500X-0.445000X-0.457500X0*%
%ADD53RoundRect,0.250000X-0.445000X0.457500X-0.445000X-0.457500X0.445000X-0.457500X0.445000X0.457500X0*%
%ADD54R,1.000000X5.500000*%
%ADD55R,1.600000X3.000000*%
%ADD56RoundRect,0.250000X0.457500X0.445000X-0.457500X0.445000X-0.457500X-0.445000X0.457500X-0.445000X0*%
%ADD57R,0.350000X0.500000*%
G04 APERTURE END LIST*
D10*
%TO.C,Q1*%
X209880000Y-85450000D03*
X209880000Y-84350000D03*
D11*
X206370000Y-84900000D03*
%TD*%
D12*
%TO.C,F1*%
X203915000Y-100800000D03*
X206885000Y-100800000D03*
%TD*%
D13*
%TO.C,R24*%
X223525000Y-64362500D03*
X223525000Y-62537500D03*
%TD*%
D14*
%TO.C,D3*%
X196150000Y-97650000D03*
X196150000Y-95600000D03*
%TD*%
D15*
%TO.C,U1*%
X195901750Y-108215000D03*
X195901750Y-106965000D03*
X194651750Y-108215000D03*
X194651750Y-106965000D03*
D16*
X197214250Y-108590000D03*
X197214250Y-108090000D03*
X197214250Y-107590000D03*
X197214250Y-107090000D03*
X197214250Y-106590000D03*
D17*
X196276750Y-105652500D03*
X195776750Y-105652500D03*
X195276750Y-105652500D03*
X194776750Y-105652500D03*
X194276750Y-105652500D03*
D16*
X193339250Y-106590000D03*
X193339250Y-107090000D03*
X193339250Y-107590000D03*
X193339250Y-108090000D03*
X193339250Y-108590000D03*
D17*
X194276750Y-109527500D03*
X194776750Y-109527500D03*
X195276750Y-109527500D03*
X195776750Y-109527500D03*
X196276750Y-109527500D03*
%TD*%
D18*
%TO.C,S2*%
X222800000Y-108120000D03*
X225350000Y-108120000D03*
X222800000Y-109280000D03*
X225350000Y-109280000D03*
%TD*%
D19*
%TO.C,C6*%
X194326750Y-111615000D03*
X196226750Y-111615000D03*
%TD*%
D20*
%TO.C,C24*%
X214375000Y-71485000D03*
X212475000Y-71485000D03*
%TD*%
D21*
%TO.C,C1*%
X215750000Y-102425000D03*
X215750000Y-100525000D03*
%TD*%
D22*
%TO.C,R14*%
X206012500Y-95325000D03*
X207837500Y-95325000D03*
%TD*%
D23*
%TO.C,R8*%
X191101750Y-100827500D03*
X191101750Y-102652500D03*
%TD*%
D24*
%TO.C,C8*%
X243925000Y-66250000D03*
X243925000Y-68150000D03*
%TD*%
D25*
%TO.C,U5*%
X213687500Y-99662500D03*
X212737500Y-99662500D03*
X211787500Y-99662500D03*
X211787500Y-101937500D03*
X212737500Y-101937500D03*
X213687500Y-101937500D03*
%TD*%
D26*
%TO.C,U2*%
X227675000Y-71045000D03*
X227675000Y-72315000D03*
X227675000Y-73585000D03*
X227675000Y-74855000D03*
X234875000Y-74855000D03*
X234875000Y-73585000D03*
X234875000Y-72315000D03*
X234875000Y-71045000D03*
%TD*%
D20*
%TO.C,C21*%
X232625000Y-106025000D03*
X230725000Y-106025000D03*
%TD*%
D23*
%TO.C,R5*%
X183975000Y-100837500D03*
X183975000Y-102662500D03*
%TD*%
D27*
%TO.C,R23*%
X208712500Y-82200000D03*
X206887500Y-82200000D03*
%TD*%
D22*
%TO.C,R15*%
X241625000Y-74075000D03*
X243450000Y-74075000D03*
%TD*%
D28*
%TO.C,U7*%
X214350000Y-73800000D03*
X213700000Y-73800000D03*
X213050000Y-73800000D03*
X213050000Y-75720000D03*
X214350000Y-75720000D03*
%TD*%
D14*
%TO.C,D1*%
X193675000Y-97650000D03*
X193675000Y-95600000D03*
%TD*%
D29*
%TO.C,Q2*%
X224975000Y-101462500D03*
X223075000Y-101462500D03*
X224025000Y-103337500D03*
%TD*%
D13*
%TO.C,R35*%
X220675000Y-108837500D03*
X220675000Y-107012500D03*
%TD*%
D21*
%TO.C,C14*%
X225275000Y-75425000D03*
X225275000Y-73525000D03*
%TD*%
D13*
%TO.C,R4*%
X205949250Y-107867500D03*
X205949250Y-106042500D03*
%TD*%
D22*
%TO.C,R29*%
X216637500Y-73951667D03*
X218462500Y-73951667D03*
%TD*%
D27*
%TO.C,R27*%
X218462500Y-76393333D03*
X216637500Y-76393333D03*
%TD*%
D22*
%TO.C,R12*%
X218512500Y-87312500D03*
X220337500Y-87312500D03*
%TD*%
D27*
%TO.C,R33*%
X228701750Y-100040000D03*
X226876750Y-100040000D03*
%TD*%
D30*
%TO.C,D5*%
X203675000Y-92275000D03*
X201625000Y-92275000D03*
%TD*%
D20*
%TO.C,C5*%
X193425000Y-81100000D03*
X191525000Y-81100000D03*
%TD*%
D27*
%TO.C,R10*%
X200612500Y-80325000D03*
X198787500Y-80325000D03*
%TD*%
D30*
%TO.C,D4*%
X200702500Y-83023250D03*
X198652500Y-83023250D03*
%TD*%
D23*
%TO.C,R11*%
X212525000Y-88250000D03*
X212525000Y-90075000D03*
%TD*%
D30*
%TO.C,D6*%
X203725000Y-95275000D03*
X201675000Y-95275000D03*
%TD*%
D24*
%TO.C,C25*%
X206075000Y-68760000D03*
X206075000Y-70660000D03*
%TD*%
D31*
%TO.C,U3*%
X246075000Y-65900000D03*
X246075000Y-67400000D03*
X246075000Y-68900000D03*
X246075000Y-70400000D03*
X246075000Y-71900000D03*
X246075000Y-73400000D03*
X246075000Y-74900000D03*
X246075000Y-76400000D03*
X246075000Y-77900000D03*
X263575000Y-77900000D03*
X263575000Y-76400000D03*
X263575000Y-74900000D03*
X263575000Y-73400000D03*
X263575000Y-71900000D03*
X263575000Y-70400000D03*
X263575000Y-68900000D03*
X263575000Y-67400000D03*
X263575000Y-65900000D03*
D32*
X254685000Y-71000000D03*
X255785000Y-71000000D03*
X256885000Y-71000000D03*
X254685000Y-72100000D03*
X255785000Y-72100000D03*
X256885000Y-72100000D03*
X254685000Y-73200000D03*
X255785000Y-73200000D03*
X256885000Y-73200000D03*
%TD*%
D18*
%TO.C,S1*%
X230350000Y-108095000D03*
X232900000Y-108095000D03*
X230350000Y-109255000D03*
X232900000Y-109255000D03*
%TD*%
D23*
%TO.C,R6*%
X186387500Y-100837500D03*
X186387500Y-102662500D03*
%TD*%
D13*
%TO.C,R3*%
X205949250Y-111617500D03*
X205949250Y-109792500D03*
%TD*%
D33*
%TO.C,J1*%
X210000000Y-105690000D03*
X210500000Y-105690000D03*
X211000000Y-105690000D03*
X211500000Y-105690000D03*
X212000000Y-105690000D03*
X212500000Y-105690000D03*
X213000000Y-105690000D03*
X213500000Y-105690000D03*
X214000000Y-105690000D03*
X214500000Y-105690000D03*
X215000000Y-105690000D03*
X215500000Y-105690000D03*
%TD*%
D13*
%TO.C,R2*%
X198575000Y-102662500D03*
X198575000Y-100837500D03*
%TD*%
D34*
%TO.C,C12*%
X250222500Y-83550000D03*
X252927500Y-83550000D03*
%TD*%
D23*
%TO.C,R16*%
X242600000Y-83762500D03*
X242600000Y-85587500D03*
%TD*%
D22*
%TO.C,R28*%
X216637500Y-71510000D03*
X218462500Y-71510000D03*
%TD*%
D35*
%TO.C,Q3*%
X230626750Y-103677500D03*
X232526750Y-103677500D03*
X231576750Y-101802500D03*
%TD*%
D36*
%TO.C,U4*%
X211650000Y-93987500D03*
X212450000Y-93987500D03*
X211650000Y-93187500D03*
X212450000Y-93187500D03*
D37*
X211150000Y-95037500D03*
D38*
X211600000Y-95037500D03*
X212050000Y-95037500D03*
X212500000Y-95037500D03*
D39*
X212950000Y-95037500D03*
D40*
X213500000Y-94487500D03*
D41*
X213500000Y-94037500D03*
X213500000Y-93587500D03*
X213500000Y-93137500D03*
D42*
X213500000Y-92687500D03*
D43*
X212950000Y-92137500D03*
D38*
X212500000Y-92137500D03*
X212050000Y-92137500D03*
X211600000Y-92137500D03*
D44*
X211150000Y-92137500D03*
D45*
X210600000Y-92687500D03*
D41*
X210600000Y-93137500D03*
X210600000Y-93587500D03*
X210600000Y-94037500D03*
D46*
X210600000Y-94487500D03*
%TD*%
D22*
%TO.C,R13*%
X218537500Y-89812500D03*
X220362500Y-89812500D03*
%TD*%
D19*
%TO.C,C18*%
X212500000Y-77985000D03*
X214400000Y-77985000D03*
%TD*%
D22*
%TO.C,R18*%
X206015000Y-92325000D03*
X207840000Y-92325000D03*
%TD*%
%TO.C,R22*%
X232387500Y-77450000D03*
X234212500Y-77450000D03*
%TD*%
D47*
%TO.C,VR1*%
X191925000Y-85975000D03*
X191925000Y-88275000D03*
X191925000Y-90575000D03*
D48*
X197725000Y-88275000D03*
%TD*%
D22*
%TO.C,R34*%
X226876750Y-103365000D03*
X228701750Y-103365000D03*
%TD*%
D20*
%TO.C,C22*%
X224975000Y-106000000D03*
X223075000Y-106000000D03*
%TD*%
D19*
%TO.C,C19*%
X216637500Y-78772500D03*
X218537500Y-78772500D03*
%TD*%
D23*
%TO.C,R31*%
X209950000Y-73747500D03*
X209950000Y-75572500D03*
%TD*%
D49*
%TO.C,J3*%
X257525000Y-87875000D03*
X255025000Y-87875000D03*
X252525000Y-87875000D03*
X250025000Y-87875000D03*
X247525000Y-87875000D03*
X245025000Y-87875000D03*
X242600000Y-87875000D03*
X240900000Y-87875000D03*
X260025000Y-87875000D03*
D50*
X239600000Y-87875000D03*
D51*
X237000000Y-89675000D03*
X262100000Y-89675000D03*
X264300000Y-111175000D03*
X237000000Y-111175000D03*
D50*
X238400000Y-87875000D03*
%TD*%
D22*
%TO.C,R32*%
X208387500Y-68935000D03*
X210212500Y-68935000D03*
%TD*%
D52*
%TO.C,C9*%
X218075000Y-94927500D03*
X218075000Y-92222500D03*
%TD*%
D23*
%TO.C,R9*%
X196126750Y-100827500D03*
X196126750Y-102652500D03*
%TD*%
D13*
%TO.C,R25*%
X221225000Y-64362500D03*
X221225000Y-62537500D03*
%TD*%
D21*
%TO.C,C20*%
X207500000Y-75610000D03*
X207500000Y-73710000D03*
%TD*%
D19*
%TO.C,C15*%
X217250000Y-66050000D03*
X219150000Y-66050000D03*
%TD*%
D23*
%TO.C,R7*%
X193601750Y-100827500D03*
X193601750Y-102652500D03*
%TD*%
D53*
%TO.C,C7*%
X241700000Y-66447500D03*
X241700000Y-69152500D03*
%TD*%
D21*
%TO.C,C2*%
X186500000Y-87900000D03*
X186500000Y-86000000D03*
%TD*%
D23*
%TO.C,R19*%
X257850000Y-83137500D03*
X257850000Y-84962500D03*
%TD*%
D22*
%TO.C,R30*%
X208387500Y-71460000D03*
X210212500Y-71460000D03*
%TD*%
D27*
%TO.C,R20*%
X243437500Y-71725000D03*
X241612500Y-71725000D03*
%TD*%
D21*
%TO.C,C11*%
X215675000Y-90987500D03*
X215675000Y-89087500D03*
%TD*%
D54*
%TO.C,J2*%
X183000000Y-110050000D03*
X185000000Y-110050000D03*
D55*
X180600000Y-107800000D03*
X187400000Y-107800000D03*
%TD*%
D14*
%TO.C,D2*%
X191125000Y-97650000D03*
X191125000Y-95600000D03*
%TD*%
D21*
%TO.C,C10*%
X215775000Y-94900000D03*
X215775000Y-93000000D03*
%TD*%
D19*
%TO.C,C13*%
X250100000Y-85775000D03*
X252000000Y-85775000D03*
%TD*%
D56*
%TO.C,C4*%
X194427500Y-83375000D03*
X191722500Y-83375000D03*
%TD*%
D52*
%TO.C,C3*%
X188925000Y-88902500D03*
X188925000Y-86197500D03*
%TD*%
D13*
%TO.C,R1*%
X188800000Y-102662500D03*
X188800000Y-100837500D03*
%TD*%
D57*
%TO.C,U6*%
X217500000Y-62325000D03*
X218150000Y-62325000D03*
X218800000Y-62325000D03*
X219450000Y-62325000D03*
X219450000Y-64375000D03*
X218800000Y-64375000D03*
X218150000Y-64375000D03*
X217500000Y-64375000D03*
%TD*%
M02*
