M48
; DRILL file KiCad 10.0.4 date 2026-09-09T23:06:27
; FORMAT={-:-/ absolute / metric / decimal}
; #@! TF.CreationDate,2026-09-09T23:06:27+05:00
; #@! TF.GenerationSoftware,Kicad,Pcbnew,10.0.4
; #@! TF.FileFunction,Plated,1,2,Blind
FMAT,2
METRIC
; #@! TA.AperFunction,Plated,Buried,ViaDrill
T1C0.200
; #@! TA.AperFunction,Plated,Buried,ViaDrill
T2C0.300
; #@! TA.AperFunction,Plated,Buried,ViaDrill
T3C0.400
%
G90
G05
T1
X193.0Y-105.6
X197.275Y-111.615
X197.4Y-80.3
X211.2Y-85.5
X219.15Y-92.2
X221.9Y-89.8
X223.0Y-104.7
X229.3Y-108.6
X235.3Y-89.0
X235.4Y-111.2
X240.9Y-86.5
X245.1Y-86.6
X247.9Y-78.1
X251.8Y-89.6
X253.4Y-85.5
X254.3Y-83.6
X260.0Y-86.4
T2
X181.323Y-111.335
X181.323Y-112.335
X181.323Y-113.335
X186.25Y-84.875
X187.5Y-84.875
X188.75Y-84.875
X190.0Y-84.875
X190.225Y-80.925
X190.225Y-82.212
X190.225Y-83.5
X191.25Y-84.875
X208.5Y-99.875
X208.5Y-100.8
X208.5Y-101.725
X211.15Y-96.65
X211.866Y-103.256
X215.65Y-92.0
X222.0Y-107.35
T3
X215.7Y-88.0
M30
