M48
; DRILL file KiCad 10.0.4 date 2026-09-09T23:05:09
; FORMAT={-:-/ absolute / metric / decimal}
; #@! TF.CreationDate,2026-09-09T23:05:09+05:00
; #@! TF.GenerationSoftware,Kicad,Pcbnew,10.0.4
; #@! TF.FileFunction,Plated,1,4,PTH
FMAT,2
METRIC
; #@! TA.AperFunction,Plated,PTH,ViaDrill
T1C0.200
; #@! TA.AperFunction,Plated,PTH,ViaDrill
T2C0.250
; #@! TA.AperFunction,Plated,PTH,ViaDrill
T3C0.300
; #@! TA.AperFunction,Plated,PTH,ComponentDrill
T4C0.300
; #@! TA.AperFunction,Plated,PTH,ViaDrill
T5C0.400
; #@! TA.AperFunction,Plated,PTH,ComponentDrill
T6C0.400
; #@! TA.AperFunction,Plated,PTH,ComponentDrill
T7C0.450
; #@! TA.AperFunction,Plated,PTH,ComponentDrill
T8C0.550
; #@! TA.AperFunction,Plated,PTH,ComponentDrill
T9C0.650
; #@! TA.AperFunction,Plated,PTH,ComponentDrill
T10C0.700
; #@! TA.AperFunction,Plated,PTH,ComponentDrill
T11C1.000
%
G90
G05
T1
X185.175Y-100.837
X187.575Y-100.837
X209.15Y-103.7
X213.45Y-72.675
X215.376Y-70.249
X216.0Y-66.3
X229.7Y-106.0
X241.7Y-70.15
X244.3Y-70.2
T2
X211.5Y-91.15
X248.5Y-76.4
X250.8Y-70.275
X255.3Y-80.6
X256.502Y-80.4
T3
X186.5Y-90.3
X198.531Y-107.566
X198.6Y-99.4
X200.0Y-92.2
X209.05Y-91.4
X209.531Y-93.487
X210.1Y-103.5
X210.7Y-100.8
X211.3Y-78.0
X213.6Y-76.8
X213.8Y-103.5
X214.4Y-79.5
X217.1Y-100.5
X217.35Y-99.55
X219.1Y-67.5
X220.0Y-73.9
X220.2Y-78.8
X224.0Y-73.55
X224.8Y-69.1
X225.3Y-76.55
X225.7Y-67.9
X225.807Y-68.541
X234.48Y-69.43
X235.2Y-66.8
X238.5Y-65.85
X239.3Y-68.7
X240.875Y-77.5
X244.4Y-75.6
X246.3Y-79.6
X248.0Y-67.427
X249.225Y-77.5
X250.0Y-67.85
X250.35Y-82.175
X256.4Y-68.7
X260.0Y-70.4
X260.7Y-77.1
X261.0Y-73.4
X261.2Y-71.9
X262.3Y-111.2
T4
X254.685Y-71.55
X254.685Y-72.65
X255.235Y-71.0
X255.235Y-72.1
X255.235Y-73.2
X255.785Y-71.55
X255.785Y-72.65
X256.335Y-71.0
X256.335Y-72.1
X256.335Y-73.2
X256.885Y-71.55
X256.885Y-72.65
T5
X209.577Y-92.6
X210.0Y-82.2
X211.5Y-69.0
X213.1Y-100.8
X216.7Y-62.3
X217.1Y-98.1
X220.2Y-65.3
X221.2Y-66.5
X259.0Y-83.2
X261.3Y-75.8
T6
X209.95Y-106.91
X210.35Y-107.61
X211.15Y-107.61
X211.55Y-106.91
X211.95Y-107.61
X212.35Y-106.91
X213.15Y-106.91
X213.55Y-107.61
X213.95Y-106.91
X214.35Y-107.61
X215.15Y-107.61
X215.55Y-106.91
T10
X202.531Y-73.435
X202.531Y-75.335
T11
X189.86Y-62.525
X192.4Y-62.525
X194.94Y-62.525
X197.48Y-62.525
X200.02Y-62.525
X204.28Y-62.525
X206.82Y-62.525
X209.36Y-62.525
X211.9Y-62.525
T7
G00X208.73Y-104.71
M15
G01X209.08Y-104.71
M16
G05
G00X216.42Y-104.71
M15
G01X216.77Y-104.71
M16
G05
T8
G00X208.25Y-109.525
M15
G01X208.25Y-110.525
M16
G05
G00X217.25Y-109.525
M15
G01X217.25Y-110.525
M16
G05
T9
G00X208.53Y-107.21
M15
G01X208.53Y-107.81
M16
G05
G00X216.97Y-107.21
M15
G01X216.97Y-107.81
M16
G05
M30
